<?xml version="1.0" encoding="utf-8" standalone="no"?>
<!DOCTYPE svg PUBLIC "-//W3C//DTD SVG 1.1//EN"
  "http://www.w3.org/Graphics/SVG/1.1/DTD/svg11.dtd">
<svg xmlns:xlink="http://www.w3.org/1999/xlink" width="1166.4pt" height="691.56pt" viewBox="0 0 1166.4 691.56" xmlns="http://www.w3.org/2000/svg" version="1.1">
 <metadata>
  <rdf:RDF xmlns:dc="http://purl.org/dc/elements/1.1/" xmlns:cc="http://creativecommons.org/ns#" xmlns:rdf="http://www.w3.org/1999/02/22-rdf-syntax-ns#">
   <cc:Work>
    <dc:type rdf:resource="http://purl.org/dc/dcmitype/StillImage"/>
    <dc:date>2024-11-12T13:24:28.330140</dc:date>
    <dc:format>image/svg+xml</dc:format>
    <dc:creator>
     <cc:Agent>
      <dc:title>Matplotlib v3.9.2, https://matplotlib.org/</dc:title>
     </cc:Agent>
    </dc:creator>
   </cc:Work>
  </rdf:RDF>
 </metadata>
 <defs>
  <style type="text/css">*{stroke-linejoin: round; stroke-linecap: butt}</style>
 </defs>
 <g id="figure_1">
  <g id="patch_1">
   <path d="M 0 691.56 
L 1166.4 691.56 
L 1166.4 0 
L 0 0 
L 0 691.56 
z
" style="fill: none"/>
  </g>
  <g id="axes_1">
   <g id="patch_2">
    <path d="M 149.277041 146.24082 
L 106.927995 102.7511 
L 22.229903 102.7511 
L -20.119143 146.24082 
L 22.229903 189.73054 
L 106.927995 189.73054 
z
" clip-path="url(#pc35b41e398)" style="opacity: 0.186192; stroke: #000000; stroke-linejoin: miter"/>
   </g>
   <g id="patch_3">
    <path d="M 149.277041 146.24082 
L 106.927995 102.7511 
L 22.229903 102.7511 
L -1 126.606702 
M -1 165.874938 
L 22.229903 189.73054 
L 106.927995 189.73054 
L 149.277041 146.24082 
" clip-path="url(#pc35b41e398)" style="fill: none; opacity: 0.386192; stroke: #0033ee; stroke-linejoin: miter"/>
   </g>
   <g id="patch_4">
    <path d="M 443.162427 327.523145 
L 398.82287 281.989299 
L 310.143756 281.989299 
L 265.804199 327.523145 
L 310.143756 373.056991 
L 398.82287 373.056991 
z
" clip-path="url(#pc35b41e398)" style="opacity: 0.287144; stroke: #000000; stroke-linejoin: miter"/>
   </g>
   <g id="patch_5">
    <path d="M 443.162427 327.523145 
L 398.82287 281.989299 
L 310.143756 281.989299 
L 265.804199 327.523145 
L 310.143756 373.056991 
L 398.82287 373.056991 
L 443.162427 327.523145 
z
" clip-path="url(#pc35b41e398)" style="fill: none; opacity: 0.487144; stroke: #0033ff; stroke-linejoin: miter"/>
   </g>
   <g id="patch_6">
    <path d="M 919.570727 13.18192 
L 860.001491 -47.991817 
L 740.863019 -47.991817 
L 681.293784 13.18192 
L 740.863019 74.355657 
L 860.001491 74.355657 
z
" clip-path="url(#pc35b41e398)" style="fill: #000011; opacity: 0.280245; stroke: #000011; stroke-linejoin: miter"/>
   </g>
   <g id="patch_7">
    <path d="M 919.570727 13.18192 
L 905.760779 -1 
M 695.103732 -1 
L 681.293784 13.18192 
L 740.863019 74.355657 
L 860.001491 74.355657 
L 919.570727 13.18192 
" clip-path="url(#pc35b41e398)" style="fill: none; opacity: 0.480245; stroke: #0033ff; stroke-linejoin: miter"/>
   </g>
   <g id="patch_8">
    <path d="M 949.172736 672.518116 
L 887.868221 609.56236 
L 765.25919 609.56236 
L 703.954675 672.518116 
L 765.25919 735.473873 
L 887.868221 735.473873 
z
" clip-path="url(#pc35b41e398)" style="fill: #000011; opacity: 0.37128; stroke: #000011; stroke-linejoin: miter"/>
   </g>
   <g id="patch_9">
    <path d="M 949.172736 672.518116 
L 887.868221 609.56236 
L 765.25919 609.56236 
L 703.954675 672.518116 
L 723.470888 692.56 
M 929.656523 692.56 
L 949.172736 672.518116 
" clip-path="url(#pc35b41e398)" style="fill: none; opacity: 0.57128; stroke: #004400; stroke-linejoin: miter"/>
   </g>
   <g id="patch_10">
    <path d="M 227.351238 113.89981 
L 183.032477 68.387321 
L 94.394956 68.387321 
L 50.076195 113.89981 
L 94.394956 159.4123 
L 183.032477 159.4123 
z
" clip-path="url(#pc35b41e398)" style="fill: #000022; opacity: 0.160674; stroke: #000022; stroke-linejoin: miter"/>
   </g>
   <g id="patch_11">
    <path d="M 227.351238 113.89981 
L 183.032477 68.387321 
L 94.394956 68.387321 
L 50.076195 113.89981 
L 94.394956 159.4123 
L 183.032477 159.4123 
L 227.351238 113.89981 
z
" clip-path="url(#pc35b41e398)" style="fill: none; opacity: 0.360674; stroke: #004411; stroke-linejoin: miter"/>
   </g>
   <g id="patch_12">
    <path d="M 586.796353 228.356722 
L 555.340754 196.053863 
L 492.429554 196.053863 
L 460.973954 228.356722 
L 492.429554 260.65958 
L 555.340754 260.65958 
z
" clip-path="url(#pc35b41e398)" style="fill: #000033; opacity: 0.38722; stroke: #000033; stroke-linejoin: miter"/>
   </g>
   <g id="patch_13">
    <path d="M 586.796353 228.356722 
L 555.340754 196.053863 
L 492.429554 196.053863 
L 460.973954 228.356722 
L 492.429554 260.65958 
L 555.340754 260.65958 
L 586.796353 228.356722 
z
" clip-path="url(#pc35b41e398)" style="fill: none; opacity: 0.58722; stroke: #004411; stroke-linejoin: miter"/>
   </g>
   <g id="patch_14">
    <path d="M 717.308735 255.860915 
L 655.100739 191.977343 
L 530.684747 191.977343 
L 468.476751 255.860915 
L 530.684747 319.744488 
L 655.100739 319.744488 
z
" clip-path="url(#pc35b41e398)" style="fill: #000033; opacity: 0.35051; stroke: #000033; stroke-linejoin: miter"/>
   </g>
   <g id="patch_15">
    <path d="M 717.308735 255.860915 
L 655.100739 191.977343 
L 530.684747 191.977343 
L 468.476751 255.860915 
L 530.684747 319.744488 
L 655.100739 319.744488 
L 717.308735 255.860915 
z
" clip-path="url(#pc35b41e398)" style="fill: none; opacity: 0.55051; stroke: #004422; stroke-linejoin: miter"/>
   </g>
   <g id="patch_16">
    <path d="M 977.53302 251.090054 
L 933.334314 205.700854 
L 844.936904 205.700854 
L 800.738199 251.090054 
L 844.936904 296.479254 
L 933.334314 296.479254 
z
" clip-path="url(#pc35b41e398)" style="fill: #000044; opacity: 0.208689; stroke: #000044; stroke-linejoin: miter"/>
   </g>
   <g id="patch_17">
    <path d="M 977.53302 251.090054 
L 933.334314 205.700854 
L 844.936904 205.700854 
L 800.738199 251.090054 
L 844.936904 296.479254 
L 933.334314 296.479254 
L 977.53302 251.090054 
z
" clip-path="url(#pc35b41e398)" style="fill: none; opacity: 0.408689; stroke: #004422; stroke-linejoin: miter"/>
   </g>
   <g id="patch_18">
    <path d="M 680.187157 471.536395 
L 656.179167 446.881749 
L 608.163187 446.881749 
L 584.155196 471.536395 
L 608.163187 496.191042 
L 656.179167 496.191042 
z
" clip-path="url(#pc35b41e398)" style="fill: #000055; opacity: 0.143497; stroke: #000055; stroke-linejoin: miter"/>
   </g>
   <g id="patch_19">
    <path d="M 680.187157 471.536395 
L 656.179167 446.881749 
L 608.163187 446.881749 
L 584.155196 471.536395 
L 608.163187 496.191042 
L 656.179167 496.191042 
L 680.187157 471.536395 
z
" clip-path="url(#pc35b41e398)" style="fill: none; opacity: 0.343497; stroke: #004433; stroke-linejoin: miter"/>
   </g>
   <g id="patch_20">
    <path d="M 316.552362 415.64037 
L 267.61526 365.385144 
L 169.741054 365.385144 
L 120.803952 415.64037 
L 169.741054 465.895597 
L 267.61526 465.895597 
z
" clip-path="url(#pc35b41e398)" style="fill: #000055; opacity: 0.172011; stroke: #000055; stroke-linejoin: miter"/>
   </g>
   <g id="patch_21">
    <path d="M 316.552362 415.64037 
L 267.61526 365.385144 
L 169.741054 365.385144 
L 120.803952 415.64037 
L 169.741054 465.895597 
L 267.61526 465.895597 
L 316.552362 415.64037 
z
" clip-path="url(#pc35b41e398)" style="fill: none; opacity: 0.372011; stroke: #004444; stroke-linejoin: miter"/>
   </g>
   <g id="patch_22">
    <path d="M 713.226942 53.412776 
L 688.188774 27.700202 
L 638.112436 27.700202 
L 613.074267 53.412776 
L 638.112436 79.125349 
L 688.188774 79.125349 
z
" clip-path="url(#pc35b41e398)" style="fill: #000066; opacity: 0.153717; stroke: #000066; stroke-linejoin: miter"/>
   </g>
   <g id="patch_23">
    <path d="M 713.226942 53.412776 
L 688.188774 27.700202 
L 638.112436 27.700202 
L 613.074267 53.412776 
L 638.112436 79.125349 
L 688.188774 79.125349 
L 713.226942 53.412776 
z
" clip-path="url(#pc35b41e398)" style="fill: none; opacity: 0.353717; stroke: #004444; stroke-linejoin: miter"/>
   </g>
   <g id="patch_24">
    <path d="M 952.084508 670.077367 
L 895.953716 612.434689 
L 783.692132 612.434689 
L 727.561341 670.077367 
L 783.692132 727.720045 
L 895.953716 727.720045 
z
" clip-path="url(#pc35b41e398)" style="fill: #000066; opacity: 0.274848; stroke: #000066; stroke-linejoin: miter"/>
   </g>
   <g id="patch_25">
    <path d="M 952.084508 670.077367 
L 895.953716 612.434689 
L 783.692132 612.434689 
L 727.561341 670.077367 
L 749.454286 692.56 
M 930.191563 692.56 
L 952.084508 670.077367 
" clip-path="url(#pc35b41e398)" style="fill: none; opacity: 0.474848; stroke: #004455; stroke-linejoin: miter"/>
   </g>
   <g id="patch_26">
    <path d="M 1173.010777 23.030336 
L 1117.131931 -34.35361 
L 1005.374239 -34.35361 
L 949.495393 23.030336 
L 1005.374239 80.414282 
L 1117.131931 80.414282 
z
" clip-path="url(#pc35b41e398)" style="fill: #000077; opacity: 0.350719; stroke: #000077; stroke-linejoin: miter"/>
   </g>
   <g id="patch_27">
    <path d="M 1167.4 17.268433 
L 1149.610723 -1 
M 972.895447 -1 
L 949.495393 23.030336 
L 1005.374239 80.414282 
L 1117.131931 80.414282 
L 1167.4 28.792239 
" clip-path="url(#pc35b41e398)" style="fill: none; opacity: 0.550719; stroke: #004466; stroke-linejoin: miter"/>
   </g>
   <g id="patch_28">
    <path d="M 725.985135 557.052699 
L 658.281616 487.525582 
L 522.874579 487.525582 
L 455.17106 557.052699 
L 522.874579 626.579816 
L 658.281616 626.579816 
z
" clip-path="url(#pc35b41e398)" style="fill: #000088; opacity: 0.120893; stroke: #000088; stroke-linejoin: miter"/>
   </g>
   <g id="patch_29">
    <path d="M 725.985135 557.052699 
L 658.281616 487.525582 
L 522.874579 487.525582 
L 455.17106 557.052699 
L 522.874579 626.579816 
L 658.281616 626.579816 
L 725.985135 557.052699 
z
" clip-path="url(#pc35b41e398)" style="fill: none; opacity: 0.320893; stroke: #004466; stroke-linejoin: miter"/>
   </g>
   <g id="patch_30">
    <path d="M 589.487053 409.285451 
L 522.96513 340.971756 
L 389.921285 340.971756 
L 323.399362 409.285451 
L 389.921285 477.599146 
L 522.96513 477.599146 
z
" clip-path="url(#pc35b41e398)" style="fill: #000088; opacity: 0.151272; stroke: #000088; stroke-linejoin: miter"/>
   </g>
   <g id="patch_31">
    <path d="M 589.487053 409.285451 
L 522.96513 340.971756 
L 389.921285 340.971756 
L 323.399362 409.285451 
L 389.921285 477.599146 
L 522.96513 477.599146 
L 589.487053 409.285451 
z
" clip-path="url(#pc35b41e398)" style="fill: none; opacity: 0.351272; stroke: #004477; stroke-linejoin: miter"/>
   </g>
   <g id="patch_32">
    <path d="M 653.846741 455.914977 
L 624.344046 425.617625 
L 565.338656 425.617625 
L 535.835961 455.914977 
L 565.338656 486.212328 
L 624.344046 486.212328 
z
" clip-path="url(#pc35b41e398)" style="fill: #000099; opacity: 0.237076; stroke: #000099; stroke-linejoin: miter"/>
   </g>
   <g id="patch_33">
    <path d="M 653.846741 455.914977 
L 624.344046 425.617625 
L 565.338656 425.617625 
L 535.835961 455.914977 
L 565.338656 486.212328 
L 624.344046 486.212328 
L 653.846741 455.914977 
z
" clip-path="url(#pc35b41e398)" style="fill: none; opacity: 0.437076; stroke: #004477; stroke-linejoin: miter"/>
   </g>
   <g id="patch_34">
    <path d="M 350.489173 54.568481 
L 324.893646 28.283536 
L 273.702592 28.283536 
L 248.107064 54.568481 
L 273.702592 80.853425 
L 324.893646 80.853425 
z
" clip-path="url(#pc35b41e398)" style="fill: #0000aa; opacity: 0.126506; stroke: #0000aa; stroke-linejoin: miter"/>
   </g>
   <g id="patch_35">
    <path d="M 350.489173 54.568481 
L 324.893646 28.283536 
L 273.702592 28.283536 
L 248.107064 54.568481 
L 273.702592 80.853425 
L 324.893646 80.853425 
L 350.489173 54.568481 
z
" clip-path="url(#pc35b41e398)" style="fill: none; opacity: 0.326506; stroke: #004488; stroke-linejoin: miter"/>
   </g>
   <g id="patch_36">
    <path d="M 980.208003 367.742203 
L 928.279087 314.414579 
L 824.421256 314.414579 
L 772.49234 367.742203 
L 824.421256 421.069828 
L 928.279087 421.069828 
z
" clip-path="url(#pc35b41e398)" style="fill: #0000aa; opacity: 0.290033; stroke: #0000aa; stroke-linejoin: miter"/>
   </g>
   <g id="patch_37">
    <path d="M 980.208003 367.742203 
L 928.279087 314.414579 
L 824.421256 314.414579 
L 772.49234 367.742203 
L 824.421256 421.069828 
L 928.279087 421.069828 
L 980.208003 367.742203 
z
" clip-path="url(#pc35b41e398)" style="fill: none; opacity: 0.490033; stroke: #004499; stroke-linejoin: miter"/>
   </g>
   <g id="patch_38">
    <path d="M 1204.236901 83.086192 
L 1160.907154 38.589356 
L 1074.24766 38.589356 
L 1030.917913 83.086192 
L 1074.24766 127.583029 
L 1160.907154 127.583029 
z
" clip-path="url(#pc35b41e398)" style="fill: #0000bb; opacity: 0.13546; stroke: #0000bb; stroke-linejoin: miter"/>
   </g>
   <g id="patch_39">
    <path d="M 1167.4 45.257087 
L 1160.907154 38.589356 
L 1074.24766 38.589356 
L 1030.917913 83.086192 
L 1074.24766 127.583029 
L 1160.907154 127.583029 
L 1167.4 120.915297 
" clip-path="url(#pc35b41e398)" style="fill: none; opacity: 0.33546; stroke: #004499; stroke-linejoin: miter"/>
   </g>
   <g id="patch_40">
    <path d="M 1097.97496 683.204476 
L 1071.033481 655.537326 
L 1017.150522 655.537326 
L 990.209042 683.204476 
L 1017.150522 710.871626 
L 1071.033481 710.871626 
z
" clip-path="url(#pc35b41e398)" style="fill: #0000bb; opacity: 0.323723; stroke: #0000bb; stroke-linejoin: miter"/>
   </g>
   <g id="patch_41">
    <path d="M 1097.97496 683.204476 
L 1071.033481 655.537326 
L 1017.150522 655.537326 
L 990.209042 683.204476 
L 999.319184 692.56 
M 1088.864819 692.56 
L 1097.97496 683.204476 
" clip-path="url(#pc35b41e398)" style="fill: none; opacity: 0.523723; stroke: #0044aa; stroke-linejoin: miter"/>
   </g>
   <g id="patch_42">
    <path d="M 231.472923 376.409343 
L 201.905981 346.046014 
L 142.772098 346.046014 
L 113.205157 376.409343 
L 142.772098 406.772672 
L 201.905981 406.772672 
z
" clip-path="url(#pc35b41e398)" style="fill: #0000cc; opacity: 0.347148; stroke: #0000cc; stroke-linejoin: miter"/>
   </g>
   <g id="patch_43">
    <path d="M 231.472923 376.409343 
L 201.905981 346.046014 
L 142.772098 346.046014 
L 113.205157 376.409343 
L 142.772098 406.772672 
L 201.905981 406.772672 
L 231.472923 376.409343 
z
" clip-path="url(#pc35b41e398)" style="fill: none; opacity: 0.547148; stroke: #0044bb; stroke-linejoin: miter"/>
   </g>
   <g id="patch_44">
    <path d="M 852.243913 426.300937 
L 810.174365 383.098244 
L 726.03527 383.098244 
L 683.965723 426.300937 
L 726.03527 469.503631 
L 810.174365 469.503631 
z
" clip-path="url(#pc35b41e398)" style="fill: #0000dd; opacity: 0.379678; stroke: #0000dd; stroke-linejoin: miter"/>
   </g>
   <g id="patch_45">
    <path d="M 852.243913 426.300937 
L 810.174365 383.098244 
L 726.03527 383.098244 
L 683.965723 426.300937 
L 726.03527 469.503631 
L 810.174365 469.503631 
L 852.243913 426.300937 
z
" clip-path="url(#pc35b41e398)" style="fill: none; opacity: 0.579678; stroke: #0044bb; stroke-linejoin: miter"/>
   </g>
   <g id="patch_46">
    <path d="M 1070.570651 350.503946 
L 1040.64519 319.772441 
L 980.794269 319.772441 
L 950.868808 350.503946 
L 980.794269 381.23545 
L 1040.64519 381.23545 
z
" clip-path="url(#pc35b41e398)" style="fill: #0000dd; opacity: 0.139923; stroke: #0000dd; stroke-linejoin: miter"/>
   </g>
   <g id="patch_47">
    <path d="M 1070.570651 350.503946 
L 1040.64519 319.772441 
L 980.794269 319.772441 
L 950.868808 350.503946 
L 980.794269 381.23545 
L 1040.64519 381.23545 
L 1070.570651 350.503946 
z
" clip-path="url(#pc35b41e398)" style="fill: none; opacity: 0.339923; stroke: #0044cc; stroke-linejoin: miter"/>
   </g>
   <g id="patch_48">
    <path d="M 259.897918 329.007814 
L 195.684788 263.0651 
L 67.258528 263.0651 
L 3.045398 329.007814 
L 67.258528 394.950529 
L 195.684788 394.950529 
z
" clip-path="url(#pc35b41e398)" style="fill: #0000ee; opacity: 0.185168; stroke: #0000ee; stroke-linejoin: miter"/>
   </g>
   <g id="patch_49">
    <path d="M 259.897918 329.007814 
L 195.684788 263.0651 
L 67.258528 263.0651 
L 3.045398 329.007814 
L 67.258528 394.950529 
L 195.684788 394.950529 
L 259.897918 329.007814 
z
" clip-path="url(#pc35b41e398)" style="fill: none; opacity: 0.385168; stroke: #0044cc; stroke-linejoin: miter"/>
   </g>
   <g id="patch_50">
    <path d="M 841.20597 332.194651 
L 809.421722 299.554293 
L 745.853226 299.554293 
L 714.068978 332.194651 
L 745.853226 364.83501 
L 809.421722 364.83501 
z
" clip-path="url(#pc35b41e398)" style="fill: #0000ff; opacity: 0.186881; stroke: #0000ff; stroke-linejoin: miter"/>
   </g>
   <g id="patch_51">
    <path d="M 841.20597 332.194651 
L 809.421722 299.554293 
L 745.853226 299.554293 
L 714.068978 332.194651 
L 745.853226 364.83501 
L 809.421722 364.83501 
L 841.20597 332.194651 
z
" clip-path="url(#pc35b41e398)" style="fill: none; opacity: 0.386881; stroke: #0044dd; stroke-linejoin: miter"/>
   </g>
   <g id="patch_52">
    <path d="M 1239.481317 688.638596 
L 1182.99169 630.627417 
L 1070.012436 630.627417 
L 1013.522808 688.638596 
L 1070.012436 746.649774 
L 1182.99169 746.649774 
z
" clip-path="url(#pc35b41e398)" style="fill: #0000ff; opacity: 0.165339; stroke: #0000ff; stroke-linejoin: miter"/>
   </g>
   <g id="patch_53">
    <path d="M 1167.4 630.627417 
L 1070.012436 630.627417 
L 1013.522808 688.638596 
L 1017.34136 692.56 
" clip-path="url(#pc35b41e398)" style="fill: none; opacity: 0.365339; stroke: #0044ee; stroke-linejoin: miter"/>
   </g>
   <g id="patch_54">
    <path d="M 1169.907479 412.077884 
L 1125.058716 366.021116 
L 1035.36119 366.021116 
L 990.512428 412.077884 
L 1035.36119 458.134651 
L 1125.058716 458.134651 
z
" clip-path="url(#pc35b41e398)" style="fill: #001100; opacity: 0.371342; stroke: #001100; stroke-linejoin: miter"/>
   </g>
   <g id="patch_55">
    <path d="M 1167.4 409.502866 
L 1125.058716 366.021116 
L 1035.36119 366.021116 
L 990.512428 412.077884 
L 1035.36119 458.134651 
L 1125.058716 458.134651 
L 1167.4 414.652901 
" clip-path="url(#pc35b41e398)" style="fill: none; opacity: 0.571342; stroke: #0044ee; stroke-linejoin: miter"/>
   </g>
   <g id="patch_56">
    <path d="M 664.07668 174.371077 
L 598.268794 106.790652 
L 466.653023 106.790652 
L 400.845138 174.371077 
L 466.653023 241.951502 
L 598.268794 241.951502 
z
" clip-path="url(#pc35b41e398)" style="fill: #001100; opacity: 0.174203; stroke: #001100; stroke-linejoin: miter"/>
   </g>
   <g id="patch_57">
    <path d="M 664.07668 174.371077 
L 598.268794 106.790652 
L 466.653023 106.790652 
L 400.845138 174.371077 
L 466.653023 241.951502 
L 598.268794 241.951502 
L 664.07668 174.371077 
z
" clip-path="url(#pc35b41e398)" style="fill: none; opacity: 0.374203; stroke: #0044ff; stroke-linejoin: miter"/>
   </g>
   <g id="patch_58">
    <path d="M 1059.763075 20.485785 
L 1000.870371 -39.993197 
L 883.084964 -39.993197 
L 824.192261 20.485785 
L 883.084964 80.964767 
L 1000.870371 80.964767 
z
" clip-path="url(#pc35b41e398)" style="fill: #001111; opacity: 0.33692; stroke: #001111; stroke-linejoin: miter"/>
   </g>
   <g id="patch_59">
    <path d="M 1059.763075 20.485785 
L 1038.840832 -1 
M 845.114504 -1 
L 824.192261 20.485785 
L 883.084964 80.964767 
L 1000.870371 80.964767 
L 1059.763075 20.485785 
" clip-path="url(#pc35b41e398)" style="fill: none; opacity: 0.53692; stroke: #005500; stroke-linejoin: miter"/>
   </g>
   <g id="patch_60">
    <path d="M 162.096701 277.320781 
L 109.805539 223.621154 
L 5.223215 223.621154 
L -47.067947 277.320781 
L 5.223215 331.020409 
L 109.805539 331.020409 
z
" clip-path="url(#pc35b41e398)" style="fill: #001122; opacity: 0.177554; stroke: #001122; stroke-linejoin: miter"/>
   </g>
   <g id="patch_61">
    <path d="M 162.096701 277.320781 
L 109.805539 223.621154 
L 5.223215 223.621154 
L -1 230.011991 
M -1 324.629571 
L 5.223215 331.020409 
L 109.805539 331.020409 
L 162.096701 277.320781 
" clip-path="url(#pc35b41e398)" style="fill: none; opacity: 0.377554; stroke: #005500; stroke-linejoin: miter"/>
   </g>
   <g id="patch_62">
    <path d="M 776.277207 515.510411 
L 735.130721 473.255642 
L 652.83775 473.255642 
L 611.691264 515.510411 
L 652.83775 557.76518 
L 735.130721 557.76518 
z
" clip-path="url(#pc35b41e398)" style="fill: #001122; opacity: 0.100128; stroke: #001122; stroke-linejoin: miter"/>
   </g>
   <g id="patch_63">
    <path d="M 776.277207 515.510411 
L 735.130721 473.255642 
L 652.83775 473.255642 
L 611.691264 515.510411 
L 652.83775 557.76518 
L 735.130721 557.76518 
L 776.277207 515.510411 
z
" clip-path="url(#pc35b41e398)" style="fill: none; opacity: 0.300128; stroke: #005511; stroke-linejoin: miter"/>
   </g>
   <g id="patch_64">
    <path d="M 504.765313 346.016915 
L 471.844473 312.20935 
L 406.002794 312.20935 
L 373.081954 346.016915 
L 406.002794 379.824479 
L 471.844473 379.824479 
z
" clip-path="url(#pc35b41e398)" style="fill: #001133; opacity: 0.231169; stroke: #001133; stroke-linejoin: miter"/>
   </g>
   <g id="patch_65">
    <path d="M 504.765313 346.016915 
L 471.844473 312.20935 
L 406.002794 312.20935 
L 373.081954 346.016915 
L 406.002794 379.824479 
L 471.844473 379.824479 
L 504.765313 346.016915 
z
" clip-path="url(#pc35b41e398)" style="fill: none; opacity: 0.431169; stroke: #005511; stroke-linejoin: miter"/>
   </g>
   <g id="patch_66">
    <path d="M 426.31836 224.205403 
L 383.221624 179.947854 
L 297.028151 179.947854 
L 253.931414 224.205403 
L 297.028151 268.462953 
L 383.221624 268.462953 
z
" clip-path="url(#pc35b41e398)" style="fill: #001144; opacity: 0.276816; stroke: #001144; stroke-linejoin: miter"/>
   </g>
   <g id="patch_67">
    <path d="M 426.31836 224.205403 
L 383.221624 179.947854 
L 297.028151 179.947854 
L 253.931414 224.205403 
L 297.028151 268.462953 
L 383.221624 268.462953 
L 426.31836 224.205403 
z
" clip-path="url(#pc35b41e398)" style="fill: none; opacity: 0.476816; stroke: #005522; stroke-linejoin: miter"/>
   </g>
   <g id="patch_68">
    <path d="M 133.039399 634.290805 
L 69.933582 569.485229 
L -56.278052 569.485229 
L -119.383869 634.290805 
L -56.278052 699.096381 
L 69.933582 699.096381 
z
" clip-path="url(#pc35b41e398)" style="fill: #001144; opacity: 0.255058; stroke: #001144; stroke-linejoin: miter"/>
   </g>
   <g id="patch_69">
    <path d="M 133.039399 634.290805 
L 69.933582 569.485229 
L -1 569.485229 
M 76.298524 692.56 
L 133.039399 634.290805 
" clip-path="url(#pc35b41e398)" style="fill: none; opacity: 0.455058; stroke: #005533; stroke-linejoin: miter"/>
   </g>
   <g id="patch_70">
    <path d="M 696.239237 610.870132 
L 660.192331 573.8523 
L 588.098519 573.8523 
L 552.051613 610.870132 
L 588.098519 647.887964 
L 660.192331 647.887964 
z
" clip-path="url(#pc35b41e398)" style="fill: #001155; opacity: 0.343972; stroke: #001155; stroke-linejoin: miter"/>
   </g>
   <g id="patch_71">
    <path d="M 696.239237 610.870132 
L 660.192331 573.8523 
L 588.098519 573.8523 
L 552.051613 610.870132 
L 588.098519 647.887964 
L 660.192331 647.887964 
L 696.239237 610.870132 
z
" clip-path="url(#pc35b41e398)" style="fill: none; opacity: 0.543972; stroke: #005533; stroke-linejoin: miter"/>
   </g>
   <g id="patch_72">
    <path d="M 1289.834537 524.36867 
L 1223.612003 456.362428 
L 1091.166935 456.362428 
L 1024.944401 524.36867 
L 1091.166935 592.374913 
L 1223.612003 592.374913 
z
" clip-path="url(#pc35b41e398)" style="fill: #001155; opacity: 0.320139; stroke: #001155; stroke-linejoin: miter"/>
   </g>
   <g id="patch_73">
    <path d="M 1167.4 456.362428 
L 1091.166935 456.362428 
L 1024.944401 524.36867 
L 1091.166935 592.374913 
L 1167.4 592.374913 
" clip-path="url(#pc35b41e398)" style="fill: none; opacity: 0.520139; stroke: #005544; stroke-linejoin: miter"/>
   </g>
   <g id="patch_74">
    <path d="M 386.307951 125.92185 
L 360.614204 99.53604 
L 309.226708 99.53604 
L 283.532961 125.92185 
L 309.226708 152.30766 
L 360.614204 152.30766 
z
" clip-path="url(#pc35b41e398)" style="fill: #001166; opacity: 0.237451; stroke: #001166; stroke-linejoin: miter"/>
   </g>
   <g id="patch_75">
    <path d="M 386.307951 125.92185 
L 360.614204 99.53604 
L 309.226708 99.53604 
L 283.532961 125.92185 
L 309.226708 152.30766 
L 360.614204 152.30766 
L 386.307951 125.92185 
z
" clip-path="url(#pc35b41e398)" style="fill: none; opacity: 0.437451; stroke: #005555; stroke-linejoin: miter"/>
   </g>
   <g id="patch_76">
    <path d="M 396.448101 593.416555 
L 353.806234 549.626127 
L 268.5225 549.626127 
L 225.880633 593.416555 
L 268.5225 637.206983 
L 353.806234 637.206983 
z
" clip-path="url(#pc35b41e398)" style="fill: #001177; opacity: 0.312209; stroke: #001177; stroke-linejoin: miter"/>
   </g>
   <g id="patch_77">
    <path d="M 396.448101 593.416555 
L 353.806234 549.626127 
L 268.5225 549.626127 
L 225.880633 593.416555 
L 268.5225 637.206983 
L 353.806234 637.206983 
L 396.448101 593.416555 
z
" clip-path="url(#pc35b41e398)" style="fill: none; opacity: 0.512209; stroke: #005555; stroke-linejoin: miter"/>
   </g>
   <g id="patch_78">
    <path d="M 630.689912 420.65841 
L 588.025484 376.844813 
L 502.696628 376.844813 
L 460.0322 420.65841 
L 502.696628 464.472007 
L 588.025484 464.472007 
z
" clip-path="url(#pc35b41e398)" style="fill: #001177; opacity: 0.194413; stroke: #001177; stroke-linejoin: miter"/>
   </g>
   <g id="patch_79">
    <path d="M 630.689912 420.65841 
L 588.025484 376.844813 
L 502.696628 376.844813 
L 460.0322 420.65841 
L 502.696628 464.472007 
L 588.025484 464.472007 
L 630.689912 420.65841 
z
" clip-path="url(#pc35b41e398)" style="fill: none; opacity: 0.394413; stroke: #005566; stroke-linejoin: miter"/>
   </g>
   <g id="patch_80">
    <path d="M 162.545201 214.037816 
L 123.553156 173.995518 
L 45.569067 173.995518 
L 6.577023 214.037816 
L 45.569067 254.080113 
L 123.553156 254.080113 
z
" clip-path="url(#pc35b41e398)" style="fill: #001188; opacity: 0.136928; stroke: #001188; stroke-linejoin: miter"/>
   </g>
   <g id="patch_81">
    <path d="M 162.545201 214.037816 
L 123.553156 173.995518 
L 45.569067 173.995518 
L 6.577023 214.037816 
L 45.569067 254.080113 
L 123.553156 254.080113 
L 162.545201 214.037816 
z
" clip-path="url(#pc35b41e398)" style="fill: none; opacity: 0.336928; stroke: #005566; stroke-linejoin: miter"/>
   </g>
   <g id="patch_82">
    <path d="M 1105.472015 682.589059 
L 1053.872943 629.600162 
L 950.674797 629.600162 
L 899.075724 682.589059 
L 950.674797 735.577956 
L 1053.872943 735.577956 
z
" clip-path="url(#pc35b41e398)" style="fill: #001199; opacity: 0.298432; stroke: #001199; stroke-linejoin: miter"/>
   </g>
   <g id="patch_83">
    <path d="M 1105.472015 682.589059 
L 1053.872943 629.600162 
L 950.674797 629.600162 
L 899.075724 682.589059 
L 908.785141 692.56 
M 1095.762598 692.56 
L 1105.472015 682.589059 
" clip-path="url(#pc35b41e398)" style="fill: none; opacity: 0.498432; stroke: #005577; stroke-linejoin: miter"/>
   </g>
   <g id="patch_84">
    <path d="M 807.410595 512.323802 
L 774.169914 478.187781 
L 707.688552 478.187781 
L 674.447871 512.323802 
L 707.688552 546.459823 
L 774.169914 546.459823 
z
" clip-path="url(#pc35b41e398)" style="fill: #001199; opacity: 0.117513; stroke: #001199; stroke-linejoin: miter"/>
   </g>
   <g id="patch_85">
    <path d="M 807.410595 512.323802 
L 774.169914 478.187781 
L 707.688552 478.187781 
L 674.447871 512.323802 
L 707.688552 546.459823 
L 774.169914 546.459823 
L 807.410595 512.323802 
z
" clip-path="url(#pc35b41e398)" style="fill: none; opacity: 0.317513; stroke: #005588; stroke-linejoin: miter"/>
   </g>
   <g id="patch_86">
    <path d="M 1214.665121 465.830757 
L 1177.74007 427.911127 
L 1103.889967 427.911127 
L 1066.964916 465.830757 
L 1103.889967 503.750387 
L 1177.74007 503.750387 
z
" clip-path="url(#pc35b41e398)" style="fill: #0011aa; opacity: 0.136026; stroke: #0011aa; stroke-linejoin: miter"/>
   </g>
   <g id="patch_87">
    <path d="M 1167.4 427.911127 
L 1103.889967 427.911127 
L 1066.964916 465.830757 
L 1103.889967 503.750387 
L 1167.4 503.750387 
" clip-path="url(#pc35b41e398)" style="fill: none; opacity: 0.336026; stroke: #005588; stroke-linejoin: miter"/>
   </g>
   <g id="patch_88">
    <path d="M 706.042811 74.024385 
L 659.264907 25.986515 
L 565.709099 25.986515 
L 518.931194 74.024385 
L 565.709099 122.062255 
L 659.264907 122.062255 
z
" clip-path="url(#pc35b41e398)" style="fill: #0011aa; opacity: 0.333454; stroke: #0011aa; stroke-linejoin: miter"/>
   </g>
   <g id="patch_89">
    <path d="M 706.042811 74.024385 
L 659.264907 25.986515 
L 565.709099 25.986515 
L 518.931194 74.024385 
L 565.709099 122.062255 
L 659.264907 122.062255 
L 706.042811 74.024385 
z
" clip-path="url(#pc35b41e398)" style="fill: none; opacity: 0.533454; stroke: #005599; stroke-linejoin: miter"/>
   </g>
   <g id="patch_90">
    <path d="M 323.838082 327.085761 
L 295.820408 298.313429 
L 239.785061 298.313429 
L 211.767388 327.085761 
L 239.785061 355.858092 
L 295.820408 355.858092 
z
" clip-path="url(#pc35b41e398)" style="fill: #0011bb; opacity: 0.326209; stroke: #0011bb; stroke-linejoin: miter"/>
   </g>
   <g id="patch_91">
    <path d="M 323.838082 327.085761 
L 295.820408 298.313429 
L 239.785061 298.313429 
L 211.767388 327.085761 
L 239.785061 355.858092 
L 295.820408 355.858092 
L 323.838082 327.085761 
z
" clip-path="url(#pc35b41e398)" style="fill: none; opacity: 0.526209; stroke: #0055aa; stroke-linejoin: miter"/>
   </g>
   <g id="patch_92">
    <path d="M 1164.674306 600.177022 
L 1103.869551 537.734487 
L 982.26004 537.734487 
L 921.455284 600.177022 
L 982.26004 662.619558 
L 1103.869551 662.619558 
z
" clip-path="url(#pc35b41e398)" style="fill: #0011cc; opacity: 0.33839; stroke: #0011cc; stroke-linejoin: miter"/>
   </g>
   <g id="patch_93">
    <path d="M 1164.674306 600.177022 
L 1103.869551 537.734487 
L 982.26004 537.734487 
L 921.455284 600.177022 
L 982.26004 662.619558 
L 1103.869551 662.619558 
L 1164.674306 600.177022 
z
" clip-path="url(#pc35b41e398)" style="fill: none; opacity: 0.53839; stroke: #0055aa; stroke-linejoin: miter"/>
   </g>
   <g id="patch_94">
    <path d="M 420.75196 180.185968 
L 363.00114 120.879626 
L 247.499499 120.879626 
L 189.748679 180.185968 
L 247.499499 239.492311 
L 363.00114 239.492311 
z
" clip-path="url(#pc35b41e398)" style="fill: #0011cc; opacity: 0.330198; stroke: #0011cc; stroke-linejoin: miter"/>
   </g>
   <g id="patch_95">
    <path d="M 420.75196 180.185968 
L 363.00114 120.879626 
L 247.499499 120.879626 
L 189.748679 180.185968 
L 247.499499 239.492311 
L 363.00114 239.492311 
L 420.75196 180.185968 
z
" clip-path="url(#pc35b41e398)" style="fill: none; opacity: 0.530198; stroke: #0055bb; stroke-linejoin: miter"/>
   </g>
   <g id="patch_96">
    <path d="M 1174.27798 383.388956 
L 1119.372313 327.004401 
L 1009.560979 327.004401 
L 954.655312 383.388956 
L 1009.560979 439.77351 
L 1119.372313 439.77351 
z
" clip-path="url(#pc35b41e398)" style="fill: #0011dd; opacity: 0.200277; stroke: #0011dd; stroke-linejoin: miter"/>
   </g>
   <g id="patch_97">
    <path d="M 1167.4 376.325717 
L 1119.372313 327.004401 
L 1009.560979 327.004401 
L 954.655312 383.388956 
L 1009.560979 439.77351 
L 1119.372313 439.77351 
L 1167.4 390.452195 
" clip-path="url(#pc35b41e398)" style="fill: none; opacity: 0.400277; stroke: #0055bb; stroke-linejoin: miter"/>
   </g>
   <g id="patch_98">
    <path d="M 217.046821 202.402359 
L 159.610687 143.419179 
L 44.738419 143.419179 
L -12.697715 202.402359 
L 44.738419 261.385539 
L 159.610687 261.385539 
z
" clip-path="url(#pc35b41e398)" style="fill: #0011ee; opacity: 0.221938; stroke: #0011ee; stroke-linejoin: miter"/>
   </g>
   <g id="patch_99">
    <path d="M 217.046821 202.402359 
L 159.610687 143.419179 
L 44.738419 143.419179 
L -1 190.389566 
M -1 214.415152 
L 44.738419 261.385539 
L 159.610687 261.385539 
L 217.046821 202.402359 
" clip-path="url(#pc35b41e398)" style="fill: none; opacity: 0.421938; stroke: #0055cc; stroke-linejoin: miter"/>
   </g>
   <g id="patch_100">
    <path d="M 385.428404 514.297288 
L 335.186298 462.701908 
L 234.702087 462.701908 
L 184.459982 514.297288 
L 234.702087 565.892667 
L 335.186298 565.892667 
z
" clip-path="url(#pc35b41e398)" style="fill: #0011ee; opacity: 0.190619; stroke: #0011ee; stroke-linejoin: miter"/>
   </g>
   <g id="patch_101">
    <path d="M 385.428404 514.297288 
L 335.186298 462.701908 
L 234.702087 462.701908 
L 184.459982 514.297288 
L 234.702087 565.892667 
L 335.186298 565.892667 
L 385.428404 514.297288 
z
" clip-path="url(#pc35b41e398)" style="fill: none; opacity: 0.390619; stroke: #0055dd; stroke-linejoin: miter"/>
   </g>
   <g id="patch_102">
    <path d="M 308.66201 418.511562 
L 284.884196 394.093291 
L 237.328568 394.093291 
L 213.550754 418.511562 
L 237.328568 442.929833 
L 284.884196 442.929833 
z
" clip-path="url(#pc35b41e398)" style="fill: #0011ff; opacity: 0.124337; stroke: #0011ff; stroke-linejoin: miter"/>
   </g>
   <g id="patch_103">
    <path d="M 308.66201 418.511562 
L 284.884196 394.093291 
L 237.328568 394.093291 
L 213.550754 418.511562 
L 237.328568 442.929833 
L 284.884196 442.929833 
L 308.66201 418.511562 
z
" clip-path="url(#pc35b41e398)" style="fill: none; opacity: 0.324337; stroke: #0055dd; stroke-linejoin: miter"/>
   </g>
   <g id="patch_104">
    <path d="M 990.422429 450.773398 
L 965.665761 425.349908 
L 916.152425 425.349908 
L 891.395757 450.773398 
L 916.152425 476.196889 
L 965.665761 476.196889 
z
" clip-path="url(#pc35b41e398)" style="fill: #0011ff; opacity: 0.100863; stroke: #0011ff; stroke-linejoin: miter"/>
   </g>
   <g id="patch_105">
    <path d="M 990.422429 450.773398 
L 965.665761 425.349908 
L 916.152425 425.349908 
L 891.395757 450.773398 
L 916.152425 476.196889 
L 965.665761 476.196889 
L 990.422429 450.773398 
z
" clip-path="url(#pc35b41e398)" style="fill: none; opacity: 0.300863; stroke: #0055ee; stroke-linejoin: miter"/>
   </g>
   <g id="patch_106">
    <path d="M 530.526842 407.453315 
L 465.969539 341.157157 
L 336.854935 341.157157 
L 272.297632 407.453315 
L 336.854935 473.749472 
L 465.969539 473.749472 
z
" clip-path="url(#pc35b41e398)" style="fill: #002200; opacity: 0.3959; stroke: #002200; stroke-linejoin: miter"/>
   </g>
   <g id="patch_107">
    <path d="M 530.526842 407.453315 
L 465.969539 341.157157 
L 336.854935 341.157157 
L 272.297632 407.453315 
L 336.854935 473.749472 
L 465.969539 473.749472 
L 530.526842 407.453315 
z
" clip-path="url(#pc35b41e398)" style="fill: none; opacity: 0.5959; stroke: #0055ff; stroke-linejoin: miter"/>
   </g>
   <g id="patch_108">
    <path d="M 1035.985903 300.355702 
L 998.249366 261.602729 
L 922.776293 261.602729 
L 885.039757 300.355702 
L 922.776293 339.108674 
L 998.249366 339.108674 
z
" clip-path="url(#pc35b41e398)" style="fill: #002211; opacity: 0.270807; stroke: #002211; stroke-linejoin: miter"/>
   </g>
   <g id="patch_109">
    <path d="M 1035.985903 300.355702 
L 998.249366 261.602729 
L 922.776293 261.602729 
L 885.039757 300.355702 
L 922.776293 339.108674 
L 998.249366 339.108674 
L 1035.985903 300.355702 
z
" clip-path="url(#pc35b41e398)" style="fill: none; opacity: 0.470807; stroke: #0055ff; stroke-linejoin: miter"/>
   </g>
   <g id="patch_110">
    <path d="M 536.978346 214.888665 
L 503.744165 180.75932 
L 437.275804 180.75932 
L 404.041623 214.888665 
L 437.275804 249.018011 
L 503.744165 249.018011 
z
" clip-path="url(#pc35b41e398)" style="fill: #002211; opacity: 0.285248; stroke: #002211; stroke-linejoin: miter"/>
   </g>
   <g id="patch_111">
    <path d="M 536.978346 214.888665 
L 503.744165 180.75932 
L 437.275804 180.75932 
L 404.041623 214.888665 
L 437.275804 249.018011 
L 503.744165 249.018011 
L 536.978346 214.888665 
z
" clip-path="url(#pc35b41e398)" style="fill: none; opacity: 0.485248; stroke: #006600; stroke-linejoin: miter"/>
   </g>
   <g id="patch_112">
    <path d="M 169.110774 551.432825 
L 103.390285 483.94215 
L -28.050693 483.94215 
L -93.771182 551.432825 
L -28.050693 618.923499 
L 103.390285 618.923499 
z
" clip-path="url(#pc35b41e398)" style="fill: #002222; opacity: 0.233567; stroke: #002222; stroke-linejoin: miter"/>
   </g>
   <g id="patch_113">
    <path d="M 169.110774 551.432825 
L 103.390285 483.94215 
L -1 483.94215 
M -1 618.923499 
L 103.390285 618.923499 
L 169.110774 551.432825 
" clip-path="url(#pc35b41e398)" style="fill: none; opacity: 0.433567; stroke: #006600; stroke-linejoin: miter"/>
   </g>
   <g id="patch_114">
    <path d="M 150.474804 669.222058 
L 80.730435 597.59912 
L -58.758303 597.59912 
L -128.502672 669.222058 
L -58.758303 740.844996 
L 80.730435 740.844996 
z
" clip-path="url(#pc35b41e398)" style="fill: #002233; opacity: 0.294609; stroke: #002233; stroke-linejoin: miter"/>
   </g>
   <g id="patch_115">
    <path d="M 150.474804 669.222058 
L 80.730435 597.59912 
L -1 597.59912 
M 127.748983 692.56 
L 150.474804 669.222058 
" clip-path="url(#pc35b41e398)" style="fill: none; opacity: 0.494609; stroke: #006611; stroke-linejoin: miter"/>
   </g>
   <g id="patch_116">
    <path d="M 913.41937 374.320545 
L 850.461625 309.667029 
L 724.546135 309.667029 
L 661.58839 374.320545 
L 724.546135 438.974061 
L 850.461625 438.974061 
z
" clip-path="url(#pc35b41e398)" style="fill: #002233; opacity: 0.153326; stroke: #002233; stroke-linejoin: miter"/>
   </g>
   <g id="patch_117">
    <path d="M 913.41937 374.320545 
L 850.461625 309.667029 
L 724.546135 309.667029 
L 661.58839 374.320545 
L 724.546135 438.974061 
L 850.461625 438.974061 
L 913.41937 374.320545 
z
" clip-path="url(#pc35b41e398)" style="fill: none; opacity: 0.353326; stroke: #006622; stroke-linejoin: miter"/>
   </g>
   <g id="patch_118">
    <path d="M 397.588121 120.023877 
L 352.358702 73.576202 
L 261.899866 73.576202 
L 216.670448 120.023877 
L 261.899866 166.471552 
L 352.358702 166.471552 
z
" clip-path="url(#pc35b41e398)" style="fill: #002244; opacity: 0.315242; stroke: #002244; stroke-linejoin: miter"/>
   </g>
   <g id="patch_119">
    <path d="M 397.588121 120.023877 
L 352.358702 73.576202 
L 261.899866 73.576202 
L 216.670448 120.023877 
L 261.899866 166.471552 
L 352.358702 166.471552 
L 397.588121 120.023877 
z
" clip-path="url(#pc35b41e398)" style="fill: none; opacity: 0.515242; stroke: #006622; stroke-linejoin: miter"/>
   </g>
   <g id="patch_120">
    <path d="M 651.706296 182.001842 
L 594.530969 123.286494 
L 480.180315 123.286494 
L 423.004988 182.001842 
L 480.180315 240.71719 
L 594.530969 240.71719 
z
" clip-path="url(#pc35b41e398)" style="fill: #002244; opacity: 0.328278; stroke: #002244; stroke-linejoin: miter"/>
   </g>
   <g id="patch_121">
    <path d="M 651.706296 182.001842 
L 594.530969 123.286494 
L 480.180315 123.286494 
L 423.004988 182.001842 
L 480.180315 240.71719 
L 594.530969 240.71719 
L 651.706296 182.001842 
z
" clip-path="url(#pc35b41e398)" style="fill: none; opacity: 0.528278; stroke: #006633; stroke-linejoin: miter"/>
   </g>
   <g id="patch_122">
    <path d="M 511.380601 284.527046 
L 480.168426 252.474169 
L 417.744074 252.474169 
L 386.531898 284.527046 
L 417.744074 316.579924 
L 480.168426 316.579924 
z
" clip-path="url(#pc35b41e398)" style="fill: #002255; opacity: 0.296767; stroke: #002255; stroke-linejoin: miter"/>
   </g>
   <g id="patch_123">
    <path d="M 511.380601 284.527046 
L 480.168426 252.474169 
L 417.744074 252.474169 
L 386.531898 284.527046 
L 417.744074 316.579924 
L 480.168426 316.579924 
L 511.380601 284.527046 
z
" clip-path="url(#pc35b41e398)" style="fill: none; opacity: 0.496767; stroke: #006644; stroke-linejoin: miter"/>
   </g>
   <g id="patch_124">
    <path d="M 623.882534 325.618538 
L 575.184634 275.608957 
L 477.788833 275.608957 
L 429.090933 325.618538 
L 477.788833 375.628119 
L 575.184634 375.628119 
z
" clip-path="url(#pc35b41e398)" style="fill: #002266; opacity: 0.136809; stroke: #002266; stroke-linejoin: miter"/>
   </g>
   <g id="patch_125">
    <path d="M 623.882534 325.618538 
L 575.184634 275.608957 
L 477.788833 275.608957 
L 429.090933 325.618538 
L 477.788833 375.628119 
L 575.184634 375.628119 
L 623.882534 325.618538 
z
" clip-path="url(#pc35b41e398)" style="fill: none; opacity: 0.336809; stroke: #006644; stroke-linejoin: miter"/>
   </g>
   <g id="patch_126">
    <path d="M 1037.573458 551.903865 
L 999.440574 512.74387 
L 923.174808 512.74387 
L 885.041924 551.903865 
L 923.174808 591.06386 
L 999.440574 591.06386 
z
" clip-path="url(#pc35b41e398)" style="fill: #002266; opacity: 0.250845; stroke: #002266; stroke-linejoin: miter"/>
   </g>
   <g id="patch_127">
    <path d="M 1037.573458 551.903865 
L 999.440574 512.74387 
L 923.174808 512.74387 
L 885.041924 551.903865 
L 923.174808 591.06386 
L 999.440574 591.06386 
L 1037.573458 551.903865 
z
" clip-path="url(#pc35b41e398)" style="fill: none; opacity: 0.450845; stroke: #006655; stroke-linejoin: miter"/>
   </g>
   <g id="patch_128">
    <path d="M 1071.605195 636.139361 
L 1031.069636 594.511975 
L 949.998519 594.511975 
L 909.462961 636.139361 
L 949.998519 677.766747 
L 1031.069636 677.766747 
z
" clip-path="url(#pc35b41e398)" style="fill: #002277; opacity: 0.105899; stroke: #002277; stroke-linejoin: miter"/>
   </g>
   <g id="patch_129">
    <path d="M 1071.605195 636.139361 
L 1031.069636 594.511975 
L 949.998519 594.511975 
L 909.462961 636.139361 
L 949.998519 677.766747 
L 1031.069636 677.766747 
L 1071.605195 636.139361 
z
" clip-path="url(#pc35b41e398)" style="fill: none; opacity: 0.305899; stroke: #006655; stroke-linejoin: miter"/>
   </g>
   <g id="patch_130">
    <path d="M 806.974 108.325853 
L 744.825635 44.503517 
L 620.528905 44.503517 
L 558.38054 108.325853 
L 620.528905 172.148188 
L 744.825635 172.148188 
z
" clip-path="url(#pc35b41e398)" style="fill: #002288; opacity: 0.309381; stroke: #002288; stroke-linejoin: miter"/>
   </g>
   <g id="patch_131">
    <path d="M 806.974 108.325853 
L 744.825635 44.503517 
L 620.528905 44.503517 
L 558.38054 108.325853 
L 620.528905 172.148188 
L 744.825635 172.148188 
L 806.974 108.325853 
z
" clip-path="url(#pc35b41e398)" style="fill: none; opacity: 0.509381; stroke: #006666; stroke-linejoin: miter"/>
   </g>
   <g id="patch_132">
    <path d="M 799.676997 578.560012 
L 746.80169 524.260506 
L 641.051078 524.260506 
L 588.175772 578.560012 
L 641.051078 632.859517 
L 746.80169 632.859517 
z
" clip-path="url(#pc35b41e398)" style="fill: #002288; opacity: 0.232446; stroke: #002288; stroke-linejoin: miter"/>
   </g>
   <g id="patch_133">
    <path d="M 799.676997 578.560012 
L 746.80169 524.260506 
L 641.051078 524.260506 
L 588.175772 578.560012 
L 641.051078 632.859517 
L 746.80169 632.859517 
L 799.676997 578.560012 
z
" clip-path="url(#pc35b41e398)" style="fill: none; opacity: 0.432446; stroke: #006677; stroke-linejoin: miter"/>
   </g>
   <g id="patch_134">
    <path d="M 813.918285 26.283711 
L 779.961496 -8.587706 
L 712.047918 -8.587706 
L 678.091129 26.283711 
L 712.047918 61.155128 
L 779.961496 61.155128 
z
" clip-path="url(#pc35b41e398)" style="fill: #002299; opacity: 0.257825; stroke: #002299; stroke-linejoin: miter"/>
   </g>
   <g id="patch_135">
    <path d="M 813.918285 26.283711 
L 787.350187 -1 
M 704.659227 -1 
L 678.091129 26.283711 
L 712.047918 61.155128 
L 779.961496 61.155128 
L 813.918285 26.283711 
" clip-path="url(#pc35b41e398)" style="fill: none; opacity: 0.457825; stroke: #006677; stroke-linejoin: miter"/>
   </g>
   <g id="patch_136">
    <path d="M 1195.115546 266.246754 
L 1158.305129 228.444846 
L 1084.684293 228.444846 
L 1047.873875 266.246754 
L 1084.684293 304.048663 
L 1158.305129 304.048663 
z
" clip-path="url(#pc35b41e398)" style="fill: #002299; opacity: 0.291816; stroke: #002299; stroke-linejoin: miter"/>
   </g>
   <g id="patch_137">
    <path d="M 1167.4 237.784688 
L 1158.305129 228.444846 
L 1084.684293 228.444846 
L 1047.873875 266.246754 
L 1084.684293 304.048663 
L 1158.305129 304.048663 
L 1167.4 294.708821 
" clip-path="url(#pc35b41e398)" style="fill: none; opacity: 0.491816; stroke: #006688; stroke-linejoin: miter"/>
   </g>
   <g id="patch_138">
    <path d="M 660.63162 305.295018 
L 609.241747 252.520956 
L 506.462002 252.520956 
L 455.072129 305.295018 
L 506.462002 358.06908 
L 609.241747 358.06908 
z
" clip-path="url(#pc35b41e398)" style="fill: #0022aa; opacity: 0.183415; stroke: #0022aa; stroke-linejoin: miter"/>
   </g>
   <g id="patch_139">
    <path d="M 660.63162 305.295018 
L 609.241747 252.520956 
L 506.462002 252.520956 
L 455.072129 305.295018 
L 506.462002 358.06908 
L 609.241747 358.06908 
L 660.63162 305.295018 
z
" clip-path="url(#pc35b41e398)" style="fill: none; opacity: 0.383415; stroke: #006699; stroke-linejoin: miter"/>
   </g>
   <g id="patch_140">
    <path d="M 515.744448 470.619002 
L 492.15998 446.399286 
L 444.991046 446.399286 
L 421.406578 470.619002 
L 444.991046 494.838719 
L 492.15998 494.838719 
z
" clip-path="url(#pc35b41e398)" style="fill: #0022bb; opacity: 0.211782; stroke: #0022bb; stroke-linejoin: miter"/>
   </g>
   <g id="patch_141">
    <path d="M 515.744448 470.619002 
L 492.15998 446.399286 
L 444.991046 446.399286 
L 421.406578 470.619002 
L 444.991046 494.838719 
L 492.15998 494.838719 
L 515.744448 470.619002 
z
" clip-path="url(#pc35b41e398)" style="fill: none; opacity: 0.411782; stroke: #006699; stroke-linejoin: miter"/>
   </g>
   <g id="patch_142">
    <path d="M 130.128217 321.851758 
L 84.209787 274.696513 
L -7.627072 274.696513 
L -53.545502 321.851758 
L -7.627072 369.007004 
L 84.209787 369.007004 
z
" clip-path="url(#pc35b41e398)" style="fill: #0022bb; opacity: 0.305018; stroke: #0022bb; stroke-linejoin: miter"/>
   </g>
   <g id="patch_143">
    <path d="M 130.128217 321.851758 
L 84.209787 274.696513 
L -1 274.696513 
M -1 369.007004 
L 84.209787 369.007004 
L 130.128217 321.851758 
" clip-path="url(#pc35b41e398)" style="fill: none; opacity: 0.505018; stroke: #0066aa; stroke-linejoin: miter"/>
   </g>
   <g id="patch_144">
    <path d="M 270.033149 456.549633 
L 217.30011 402.396226 
L 111.834032 402.396226 
L 59.100993 456.549633 
L 111.834032 510.70304 
L 217.30011 510.70304 
z
" clip-path="url(#pc35b41e398)" style="fill: #0022cc; opacity: 0.125555; stroke: #0022cc; stroke-linejoin: miter"/>
   </g>
   <g id="patch_145">
    <path d="M 270.033149 456.549633 
L 217.30011 402.396226 
L 111.834032 402.396226 
L 59.100993 456.549633 
L 111.834032 510.70304 
L 217.30011 510.70304 
L 270.033149 456.549633 
z
" clip-path="url(#pc35b41e398)" style="fill: none; opacity: 0.325555; stroke: #0066aa; stroke-linejoin: miter"/>
   </g>
   <g id="patch_146">
    <path d="M 206.84599 349.159293 
L 171.726772 313.094137 
L 101.488336 313.094137 
L 66.369118 349.159293 
L 101.488336 385.22445 
L 171.726772 385.22445 
z
" clip-path="url(#pc35b41e398)" style="fill: #0022dd; opacity: 0.161358; stroke: #0022dd; stroke-linejoin: miter"/>
   </g>
   <g id="patch_147">
    <path d="M 206.84599 349.159293 
L 171.726772 313.094137 
L 101.488336 313.094137 
L 66.369118 349.159293 
L 101.488336 385.22445 
L 171.726772 385.22445 
L 206.84599 349.159293 
z
" clip-path="url(#pc35b41e398)" style="fill: none; opacity: 0.361358; stroke: #0066bb; stroke-linejoin: miter"/>
   </g>
   <g id="patch_148">
    <path d="M 609.096145 476.158701 
L 562.802145 428.617769 
L 470.214144 428.617769 
L 423.920144 476.158701 
L 470.214144 523.699633 
L 562.802145 523.699633 
z
" clip-path="url(#pc35b41e398)" style="fill: #0022dd; opacity: 0.26846; stroke: #0022dd; stroke-linejoin: miter"/>
   </g>
   <g id="patch_149">
    <path d="M 609.096145 476.158701 
L 562.802145 428.617769 
L 470.214144 428.617769 
L 423.920144 476.158701 
L 470.214144 523.699633 
L 562.802145 523.699633 
L 609.096145 476.158701 
z
" clip-path="url(#pc35b41e398)" style="fill: none; opacity: 0.46846; stroke: #0066cc; stroke-linejoin: miter"/>
   </g>
   <g id="patch_150">
    <path d="M 613.067506 652.482078 
L 565.785795 603.926831 
L 471.222372 603.926831 
L 423.940661 652.482078 
L 471.222372 701.037325 
L 565.785795 701.037325 
z
" clip-path="url(#pc35b41e398)" style="fill: #0022ee; opacity: 0.158868; stroke: #0022ee; stroke-linejoin: miter"/>
   </g>
   <g id="patch_151">
    <path d="M 613.067506 652.482078 
L 565.785795 603.926831 
L 471.222372 603.926831 
L 423.940661 652.482078 
L 462.967396 692.56 
M 574.040772 692.56 
L 613.067506 652.482078 
" clip-path="url(#pc35b41e398)" style="fill: none; opacity: 0.358868; stroke: #0066cc; stroke-linejoin: miter"/>
   </g>
   <g id="patch_152">
    <path d="M 1007.829039 406.705939 
L 954.188455 351.620542 
L 846.907287 351.620542 
L 793.266703 406.705939 
L 846.907287 461.791336 
L 954.188455 461.791336 
z
" clip-path="url(#pc35b41e398)" style="fill: #0022ee; opacity: 0.116636; stroke: #0022ee; stroke-linejoin: miter"/>
   </g>
   <g id="patch_153">
    <path d="M 1007.829039 406.705939 
L 954.188455 351.620542 
L 846.907287 351.620542 
L 793.266703 406.705939 
L 846.907287 461.791336 
L 954.188455 461.791336 
L 1007.829039 406.705939 
z
" clip-path="url(#pc35b41e398)" style="fill: none; opacity: 0.316636; stroke: #0066dd; stroke-linejoin: miter"/>
   </g>
   <g id="patch_154">
    <path d="M 1204.251129 570.233521 
L 1173.166035 538.311148 
L 1110.995845 538.311148 
L 1079.910751 570.233521 
L 1110.995845 602.155895 
L 1173.166035 602.155895 
z
" clip-path="url(#pc35b41e398)" style="fill: #0022ff; opacity: 0.285193; stroke: #0022ff; stroke-linejoin: miter"/>
   </g>
   <g id="patch_155">
    <path d="M 1167.4 538.311148 
L 1110.995845 538.311148 
L 1079.910751 570.233521 
L 1110.995845 602.155895 
L 1167.4 602.155895 
" clip-path="url(#pc35b41e398)" style="fill: none; opacity: 0.485193; stroke: #0066ee; stroke-linejoin: miter"/>
   </g>
   <g id="patch_156">
    <path d="M 654.632736 687.052365 
L 585.528366 616.086664 
L 447.319625 616.086664 
L 378.215254 687.052365 
L 447.319625 758.018066 
L 585.528366 758.018066 
z
" clip-path="url(#pc35b41e398)" style="fill: #003300; opacity: 0.284299; stroke: #003300; stroke-linejoin: miter"/>
   </g>
   <g id="patch_157">
    <path d="M 654.632736 687.052365 
L 585.528366 616.086664 
L 447.319625 616.086664 
L 378.215254 687.052365 
L 383.578432 692.56 
M 649.269558 692.56 
L 654.632736 687.052365 
" clip-path="url(#pc35b41e398)" style="fill: none; opacity: 0.484299; stroke: #0066ee; stroke-linejoin: miter"/>
   </g>
   <g id="patch_158">
    <path d="M 555.89905 567.560223 
L 509.472067 519.882726 
L 416.618101 519.882726 
L 370.191118 567.560223 
L 416.618101 615.237719 
L 509.472067 615.237719 
z
" clip-path="url(#pc35b41e398)" style="fill: #003300; opacity: 0.34706; stroke: #003300; stroke-linejoin: miter"/>
   </g>
   <g id="patch_159">
    <path d="M 555.89905 567.560223 
L 509.472067 519.882726 
L 416.618101 519.882726 
L 370.191118 567.560223 
L 416.618101 615.237719 
L 509.472067 615.237719 
L 555.89905 567.560223 
z
" clip-path="url(#pc35b41e398)" style="fill: none; opacity: 0.54706; stroke: #0066ff; stroke-linejoin: miter"/>
   </g>
   <g id="patch_160">
    <path d="M 493.82176 242.325728 
L 465.748986 213.496812 
L 409.603439 213.496812 
L 381.530665 242.325728 
L 409.603439 271.154643 
L 465.748986 271.154643 
z
" clip-path="url(#pc35b41e398)" style="fill: #003311; opacity: 0.398125; stroke: #003311; stroke-linejoin: miter"/>
   </g>
   <g id="patch_161">
    <path d="M 493.82176 242.325728 
L 465.748986 213.496812 
L 409.603439 213.496812 
L 381.530665 242.325728 
L 409.603439 271.154643 
L 465.748986 271.154643 
L 493.82176 242.325728 
z
" clip-path="url(#pc35b41e398)" style="fill: none; opacity: 0.598125; stroke: #0066ff; stroke-linejoin: miter"/>
   </g>
   <g id="patch_162">
    <path d="M 449.148957 107.194798 
L 407.171052 64.086216 
L 323.215243 64.086216 
L 281.237338 107.194798 
L 323.215243 150.30338 
L 407.171052 150.30338 
z
" clip-path="url(#pc35b41e398)" style="fill: #003322; opacity: 0.283859; stroke: #003322; stroke-linejoin: miter"/>
   </g>
   <g id="patch_163">
    <path d="M 449.148957 107.194798 
L 407.171052 64.086216 
L 323.215243 64.086216 
L 281.237338 107.194798 
L 323.215243 150.30338 
L 407.171052 150.30338 
L 449.148957 107.194798 
z
" clip-path="url(#pc35b41e398)" style="fill: none; opacity: 0.483859; stroke: #007700; stroke-linejoin: miter"/>
   </g>
   <g id="patch_164">
    <path d="M 936.188203 575.544125 
L 873.193148 510.852295 
L 747.203038 510.852295 
L 684.207983 575.544125 
L 747.203038 640.235956 
L 873.193148 640.235956 
z
" clip-path="url(#pc35b41e398)" style="fill: #003322; opacity: 0.200597; stroke: #003322; stroke-linejoin: miter"/>
   </g>
   <g id="patch_165">
    <path d="M 936.188203 575.544125 
L 873.193148 510.852295 
L 747.203038 510.852295 
L 684.207983 575.544125 
L 747.203038 640.235956 
L 873.193148 640.235956 
L 936.188203 575.544125 
z
" clip-path="url(#pc35b41e398)" style="fill: none; opacity: 0.400597; stroke: #007711; stroke-linejoin: miter"/>
   </g>
   <g id="patch_166">
    <path d="M 242.834 213.996001 
L 180.194299 149.669095 
L 54.914895 149.669095 
L -7.724806 213.996001 
L 54.914895 278.322906 
L 180.194299 278.322906 
z
" clip-path="url(#pc35b41e398)" style="fill: #003333; opacity: 0.245607; stroke: #003333; stroke-linejoin: miter"/>
   </g>
   <g id="patch_167">
    <path d="M 242.834 213.996001 
L 180.194299 149.669095 
L 54.914895 149.669095 
L -1 207.090062 
M -1 220.90194 
L 54.914895 278.322906 
L 180.194299 278.322906 
L 242.834 213.996001 
" clip-path="url(#pc35b41e398)" style="fill: none; opacity: 0.445607; stroke: #007711; stroke-linejoin: miter"/>
   </g>
   <g id="patch_168">
    <path d="M 294.809034 418.463998 
L 235.797349 357.862829 
L 117.773979 357.862829 
L 58.762294 418.463998 
L 117.773979 479.065166 
L 235.797349 479.065166 
z
" clip-path="url(#pc35b41e398)" style="fill: #003333; opacity: 0.221684; stroke: #003333; stroke-linejoin: miter"/>
   </g>
   <g id="patch_169">
    <path d="M 294.809034 418.463998 
L 235.797349 357.862829 
L 117.773979 357.862829 
L 58.762294 418.463998 
L 117.773979 479.065166 
L 235.797349 479.065166 
L 294.809034 418.463998 
z
" clip-path="url(#pc35b41e398)" style="fill: none; opacity: 0.421684; stroke: #007722; stroke-linejoin: miter"/>
   </g>
   <g id="patch_170">
    <path d="M 854.241757 469.492835 
L 830.598368 445.212609 
L 783.311588 445.212609 
L 759.668199 469.492835 
L 783.311588 493.773061 
L 830.598368 493.773061 
z
" clip-path="url(#pc35b41e398)" style="fill: #003344; opacity: 0.353093; stroke: #003344; stroke-linejoin: miter"/>
   </g>
   <g id="patch_171">
    <path d="M 854.241757 469.492835 
L 830.598368 445.212609 
L 783.311588 445.212609 
L 759.668199 469.492835 
L 783.311588 493.773061 
L 830.598368 493.773061 
L 854.241757 469.492835 
z
" clip-path="url(#pc35b41e398)" style="fill: none; opacity: 0.553093; stroke: #007733; stroke-linejoin: miter"/>
   </g>
   <g id="patch_172">
    <path d="M 967.031569 599.51215 
L 931.776668 563.307656 
L 861.266867 563.307656 
L 826.011966 599.51215 
L 861.266867 635.716644 
L 931.776668 635.716644 
z
" clip-path="url(#pc35b41e398)" style="fill: #003355; opacity: 0.333463; stroke: #003355; stroke-linejoin: miter"/>
   </g>
   <g id="patch_173">
    <path d="M 967.031569 599.51215 
L 931.776668 563.307656 
L 861.266867 563.307656 
L 826.011966 599.51215 
L 861.266867 635.716644 
L 931.776668 635.716644 
L 967.031569 599.51215 
z
" clip-path="url(#pc35b41e398)" style="fill: none; opacity: 0.533463; stroke: #007733; stroke-linejoin: miter"/>
   </g>
   <g id="patch_174">
    <path d="M 810.935765 373.590448 
L 773.04837 334.682554 
L 697.273581 334.682554 
L 659.386186 373.590448 
L 697.273581 412.498342 
L 773.04837 412.498342 
z
" clip-path="url(#pc35b41e398)" style="fill: #003355; opacity: 0.181417; stroke: #003355; stroke-linejoin: miter"/>
   </g>
   <g id="patch_175">
    <path d="M 810.935765 373.590448 
L 773.04837 334.682554 
L 697.273581 334.682554 
L 659.386186 373.590448 
L 697.273581 412.498342 
L 773.04837 412.498342 
L 810.935765 373.590448 
z
" clip-path="url(#pc35b41e398)" style="fill: none; opacity: 0.381417; stroke: #007744; stroke-linejoin: miter"/>
   </g>
   <g id="patch_176">
    <path d="M 456.388803 689.39175 
L 404.389839 635.99219 
L 300.391909 635.99219 
L 248.392944 689.39175 
L 300.391909 742.79131 
L 404.389839 742.79131 
z
" clip-path="url(#pc35b41e398)" style="fill: #003366; opacity: 0.16499; stroke: #003366; stroke-linejoin: miter"/>
   </g>
   <g id="patch_177">
    <path d="M 456.388803 689.39175 
L 404.389839 635.99219 
L 300.391909 635.99219 
L 248.392944 689.39175 
L 251.478095 692.56 
M 453.303652 692.56 
L 456.388803 689.39175 
" clip-path="url(#pc35b41e398)" style="fill: none; opacity: 0.36499; stroke: #007744; stroke-linejoin: miter"/>
   </g>
   <g id="patch_178">
    <path d="M 1204.250974 612.518336 
L 1180.055626 587.671285 
L 1131.664929 587.671285 
L 1107.469581 612.518336 
L 1131.664929 637.365388 
L 1180.055626 637.365388 
z
" clip-path="url(#pc35b41e398)" style="fill: #003377; opacity: 0.24982; stroke: #003377; stroke-linejoin: miter"/>
   </g>
   <g id="patch_179">
    <path d="M 1167.4 587.671285 
L 1131.664929 587.671285 
L 1107.469581 612.518336 
L 1131.664929 637.365388 
L 1167.4 637.365388 
" clip-path="url(#pc35b41e398)" style="fill: none; opacity: 0.44982; stroke: #007755; stroke-linejoin: miter"/>
   </g>
   <g id="patch_180">
    <path d="M 1127.362939 324.320952 
L 1089.256853 285.188476 
L 1013.04468 285.188476 
L 974.938594 324.320952 
L 1013.04468 363.453428 
L 1089.256853 363.453428 
z
" clip-path="url(#pc35b41e398)" style="fill: #003377; opacity: 0.337785; stroke: #003377; stroke-linejoin: miter"/>
   </g>
   <g id="patch_181">
    <path d="M 1127.362939 324.320952 
L 1089.256853 285.188476 
L 1013.04468 285.188476 
L 974.938594 324.320952 
L 1013.04468 363.453428 
L 1089.256853 363.453428 
L 1127.362939 324.320952 
z
" clip-path="url(#pc35b41e398)" style="fill: none; opacity: 0.537785; stroke: #007766; stroke-linejoin: miter"/>
   </g>
   <g id="patch_182">
    <path d="M 815.910855 4.130533 
C 817.717381 4.130533 819.450159 3.704984 820.727565 2.947608 
C 822.004972 2.190233 822.722712 1.162866 822.722712 0.091775 
C 822.722712 -0.979316 822.004972 -2.006682 820.727565 -2.764058 
C 819.450159 -3.521434 817.717381 -3.946983 815.910855 -3.946983 
C 814.10433 -3.946983 812.371551 -3.521434 811.094145 -2.764058 
C 809.816739 -2.006682 809.098998 -0.979316 809.098998 0.091775 
C 809.098998 1.162866 809.816739 2.190233 811.094145 2.947608 
C 812.371551 3.704984 814.10433 4.130533 815.910855 4.130533 
z
" clip-path="url(#pc35b41e398)" style="opacity: 0.5; stroke: #000000; stroke-linejoin: miter"/>
   </g>
   <g id="patch_183">
    <path d="M 862.950531 4.832967 
C 864.015943 4.832967 865.037862 4.581996 865.791223 4.135328 
C 866.544583 3.68866 866.967876 3.082763 866.967876 2.451079 
C 866.967876 1.819395 866.544583 1.213497 865.791223 0.766829 
C 865.037862 0.320161 864.015943 0.06919 862.950531 0.06919 
C 861.885119 0.06919 860.8632 0.320161 860.109839 0.766829 
C 859.356479 1.213497 858.933186 1.819395 858.933186 2.451079 
C 858.933186 3.082763 859.356479 3.68866 860.109839 4.135328 
C 860.8632 4.581996 861.885119 4.832967 862.950531 4.832967 
z
" clip-path="url(#pc35b41e398)" style="opacity: 0.5; stroke: #000000; stroke-linejoin: miter"/>
   </g>
   <g id="patch_184">
    <path d="M 447.874284 471.662519 
C 448.661901 471.662519 449.417365 471.476987 449.974294 471.146783 
C 450.531223 470.816579 450.844146 470.368663 450.844146 469.901684 
C 450.844146 469.434705 450.531223 468.98679 449.974294 468.656586 
C 449.417365 468.326382 448.661901 468.140849 447.874284 468.140849 
C 447.086667 468.140849 446.331203 468.326382 445.774274 468.656586 
C 445.217345 468.98679 444.904421 469.434705 444.904421 469.901684 
C 444.904421 470.368663 445.217345 470.816579 445.774274 471.146783 
C 446.331203 471.476987 447.086667 471.662519 447.874284 471.662519 
z
" clip-path="url(#pc35b41e398)" style="fill: #000011; opacity: 0.5; stroke: #000011; stroke-linejoin: miter"/>
   </g>
   <g id="patch_185">
    <path d="M 1049.926131 325.533313 
C 1051.422871 325.533313 1052.85851 325.180738 1053.916865 324.553238 
C 1054.97522 323.925738 1055.569881 323.074546 1055.569881 322.187127 
C 1055.569881 321.299708 1054.97522 320.448516 1053.916865 319.821016 
C 1052.85851 319.193516 1051.422871 318.84094 1049.926131 318.84094 
C 1048.429391 318.84094 1046.993752 319.193516 1045.935397 319.821016 
C 1044.877042 320.448516 1044.282381 321.299708 1044.282381 322.187127 
C 1044.282381 323.074546 1044.877042 323.925738 1045.935397 324.553238 
C 1046.993752 325.180738 1048.429391 325.533313 1049.926131 325.533313 
z
" clip-path="url(#pc35b41e398)" style="fill: #000011; opacity: 0.5; stroke: #000011; stroke-linejoin: miter"/>
   </g>
   <g id="patch_186">
    <path d="M 655.200831 319.58879 
C 656.650744 319.58879 658.041468 319.247245 659.066711 318.639377 
C 660.091955 318.031509 660.668011 317.206947 660.668011 316.347292 
C 660.668011 315.487636 660.091955 314.663074 659.066711 314.055206 
C 658.041468 313.447338 656.650744 313.105793 655.200831 313.105793 
C 653.750918 313.105793 652.360194 313.447338 651.33495 314.055206 
C 650.309707 314.663074 649.73365 315.487636 649.73365 316.347292 
C 649.73365 317.206947 650.309707 318.031509 651.33495 318.639377 
C 652.360194 319.247245 653.750918 319.58879 655.200831 319.58879 
z
" clip-path="url(#pc35b41e398)" style="fill: #000022; opacity: 0.5; stroke: #000022; stroke-linejoin: miter"/>
   </g>
   <g id="patch_187">
    <path d="M 356.933085 258.782679 
C 358.594548 258.782679 360.188186 258.391301 361.363019 257.694742 
C 362.537851 256.998182 363.197957 256.053312 363.197957 255.068229 
C 363.197957 254.083145 362.537851 253.138275 361.363019 252.441716 
C 360.188186 251.745156 358.594548 251.353778 356.933085 251.353778 
C 355.271621 251.353778 353.677983 251.745156 352.503151 252.441716 
C 351.328319 253.138275 350.668213 254.083145 350.668213 255.068229 
C 350.668213 256.053312 351.328319 256.998182 352.503151 257.694742 
C 353.677983 258.391301 355.271621 258.782679 356.933085 258.782679 
z
" clip-path="url(#pc35b41e398)" style="fill: #000033; opacity: 0.5; stroke: #000033; stroke-linejoin: miter"/>
   </g>
   <g id="patch_188">
    <path d="M 1042.256726 43.883527 
C 1044.076132 43.883527 1045.821266 43.454944 1047.10778 42.692167 
C 1048.394295 41.929391 1049.117153 40.8947 1049.117153 39.815971 
C 1049.117153 38.737243 1048.394295 37.702551 1047.10778 36.939775 
C 1045.821266 36.176999 1044.076132 35.748416 1042.256726 35.748416 
C 1040.43732 35.748416 1038.692186 36.176999 1037.405672 36.939775 
C 1036.119157 37.702551 1035.396299 38.737243 1035.396299 39.815971 
C 1035.396299 40.8947 1036.119157 41.929391 1037.405672 42.692167 
C 1038.692186 43.454944 1040.43732 43.883527 1042.256726 43.883527 
z
" clip-path="url(#pc35b41e398)" style="fill: #000033; opacity: 0.5; stroke: #000033; stroke-linejoin: miter"/>
   </g>
   <g id="patch_189">
    <path d="M 265.569748 358.523184 
C 266.948937 358.523184 268.271823 358.198299 269.247057 357.620082 
C 270.22229 357.041864 270.770248 356.257523 270.770248 355.439801 
C 270.770248 354.622078 270.22229 353.837737 269.247057 353.25952 
C 268.271823 352.681302 266.948937 352.356418 265.569748 352.356418 
C 264.190559 352.356418 262.867673 352.681302 261.892439 353.25952 
C 260.917205 353.837737 260.369248 354.622078 260.369248 355.439801 
C 260.369248 356.257523 260.917205 357.041864 261.892439 357.620082 
C 262.867673 358.198299 264.190559 358.523184 265.569748 358.523184 
z
" clip-path="url(#pc35b41e398)" style="fill: #000044; opacity: 0.5; stroke: #000044; stroke-linejoin: miter"/>
   </g>
   <g id="patch_190">
    <path d="M 623.651762 171.215616 
C 625.315008 171.215616 626.910356 170.823818 628.086449 170.126512 
C 629.262541 169.429205 629.923356 168.483321 629.923356 167.497181 
C 629.923356 166.51104 629.262541 165.565156 628.086449 164.86785 
C 626.910356 164.170543 625.315008 163.778745 623.651762 163.778745 
C 621.988516 163.778745 620.393169 164.170543 619.217076 164.86785 
C 618.040983 165.565156 617.380169 166.51104 617.380169 167.497181 
C 617.380169 168.483321 618.040983 169.429205 619.217076 170.126512 
C 620.393169 170.823818 621.988516 171.215616 623.651762 171.215616 
z
" clip-path="url(#pc35b41e398)" style="fill: #000055; opacity: 0.5; stroke: #000055; stroke-linejoin: miter"/>
   </g>
   <g id="patch_191">
    <path d="M 722.814319 99.437429 
C 724.485122 99.437429 726.087719 99.043851 727.269155 98.343376 
C 728.450591 97.642901 729.114409 96.69272 729.114409 95.702098 
C 729.114409 94.711477 728.450591 93.761296 727.269155 93.06082 
C 726.087719 92.360345 724.485122 91.966767 722.814319 91.966767 
C 721.143515 91.966767 719.540919 92.360345 718.359483 93.06082 
C 717.178046 93.761296 716.514229 94.711477 716.514229 95.702098 
C 716.514229 96.69272 717.178046 97.642901 718.359483 98.343376 
C 719.540919 99.043851 721.143515 99.437429 722.814319 99.437429 
z
" clip-path="url(#pc35b41e398)" style="fill: #000055; opacity: 0.5; stroke: #000055; stroke-linejoin: miter"/>
   </g>
   <g id="patch_192">
    <path d="M 728.271073 595.137288 
C 729.387416 595.137288 730.458187 594.87432 731.247561 594.406299 
C 732.036935 593.938279 732.480463 593.303417 732.480463 592.641536 
C 732.480463 591.979654 732.036935 591.344793 731.247561 590.876772 
C 730.458187 590.408751 729.387416 590.145783 728.271073 590.145783 
C 727.154729 590.145783 726.083958 590.408751 725.294584 590.876772 
C 724.50521 591.344793 724.061682 591.979654 724.061682 592.641536 
C 724.061682 593.303417 724.50521 593.938279 725.294584 594.406299 
C 726.083958 594.87432 727.154729 595.137288 728.271073 595.137288 
z
" clip-path="url(#pc35b41e398)" style="fill: #000066; opacity: 0.5; stroke: #000066; stroke-linejoin: miter"/>
   </g>
   <g id="patch_193">
    <path d="M 649.54831 43.048327 
C 650.682733 43.048327 651.770845 42.7811 652.573003 42.305499 
C 653.375161 41.829899 653.825872 41.184756 653.825872 40.512155 
C 653.825872 39.839554 653.375161 39.194411 652.573003 38.718811 
C 651.770845 38.24321 650.682733 37.975983 649.54831 37.975983 
C 648.413888 37.975983 647.325775 38.24321 646.523617 38.718811 
C 645.72146 39.194411 645.270749 39.839554 645.270749 40.512155 
C 645.270749 41.184756 645.72146 41.829899 646.523617 42.305499 
C 647.325775 42.7811 648.413888 43.048327 649.54831 43.048327 
z
" clip-path="url(#pc35b41e398)" style="fill: #000066; opacity: 0.5; stroke: #000066; stroke-linejoin: miter"/>
   </g>
   <g id="patch_194">
    <path d="M 1161.093667 61.052754 
C 1162.623938 61.052754 1164.09174 60.69228 1165.173805 60.050722 
C 1166.255871 59.409164 1166.863854 58.538903 1166.863854 57.631603 
C 1166.863854 56.724303 1166.255871 55.854041 1165.173805 55.212483 
C 1164.09174 54.570925 1162.623938 54.210451 1161.093667 54.210451 
C 1159.563395 54.210451 1158.095593 54.570925 1157.013528 55.212483 
C 1155.931462 55.854041 1155.323479 56.724303 1155.323479 57.631603 
C 1155.323479 58.538903 1155.931462 59.409164 1157.013528 60.050722 
C 1158.095593 60.69228 1159.563395 61.052754 1161.093667 61.052754 
z
" clip-path="url(#pc35b41e398)" style="fill: #000077; opacity: 0.5; stroke: #000077; stroke-linejoin: miter"/>
   </g>
   <g id="patch_195">
    <path d="M 1036.985793 211.891716 
C 1038.806318 211.891716 1040.552525 211.462869 1041.83983 210.699624 
C 1043.127136 209.936379 1043.850438 208.901051 1043.850438 207.821659 
C 1043.850438 206.742268 1043.127136 205.70694 1041.83983 204.943695 
C 1040.552525 204.18045 1038.806318 203.751603 1036.985793 203.751603 
C 1035.165268 203.751603 1033.419062 204.18045 1032.131756 204.943695 
C 1030.84445 205.70694 1030.121148 206.742268 1030.121148 207.821659 
C 1030.121148 208.901051 1030.84445 209.936379 1032.131756 210.699624 
C 1033.419062 211.462869 1035.165268 211.891716 1036.985793 211.891716 
z
" clip-path="url(#pc35b41e398)" style="fill: #000088; opacity: 0.5; stroke: #000088; stroke-linejoin: miter"/>
   </g>
   <g id="patch_196">
    <path d="M 956.491292 306.639547 
C 957.81948 306.639547 959.093447 306.326677 960.032618 305.769841 
C 960.971788 305.213006 961.499483 304.457669 961.499483 303.670185 
C 961.499483 302.882701 960.971788 302.127364 960.032618 301.570529 
C 959.093447 301.013693 957.81948 300.700823 956.491292 300.700823 
C 955.163105 300.700823 953.889138 301.013693 952.949967 301.570529 
C 952.010797 302.127364 951.483102 302.882701 951.483102 303.670185 
C 951.483102 304.457669 952.010797 305.213006 952.949967 305.769841 
C 953.889138 306.326677 955.163105 306.639547 956.491292 306.639547 
z
" clip-path="url(#pc35b41e398)" style="fill: #000088; opacity: 0.5; stroke: #000088; stroke-linejoin: miter"/>
   </g>
   <g id="patch_197">
    <path d="M 1025.952717 615.54195 
C 1027.243872 615.54195 1028.482318 615.237803 1029.395303 614.696493 
C 1030.308288 614.155184 1030.821269 613.420907 1030.821269 612.65538 
C 1030.821269 611.889852 1030.308288 611.155576 1029.395303 610.614266 
C 1028.482318 610.072956 1027.243872 609.768809 1025.952717 609.768809 
C 1024.661561 609.768809 1023.423115 610.072956 1022.51013 610.614266 
C 1021.597146 611.155576 1021.084164 611.889852 1021.084164 612.65538 
C 1021.084164 613.420907 1021.597146 614.155184 1022.51013 614.696493 
C 1023.423115 615.237803 1024.661561 615.54195 1025.952717 615.54195 
z
" clip-path="url(#pc35b41e398)" style="fill: #000099; opacity: 0.5; stroke: #000099; stroke-linejoin: miter"/>
   </g>
   <g id="patch_198">
    <path d="M 336.790388 389.944453 
C 338.587996 389.944453 340.312221 389.521004 341.583321 388.767367 
C 342.854422 388.01373 343.568619 386.991435 343.568619 385.925631 
C 343.568619 384.859828 342.854422 383.837533 341.583321 383.083896 
C 340.312221 382.330258 338.587996 381.90681 336.790388 381.90681 
C 334.992781 381.90681 333.268556 382.330258 331.997456 383.083896 
C 330.726355 383.837533 330.012158 384.859828 330.012158 385.925631 
C 330.012158 386.991435 330.726355 388.01373 331.997456 388.767367 
C 333.268556 389.521004 334.992781 389.944453 336.790388 389.944453 
z
" clip-path="url(#pc35b41e398)" style="fill: #0000aa; opacity: 0.5; stroke: #0000aa; stroke-linejoin: miter"/>
   </g>
   <g id="patch_199">
    <path d="M 764.325644 503.934312 
C 765.682862 503.934312 766.984675 503.614603 767.944374 503.045597 
C 768.904072 502.47659 769.443301 501.704744 769.443301 500.900047 
C 769.443301 500.095351 768.904072 499.323504 767.944374 498.754498 
C 766.984675 498.185492 765.682862 497.865782 764.325644 497.865782 
C 762.968426 497.865782 761.666613 498.185492 760.706914 498.754498 
C 759.747216 499.323504 759.207987 500.095351 759.207987 500.900047 
C 759.207987 501.704744 759.747216 502.47659 760.706914 503.045597 
C 761.666613 503.614603 762.968426 503.934312 764.325644 503.934312 
z
" clip-path="url(#pc35b41e398)" style="fill: #0000aa; opacity: 0.5; stroke: #0000aa; stroke-linejoin: miter"/>
   </g>
   <g id="patch_200">
    <path d="M 332.494673 239.275941 
C 334.212986 239.275941 335.861152 238.871172 337.076182 238.150779 
C 338.291212 237.430386 338.973905 236.453186 338.973905 235.434397 
C 338.973905 234.415607 338.291212 233.438407 337.076182 232.718015 
C 335.861152 231.997622 334.212986 231.592852 332.494673 231.592852 
C 330.776361 231.592852 329.128195 231.997622 327.913165 232.718015 
C 326.698135 233.438407 326.015442 234.415607 326.015442 235.434397 
C 326.015442 236.453186 326.698135 237.430386 327.913165 238.150779 
C 329.128195 238.871172 330.776361 239.275941 332.494673 239.275941 
z
" clip-path="url(#pc35b41e398)" style="fill: #0000bb; opacity: 0.5; stroke: #0000bb; stroke-linejoin: miter"/>
   </g>
   <g id="patch_201">
    <path d="M 209.327278 152.49902 
C 210.931941 152.49902 212.471097 152.121023 213.605766 151.448276 
C 214.740434 150.77553 215.377973 149.862962 215.377973 148.911555 
C 215.377973 147.960149 214.740434 147.047581 213.605766 146.374835 
C 212.471097 145.702088 210.931941 145.32409 209.327278 145.32409 
C 207.722614 145.32409 206.183458 145.702088 205.048789 146.374835 
C 203.914121 147.047581 203.276582 147.960149 203.276582 148.911555 
C 203.276582 149.862962 203.914121 150.77553 205.048789 151.448276 
C 206.183458 152.121023 207.722614 152.49902 209.327278 152.49902 
z
" clip-path="url(#pc35b41e398)" style="fill: #0000bb; opacity: 0.5; stroke: #0000bb; stroke-linejoin: miter"/>
   </g>
   <g id="patch_202">
    <path d="M 102.510306 456.165302 
C 103.57789 456.165302 104.601893 455.913819 105.356789 455.466241 
C 106.111685 455.018662 106.535841 454.41153 106.535841 453.778557 
C 106.535841 453.145585 106.111685 452.538453 105.356789 452.090874 
C 104.601893 451.643296 103.57789 451.391813 102.510306 451.391813 
C 101.442722 451.391813 100.418719 451.643296 99.663823 452.090874 
C 98.908927 452.538453 98.484771 453.145585 98.484771 453.778557 
C 98.484771 454.41153 98.908927 455.018662 99.663823 455.466241 
C 100.418719 455.913819 101.442722 456.165302 102.510306 456.165302 
z
" clip-path="url(#pc35b41e398)" style="fill: #0000cc; opacity: 0.5; stroke: #0000cc; stroke-linejoin: miter"/>
   </g>
   <g id="patch_203">
    <path d="M 736.716831 648.058466 
C 737.540291 648.058466 738.330135 647.86449 738.912409 647.519259 
C 739.494683 647.174028 739.821847 646.705729 739.821847 646.217498 
C 739.821847 645.729268 739.494683 645.260969 738.912409 644.915738 
C 738.330135 644.570507 737.540291 644.376531 736.716831 644.376531 
C 735.893371 644.376531 735.103527 644.570507 734.521253 644.915738 
C 733.938979 645.260969 733.611815 645.729268 733.611815 646.217498 
C 733.611815 646.705729 733.938979 647.174028 734.521253 647.519259 
C 735.103527 647.86449 735.893371 648.058466 736.716831 648.058466 
z
" clip-path="url(#pc35b41e398)" style="fill: #0000dd; opacity: 0.5; stroke: #0000dd; stroke-linejoin: miter"/>
   </g>
   <g id="patch_204">
    <path d="M 232.565788 366.80475 
C 233.294148 366.80475 233.992775 366.633176 234.507803 366.327815 
C 235.022831 366.022454 235.312212 365.608238 235.312212 365.176392 
C 235.312212 364.744547 235.022831 364.33033 234.507803 364.024969 
C 233.992775 363.719608 233.294148 363.548034 232.565788 363.548034 
C 231.837428 363.548034 231.138801 363.719608 230.623773 364.024969 
C 230.108745 364.33033 229.819364 364.744547 229.819364 365.176392 
C 229.819364 365.608238 230.108745 366.022454 230.623773 366.327815 
C 231.138801 366.633176 231.837428 366.80475 232.565788 366.80475 
z
" clip-path="url(#pc35b41e398)" style="fill: #0000dd; opacity: 0.5; stroke: #0000dd; stroke-linejoin: miter"/>
   </g>
   <g id="patch_205">
    <path d="M 14.864058 224.341539 
C 16.429964 224.341539 17.931946 223.972671 19.03921 223.316173 
C 20.146473 222.659676 20.768614 221.769149 20.768614 220.84072 
C 20.768614 219.912292 20.146473 219.021765 19.03921 218.365268 
C 17.931946 217.70877 16.429964 217.339902 14.864058 217.339902 
C 13.298151 217.339902 11.796169 217.70877 10.688906 218.365268 
C 9.581642 219.021765 8.959501 219.912292 8.959501 220.84072 
C 8.959501 221.769149 9.581642 222.659676 10.688906 223.316173 
C 11.796169 223.972671 13.298151 224.341539 14.864058 224.341539 
z
" clip-path="url(#pc35b41e398)" style="fill: #0000ee; opacity: 0.5; stroke: #0000ee; stroke-linejoin: miter"/>
   </g>
   <g id="patch_206">
    <path d="M 636.822728 549.531632 
C 638.188717 549.531632 639.498943 549.209856 640.464843 548.637173 
C 641.430743 548.06449 641.973456 547.287655 641.973456 546.477759 
C 641.973456 545.667862 641.430743 544.891028 640.464843 544.318344 
C 639.498943 543.745661 638.188717 543.423885 636.822728 543.423885 
C 635.456739 543.423885 634.146513 543.745661 633.180613 544.318344 
C 632.214713 544.891028 631.672 545.667862 631.672 546.477759 
C 631.672 547.287655 632.214713 548.06449 633.180613 548.637173 
C 634.146513 549.209856 635.456739 549.531632 636.822728 549.531632 
z
" clip-path="url(#pc35b41e398)" style="fill: #0000ff; opacity: 0.5; stroke: #0000ff; stroke-linejoin: miter"/>
   </g>
   <g id="patch_207">
    <path d="M 553.555072 336.072905 
C 555.125447 336.072905 556.631715 335.702984 557.742138 335.044613 
C 558.852561 334.386242 559.476477 333.493174 559.476477 332.562097 
C 559.476477 331.63102 558.852561 330.737952 557.742138 330.079581 
C 556.631715 329.42121 555.125447 329.051289 553.555072 329.051289 
C 551.984697 329.051289 550.478429 329.42121 549.368007 330.079581 
C 548.257584 330.737952 547.633667 331.63102 547.633667 332.562097 
C 547.633667 333.493174 548.257584 334.386242 549.368007 335.044613 
C 550.478429 335.702984 551.984697 336.072905 553.555072 336.072905 
z
" clip-path="url(#pc35b41e398)" style="fill: #0000ff; opacity: 0.5; stroke: #0000ff; stroke-linejoin: miter"/>
   </g>
   <g id="patch_208">
    <path d="M 511.175235 373.986239 
C 512.590155 373.986239 513.947314 373.652937 514.947813 373.059739 
C 515.948313 372.466542 516.510467 371.661881 516.510467 370.822973 
C 516.510467 369.984065 515.948313 369.179404 514.947813 368.586206 
C 513.947314 367.993009 512.590155 367.659707 511.175235 367.659707 
C 509.760315 367.659707 508.403156 367.993009 507.402656 368.586206 
C 506.402157 369.179404 505.840003 369.984065 505.840003 370.822973 
C 505.840003 371.661881 506.402157 372.466542 507.402656 373.059739 
C 508.403156 373.652937 509.760315 373.986239 511.175235 373.986239 
z
" clip-path="url(#pc35b41e398)" style="fill: #001100; opacity: 0.5; stroke: #001100; stroke-linejoin: miter"/>
   </g>
   <g id="patch_209">
    <path d="M 26.820277 48.839316 
C 27.756639 48.839316 28.654777 48.618745 29.316885 48.22618 
C 29.978993 47.833615 30.351014 47.301108 30.351014 46.745938 
C 30.351014 46.190768 29.978993 45.658261 29.316885 45.265696 
C 28.654777 44.873131 27.756639 44.65256 26.820277 44.65256 
C 25.883915 44.65256 24.985777 44.873131 24.323669 45.265696 
C 23.661561 45.658261 23.289541 46.190768 23.289541 46.745938 
C 23.289541 47.301108 23.661561 47.833615 24.323669 48.22618 
C 24.985777 48.618745 25.883915 48.839316 26.820277 48.839316 
z
" clip-path="url(#pc35b41e398)" style="fill: #001100; opacity: 0.5; stroke: #001100; stroke-linejoin: miter"/>
   </g>
   <g id="patch_210">
    <path d="M 416.100983 618.360277 
C 417.521795 618.360277 418.884606 618.025587 419.889272 617.429919 
C 420.893938 616.834252 421.458432 616.02624 421.458432 615.183838 
C 421.458432 614.341437 420.893938 613.533425 419.889272 612.937757 
C 418.884606 612.342089 417.521795 612.0074 416.100983 612.0074 
C 414.680171 612.0074 413.31736 612.342089 412.312694 612.937757 
C 411.308028 613.533425 410.743533 614.341437 410.743533 615.183838 
C 410.743533 616.02624 411.308028 616.834252 412.312694 617.429919 
C 413.31736 618.025587 414.680171 618.360277 416.100983 618.360277 
z
" clip-path="url(#pc35b41e398)" style="fill: #001111; opacity: 0.5; stroke: #001111; stroke-linejoin: miter"/>
   </g>
   <g id="patch_211">
    <path d="M 67.821345 129.509819 
C 69.020225 129.509819 70.170163 129.227409 71.0179 128.724785 
C 71.865636 128.222161 72.341956 127.540361 72.341956 126.829543 
C 72.341956 126.118726 71.865636 125.436926 71.0179 124.934302 
C 70.170163 124.431678 69.020225 124.149268 67.821345 124.149268 
C 66.622465 124.149268 65.472526 124.431678 64.62479 124.934302 
C 63.777054 125.436926 63.300734 126.118726 63.300734 126.829543 
C 63.300734 127.540361 63.777054 128.222161 64.62479 128.724785 
C 65.472526 129.227409 66.622465 129.509819 67.821345 129.509819 
z
" clip-path="url(#pc35b41e398)" style="fill: #001122; opacity: 0.5; stroke: #001122; stroke-linejoin: miter"/>
   </g>
   <g id="patch_212">
    <path d="M 179.282232 329.413051 
C 180.706514 329.413051 182.072652 329.077544 183.079771 328.480422 
C 184.086891 327.8833 184.652764 327.073315 184.652764 326.228856 
C 184.652764 325.384398 184.086891 324.574413 183.079771 323.97729 
C 182.072652 323.380168 180.706514 323.044661 179.282232 323.044661 
C 177.85795 323.044661 176.491812 323.380168 175.484692 323.97729 
C 174.477573 324.574413 173.9117 325.384398 173.9117 326.228856 
C 173.9117 327.073315 174.477573 327.8833 175.484692 328.480422 
C 176.491812 329.077544 177.85795 329.413051 179.282232 329.413051 
z
" clip-path="url(#pc35b41e398)" style="fill: #001122; opacity: 0.5; stroke: #001122; stroke-linejoin: miter"/>
   </g>
   <g id="patch_213">
    <path d="M 866.188099 294.682589 
C 867.687497 294.682589 869.125685 294.329388 870.18592 293.700773 
C 871.246154 293.072159 871.841871 292.219455 871.841871 291.33046 
C 871.841871 290.441466 871.246154 289.588762 870.18592 288.960148 
C 869.125685 288.331533 867.687497 287.978332 866.188099 287.978332 
C 864.688701 287.978332 863.250513 288.331533 862.190278 288.960148 
C 861.130044 289.588762 860.534327 290.441466 860.534327 291.33046 
C 860.534327 292.219455 861.130044 293.072159 862.190278 293.700773 
C 863.250513 294.329388 864.688701 294.682589 866.188099 294.682589 
z
" clip-path="url(#pc35b41e398)" style="fill: #001133; opacity: 0.5; stroke: #001133; stroke-linejoin: miter"/>
   </g>
   <g id="patch_214">
    <path d="M 59.761936 64.124133 
C 61.327221 64.124133 62.828608 63.755411 63.935432 63.099174 
C 65.042256 62.442936 65.664151 61.552762 65.664151 60.624702 
C 65.664151 59.696642 65.042256 58.806469 63.935432 58.150231 
C 62.828608 57.493994 61.327221 57.125272 59.761936 57.125272 
C 58.19665 57.125272 56.695263 57.493994 55.588439 58.150231 
C 54.481615 58.806469 53.85972 59.696642 53.85972 60.624702 
C 53.85972 61.552762 54.481615 62.442936 55.588439 63.099174 
C 56.695263 63.755411 58.19665 64.124133 59.761936 64.124133 
z
" clip-path="url(#pc35b41e398)" style="fill: #001144; opacity: 0.5; stroke: #001144; stroke-linejoin: miter"/>
   </g>
   <g id="patch_215">
    <path d="M 958.105214 572.842379 
C 959.510762 572.842379 960.858933 572.511285 961.852806 571.922017 
C 962.846679 571.332748 963.405109 570.533416 963.405109 569.700065 
C 963.405109 568.866713 962.846679 568.067381 961.852806 567.478113 
C 960.858933 566.888844 959.510762 566.55775 958.105214 566.55775 
C 956.699665 566.55775 955.351495 566.888844 954.357622 567.478113 
C 953.363749 568.067381 952.805318 568.866713 952.805318 569.700065 
C 952.805318 570.533416 953.363749 571.332748 954.357622 571.922017 
C 955.351495 572.511285 956.699665 572.842379 958.105214 572.842379 
z
" clip-path="url(#pc35b41e398)" style="fill: #001144; opacity: 0.5; stroke: #001144; stroke-linejoin: miter"/>
   </g>
   <g id="patch_216">
    <path d="M 1073.470672 118.192257 
C 1074.767898 118.192257 1076.012169 117.88668 1076.929446 117.342825 
C 1077.846724 116.79897 1078.362118 116.06124 1078.362118 115.292113 
C 1078.362118 114.522986 1077.846724 113.785257 1076.929446 113.241401 
C 1076.012169 112.697546 1074.767898 112.391969 1073.470672 112.391969 
C 1072.173445 112.391969 1070.929175 112.697546 1070.011897 113.241401 
C 1069.09462 113.785257 1068.579226 114.522986 1068.579226 115.292113 
C 1068.579226 116.06124 1069.09462 116.79897 1070.011897 117.342825 
C 1070.929175 117.88668 1072.173445 118.192257 1073.470672 118.192257 
z
" clip-path="url(#pc35b41e398)" style="fill: #001155; opacity: 0.5; stroke: #001155; stroke-linejoin: miter"/>
   </g>
   <g id="patch_217">
    <path d="M 333.877056 71.154551 
C 335.349108 71.154551 336.761066 70.807791 337.801964 70.190642 
C 338.842862 69.573492 339.427714 68.73634 339.427714 67.863559 
C 339.427714 66.990777 338.842862 66.153625 337.801964 65.536476 
C 336.761066 64.919326 335.349108 64.572567 333.877056 64.572567 
C 332.405004 64.572567 330.993046 64.919326 329.952148 65.536476 
C 328.91125 66.153625 328.326398 66.990777 328.326398 67.863559 
C 328.326398 68.73634 328.91125 69.573492 329.952148 70.190642 
C 330.993046 70.807791 332.405004 71.154551 333.877056 71.154551 
z
" clip-path="url(#pc35b41e398)" style="fill: #001155; opacity: 0.5; stroke: #001155; stroke-linejoin: miter"/>
   </g>
   <g id="patch_218">
    <path d="M 917.835012 52.835555 
C 918.974713 52.835555 920.067889 52.567084 920.87378 52.089271 
C 921.67967 51.611457 922.132478 50.963312 922.132478 50.287582 
C 922.132478 49.611852 921.67967 48.963707 920.87378 48.485893 
C 920.067889 48.00808 918.974713 47.739609 917.835012 47.739609 
C 916.695311 47.739609 915.602135 48.00808 914.796245 48.485893 
C 913.990354 48.963707 913.537546 49.611852 913.537546 50.287582 
C 913.537546 50.963312 913.990354 51.611457 914.796245 52.089271 
C 915.602135 52.567084 916.695311 52.835555 917.835012 52.835555 
z
" clip-path="url(#pc35b41e398)" style="fill: #001166; opacity: 0.5; stroke: #001166; stroke-linejoin: miter"/>
   </g>
   <g id="patch_219">
    <path d="M 526.246737 176.519983 
C 527.556557 176.519983 528.812906 176.211439 529.739089 175.662304 
C 530.665271 175.113169 531.185668 174.368278 531.185668 173.591684 
C 531.185668 172.815091 530.665271 172.0702 529.739089 171.521065 
C 528.812906 170.97193 527.556557 170.663386 526.246737 170.663386 
C 524.936918 170.663386 523.680568 170.97193 522.754386 171.521065 
C 521.828203 172.0702 521.307806 172.815091 521.307806 173.591684 
C 521.307806 174.368278 521.828203 175.113169 522.754386 175.662304 
C 523.680568 176.211439 524.936918 176.519983 526.246737 176.519983 
z
" clip-path="url(#pc35b41e398)" style="fill: #001177; opacity: 0.5; stroke: #001177; stroke-linejoin: miter"/>
   </g>
   <g id="patch_220">
    <path d="M 589.782067 285.868422 
C 590.457124 285.868422 591.104623 285.709404 591.58196 285.42639 
C 592.059297 285.143376 592.3275 284.759474 592.3275 284.359232 
C 592.3275 283.95899 592.059297 283.575087 591.58196 283.292073 
C 591.104623 283.009059 590.457124 282.850041 589.782067 282.850041 
C 589.107011 282.850041 588.459511 283.009059 587.982174 283.292073 
C 587.504837 283.575087 587.236634 283.95899 587.236634 284.359232 
C 587.236634 284.759474 587.504837 285.143376 587.982174 285.42639 
C 588.459511 285.709404 589.107011 285.868422 589.782067 285.868422 
z
" clip-path="url(#pc35b41e398)" style="fill: #001177; opacity: 0.5; stroke: #001177; stroke-linejoin: miter"/>
   </g>
   <g id="patch_221">
    <path d="M 691.196441 181.687957 
C 691.845944 181.687957 692.468932 181.534959 692.9282 181.262659 
C 693.387468 180.990358 693.645518 180.620987 693.645518 180.235896 
C 693.645518 179.850805 693.387468 179.481435 692.9282 179.209134 
C 692.468932 178.936834 691.845944 178.783835 691.196441 178.783835 
C 690.546938 178.783835 689.923949 178.936834 689.464682 179.209134 
C 689.005414 179.481435 688.747363 179.850805 688.747363 180.235896 
C 688.747363 180.620987 689.005414 180.990358 689.464682 181.262659 
C 689.923949 181.534959 690.546938 181.687957 691.196441 181.687957 
z
" clip-path="url(#pc35b41e398)" style="fill: #001188; opacity: 0.5; stroke: #001188; stroke-linejoin: miter"/>
   </g>
  </g>
 </g>
 <defs>
  <clipPath id="pc35b41e398">
   <rect x="0" y="0" width="1166.4" height="691.56"/>
  </clipPath>
 </defs>
</svg>
