<?xml version="1.0" encoding="utf-8" standalone="no"?>
<!DOCTYPE svg PUBLIC "-//W3C//DTD SVG 1.1//EN"
  "http://www.w3.org/Graphics/SVG/1.1/DTD/svg11.dtd">
<svg xmlns:xlink="http://www.w3.org/1999/xlink" width="1166.4pt" height="691.56pt" viewBox="0 0 1166.4 691.56" xmlns="http://www.w3.org/2000/svg" version="1.1">
 <metadata>
  <rdf:RDF xmlns:dc="http://purl.org/dc/elements/1.1/" xmlns:cc="http://creativecommons.org/ns#" xmlns:rdf="http://www.w3.org/1999/02/22-rdf-syntax-ns#">
   <cc:Work>
    <dc:type rdf:resource="http://purl.org/dc/dcmitype/StillImage"/>
    <dc:date>2024-11-12T12:42:03.442132</dc:date>
    <dc:format>image/svg+xml</dc:format>
    <dc:creator>
     <cc:Agent>
      <dc:title>Matplotlib v3.9.2, https://matplotlib.org/</dc:title>
     </cc:Agent>
    </dc:creator>
   </cc:Work>
  </rdf:RDF>
 </metadata>
 <defs>
  <style type="text/css">*{stroke-linejoin: round; stroke-linecap: butt}</style>
 </defs>
 <g id="figure_1">
  <g id="patch_1">
   <path d="M 0 691.56 
L 1166.4 691.56 
L 1166.4 0 
L 0 0 
L 0 691.56 
z
" style="fill: none"/>
  </g>
  <g id="axes_1">
   <g id="patch_2">
    <path d="M 1190.518255 185.34227 
L 1149.715711 143.440707 
L 1068.110623 143.440707 
L 1027.308079 185.34227 
L 1068.110623 227.243832 
L 1149.715711 227.243832 
z
" clip-path="url(#p2e006cf09f)" style="opacity: 0.209213; stroke: #000000; stroke-linejoin: miter"/>
   </g>
   <g id="patch_3">
    <path d="M 128.960886 92.547225 
L 98.354806 61.116768 
L 37.142645 61.116768 
L 6.536565 92.547225 
L 37.142645 123.977682 
L 98.354806 123.977682 
z
" clip-path="url(#p2e006cf09f)" style="opacity: 0.595651; stroke: #000000; stroke-linejoin: miter"/>
   </g>
   <g id="patch_4">
    <path d="M 1179.879632 115.875967 
L 1155.591242 90.933368 
L 1107.014461 90.933368 
L 1082.726071 115.875967 
L 1107.014461 140.818567 
L 1155.591242 140.818567 
z
" clip-path="url(#p2e006cf09f)" style="fill: #000011; opacity: 0.227277; stroke: #000011; stroke-linejoin: miter"/>
   </g>
   <g id="patch_5">
    <path d="M 418.637994 328.659442 
L 386.753073 295.915699 
L 322.983231 295.915699 
L 291.098311 328.659442 
L 322.983231 361.403185 
L 386.753073 361.403185 
z
" clip-path="url(#p2e006cf09f)" style="fill: #000011; opacity: 0.30386; stroke: #000011; stroke-linejoin: miter"/>
   </g>
   <g id="patch_6">
    <path d="M 266.454856 489.524447 
L 214.580248 436.252592 
L 110.83103 436.252592 
L 58.956422 489.524447 
L 110.83103 542.796301 
L 214.580248 542.796301 
z
" clip-path="url(#p2e006cf09f)" style="fill: #000022; opacity: 0.419249; stroke: #000022; stroke-linejoin: miter"/>
   </g>
   <g id="patch_7">
    <path d="M 352.821839 335.936032 
L 292.860669 274.359804 
L 172.93833 274.359804 
L 112.97716 335.936032 
L 172.93833 397.512259 
L 292.860669 397.512259 
z
" clip-path="url(#p2e006cf09f)" style="fill: #000033; opacity: 0.132515; stroke: #000033; stroke-linejoin: miter"/>
   </g>
   <g id="patch_8">
    <path d="M 302.246563 646.57292 
L 250.57295 593.507476 
L 147.225725 593.507476 
L 95.552113 646.57292 
L 147.225725 699.638365 
L 250.57295 699.638365 
z
" clip-path="url(#p2e006cf09f)" style="fill: #000033; opacity: 0.775942; stroke: #000033; stroke-linejoin: miter"/>
   </g>
   <g id="patch_9">
    <path d="M 477.390674 624.013873 
L 416.346087 561.325046 
L 294.256914 561.325046 
L 233.212327 624.013873 
L 294.256914 686.702699 
L 416.346087 686.702699 
z
" clip-path="url(#p2e006cf09f)" style="fill: #000044; opacity: 0.408107; stroke: #000044; stroke-linejoin: miter"/>
   </g>
   <g id="patch_10">
    <path d="M 635.61798 667.778274 
L 606.596164 637.974754 
L 548.552532 637.974754 
L 519.530716 667.778274 
L 548.552532 697.581795 
L 606.596164 697.581795 
z
" clip-path="url(#p2e006cf09f)" style="fill: #000055; opacity: 0.281146; stroke: #000055; stroke-linejoin: miter"/>
   </g>
   <g id="patch_11">
    <path d="M 472.057079 331.901759 
L 417.818439 276.202198 
L 309.341159 276.202198 
L 255.10252 331.901759 
L 309.341159 387.60132 
L 417.818439 387.60132 
z
" clip-path="url(#p2e006cf09f)" style="fill: #000055; opacity: 0.229398; stroke: #000055; stroke-linejoin: miter"/>
   </g>
   <g id="patch_12">
    <path d="M 1041.244806 41.840112 
L 972.679866 -28.571629 
L 835.549985 -28.571629 
L 766.985044 41.840112 
L 835.549985 112.251853 
L 972.679866 112.251853 
z
" clip-path="url(#p2e006cf09f)" style="fill: #000066; opacity: 0.51853; stroke: #000066; stroke-linejoin: miter"/>
   </g>
   <g id="patch_13">
    <path d="M 235.895583 556.026092 
L 169.556619 487.900283 
L 36.87869 487.900283 
L -29.460274 556.026092 
L 36.87869 624.1519 
L 169.556619 624.1519 
z
" clip-path="url(#p2e006cf09f)" style="fill: #000066; opacity: 0.327731; stroke: #000066; stroke-linejoin: miter"/>
   </g>
   <g id="patch_14">
    <path d="M 399.425766 118.438288 
L 357.963638 75.859376 
L 275.039383 75.859376 
L 233.577255 118.438288 
L 275.039383 161.017201 
L 357.963638 161.017201 
z
" clip-path="url(#p2e006cf09f)" style="fill: #000077; opacity: 0.296654; stroke: #000077; stroke-linejoin: miter"/>
   </g>
   <g id="patch_15">
    <path d="M 261.670073 136.792656 
L 213.022044 86.83429 
L 115.725988 86.83429 
L 67.077959 136.792656 
L 115.725988 186.751022 
L 213.022044 186.751022 
z
" clip-path="url(#p2e006cf09f)" style="fill: #000088; opacity: 0.790821; stroke: #000088; stroke-linejoin: miter"/>
   </g>
   <g id="patch_16">
    <path d="M 350.497675 687.741125 
L 291.139823 626.784465 
L 172.424119 626.784465 
L 113.066267 687.741125 
L 172.424119 748.697784 
L 291.139823 748.697784 
z
" clip-path="url(#p2e006cf09f)" style="fill: #000088; opacity: 0.5948; stroke: #000088; stroke-linejoin: miter"/>
   </g>
   <g id="patch_17">
    <path d="M 1014.290849 640.353681 
L 956.950291 581.468651 
L 842.269174 581.468651 
L 784.928616 640.353681 
L 842.269174 699.238711 
L 956.950291 699.238711 
z
" clip-path="url(#p2e006cf09f)" style="fill: #000099; opacity: 0.181108; stroke: #000099; stroke-linejoin: miter"/>
   </g>
   <g id="patch_18">
    <path d="M 854.208842 462.724162 
L 790.611889 397.414221 
L 663.417982 397.414221 
L 599.821028 462.724162 
L 663.417982 528.034103 
L 790.611889 528.034103 
z
" clip-path="url(#p2e006cf09f)" style="fill: #0000aa; opacity: 0.317688; stroke: #0000aa; stroke-linejoin: miter"/>
   </g>
   <g id="patch_19">
    <path d="M 928.012153 250.650755 
L 889.512399 211.114009 
L 812.512893 211.114009 
L 774.01314 250.650755 
L 812.512893 290.187501 
L 889.512399 290.187501 
z
" clip-path="url(#p2e006cf09f)" style="fill: #0000aa; opacity: 0.43055; stroke: #0000aa; stroke-linejoin: miter"/>
   </g>
   <g id="patch_20">
    <path d="M 889.744298 165.431492 
L 860.836509 135.74507 
L 803.020931 135.74507 
L 774.113142 165.431492 
L 803.020931 195.117914 
L 860.836509 195.117914 
z
" clip-path="url(#p2e006cf09f)" style="fill: #0000bb; opacity: 0.639677; stroke: #0000bb; stroke-linejoin: miter"/>
   </g>
   <g id="patch_21">
    <path d="M 702.448627 395.889733 
L 656.0821 348.274321 
L 563.349045 348.274321 
L 516.982518 395.889733 
L 563.349045 443.505146 
L 656.0821 443.505146 
z
" clip-path="url(#p2e006cf09f)" style="fill: #0000bb; opacity: 0.175524; stroke: #0000bb; stroke-linejoin: miter"/>
   </g>
   <g id="patch_22">
    <path d="M 791.897824 474.163978 
L 767.103464 448.70178 
L 717.514744 448.70178 
L 692.720384 474.163978 
L 717.514744 499.626175 
L 767.103464 499.626175 
z
" clip-path="url(#p2e006cf09f)" style="fill: #0000cc; opacity: 0.735297; stroke: #0000cc; stroke-linejoin: miter"/>
   </g>
   <g id="patch_23">
    <path d="M 548.588598 169.051055 
L 513.62962 133.150454 
L 443.711663 133.150454 
L 408.752685 169.051055 
L 443.711663 204.951655 
L 513.62962 204.951655 
z
" clip-path="url(#p2e006cf09f)" style="fill: #0000dd; opacity: 0.153886; stroke: #0000dd; stroke-linejoin: miter"/>
   </g>
   <g id="patch_24">
    <path d="M 261.741797 48.618292 
L 224.895153 10.779181 
L 151.201866 10.779181 
L 114.355222 48.618292 
L 151.201866 86.457402 
L 224.895153 86.457402 
z
" clip-path="url(#p2e006cf09f)" style="fill: #0000dd; opacity: 0.543383; stroke: #0000dd; stroke-linejoin: miter"/>
   </g>
   <g id="patch_25">
    <path d="M 1065.376841 562.53561 
L 1001.389976 496.825255 
L 873.416245 496.825255 
L 809.42938 562.53561 
L 873.416245 628.245966 
L 1001.389976 628.245966 
z
" clip-path="url(#p2e006cf09f)" style="fill: #0000ee; opacity: 0.47754; stroke: #0000ee; stroke-linejoin: miter"/>
   </g>
   <g id="patch_26">
    <path d="M 1167.200748 471.641517 
L 1106.20082 408.998552 
L 984.200964 408.998552 
L 923.201036 471.641517 
L 984.200964 534.284482 
L 1106.20082 534.284482 
z
" clip-path="url(#p2e006cf09f)" style="fill: #0000ff; opacity: 0.259555; stroke: #0000ff; stroke-linejoin: miter"/>
   </g>
   <g id="patch_27">
    <path d="M 1040.642705 96.313158 
L 997.387564 51.892937 
L 910.877282 51.892937 
L 867.622141 96.313158 
L 910.877282 140.733379 
L 997.387564 140.733379 
z
" clip-path="url(#p2e006cf09f)" style="fill: #0000ff; opacity: 0.457523; stroke: #0000ff; stroke-linejoin: miter"/>
   </g>
   <g id="patch_28">
    <path d="M 344.672006 608.665907 
L 301.869278 564.710285 
L 216.263822 564.710285 
L 173.461095 608.665907 
L 216.263822 652.621528 
L 301.869278 652.621528 
z
" clip-path="url(#p2e006cf09f)" style="fill: #001100; opacity: 0.760037; stroke: #001100; stroke-linejoin: miter"/>
   </g>
   <g id="patch_29">
    <path d="M 681.932093 205.380209 
L 643.524737 165.938348 
L 566.710025 165.938348 
L 528.302669 205.380209 
L 566.710025 244.822069 
L 643.524737 244.822069 
z
" clip-path="url(#p2e006cf09f)" style="fill: #001100; opacity: 0.780247; stroke: #001100; stroke-linejoin: miter"/>
   </g>
   <g id="patch_30">
    <path d="M 430.142752 347.682823 
L 361.910811 277.613051 
L 225.446929 277.613051 
L 157.214988 347.682823 
L 225.446929 417.752596 
L 361.910811 417.752596 
z
" clip-path="url(#p2e006cf09f)" style="fill: #001111; opacity: 0.299388; stroke: #001111; stroke-linejoin: miter"/>
   </g>
   <g id="patch_31">
    <path d="M 761.093834 343.927295 
L 736.044837 318.203601 
L 685.946842 318.203601 
L 660.897844 343.927295 
L 685.946842 369.650988 
L 736.044837 369.650988 
z
" clip-path="url(#p2e006cf09f)" style="fill: #001122; opacity: 0.295053; stroke: #001122; stroke-linejoin: miter"/>
   </g>
   <g id="patch_32">
    <path d="M 410.833096 591.356502 
L 345.129042 523.882706 
L 213.720936 523.882706 
L 148.016883 591.356502 
L 213.720936 658.830298 
L 345.129042 658.830298 
z
" clip-path="url(#p2e006cf09f)" style="fill: #001122; opacity: 0.789955; stroke: #001122; stroke-linejoin: miter"/>
   </g>
   <g id="patch_33">
    <path d="M 853.221564 164.854339 
L 818.600233 129.30048 
L 749.357572 129.30048 
L 714.736241 164.854339 
L 749.357572 200.408197 
L 818.600233 200.408197 
z
" clip-path="url(#p2e006cf09f)" style="fill: #001133; opacity: 0.609751; stroke: #001133; stroke-linejoin: miter"/>
   </g>
   <g id="patch_34">
    <path d="M 818.4961 253.436193 
L 778.008811 211.858376 
L 697.034231 211.858376 
L 656.546941 253.436193 
L 697.034231 295.014011 
L 778.008811 295.014011 
z
" clip-path="url(#p2e006cf09f)" style="fill: #001144; opacity: 0.163203; stroke: #001144; stroke-linejoin: miter"/>
   </g>
   <g id="patch_35">
    <path d="M 498.757614 562.571259 
L 436.457741 498.593335 
L 311.857995 498.593335 
L 249.558121 562.571259 
L 311.857995 626.549183 
L 436.457741 626.549183 
z
" clip-path="url(#p2e006cf09f)" style="fill: #001144; opacity: 0.513625; stroke: #001144; stroke-linejoin: miter"/>
   </g>
   <g id="patch_36">
    <path d="M 129.228929 337.416925 
L 74.288487 280.996657 
L -35.592399 280.996657 
L -90.532842 337.416925 
L -35.592399 393.837192 
L 74.288487 393.837192 
z
" clip-path="url(#p2e006cf09f)" style="fill: #001155; opacity: 0.551621; stroke: #001155; stroke-linejoin: miter"/>
   </g>
   <g id="patch_37">
    <path d="M 868.836258 424.109304 
L 837.373018 391.798599 
L 774.446538 391.798599 
L 742.983297 424.109304 
L 774.446538 456.420008 
L 837.373018 456.420008 
z
" clip-path="url(#p2e006cf09f)" style="fill: #001155; opacity: 0.196265; stroke: #001155; stroke-linejoin: miter"/>
   </g>
   <g id="patch_38">
    <path d="M 210.837099 52.078881 
L 171.596307 11.781137 
L 93.114724 11.781137 
L 53.873932 52.078881 
L 93.114724 92.376626 
L 171.596307 92.376626 
z
" clip-path="url(#p2e006cf09f)" style="fill: #001166; opacity: 0.280559; stroke: #001166; stroke-linejoin: miter"/>
   </g>
   <g id="patch_39">
    <path d="M 1061.448406 307.605327 
L 1007.32819 252.02738 
L 899.087759 252.02738 
L 844.967543 307.605327 
L 899.087759 363.183274 
L 1007.32819 363.183274 
z
" clip-path="url(#p2e006cf09f)" style="fill: #001177; opacity: 0.269297; stroke: #001177; stroke-linejoin: miter"/>
   </g>
   <g id="patch_40">
    <path d="M 1101.856066 68.866888 
L 1074.184263 40.449744 
L 1018.840657 40.449744 
L 991.168855 68.866888 
L 1018.840657 97.284033 
L 1074.184263 97.284033 
z
" clip-path="url(#p2e006cf09f)" style="fill: #001177; opacity: 0.337321; stroke: #001177; stroke-linejoin: miter"/>
   </g>
   <g id="patch_41">
    <path d="M 925.996148 71.154429 
L 886.375426 30.46652 
L 807.133982 30.46652 
L 767.51326 71.154429 
L 807.133982 111.842337 
L 886.375426 111.842337 
z
" clip-path="url(#p2e006cf09f)" style="fill: #001188; opacity: 0.645913; stroke: #001188; stroke-linejoin: miter"/>
   </g>
   <g id="patch_42">
    <path d="M 204.706112 579.784046 
L 151.423484 525.066247 
L 44.858227 525.066247 
L -8.424402 579.784046 
L 44.858227 634.501846 
L 151.423484 634.501846 
z
" clip-path="url(#p2e006cf09f)" style="fill: #001199; opacity: 0.5245; stroke: #001199; stroke-linejoin: miter"/>
   </g>
   <g id="patch_43">
    <path d="M 165.870603 232.708717 
L 142.113505 208.31172 
L 94.59931 208.31172 
L 70.842212 232.708717 
L 94.59931 257.105713 
L 142.113505 257.105713 
z
" clip-path="url(#p2e006cf09f)" style="fill: #001199; opacity: 0.212566; stroke: #001199; stroke-linejoin: miter"/>
   </g>
   <g id="patch_44">
    <path d="M 904.886006 240.689671 
L 855.956282 190.442023 
L 758.096835 190.442023 
L 709.167111 240.689671 
L 758.096835 290.93732 
L 855.956282 290.93732 
z
" clip-path="url(#p2e006cf09f)" style="fill: #0011aa; opacity: 0.598525; stroke: #0011aa; stroke-linejoin: miter"/>
   </g>
   <g id="patch_45">
    <path d="M 448.340395 175.316404 
L 413.943301 139.992823 
L 345.149115 139.992823 
L 310.752021 175.316404 
L 345.149115 210.639985 
L 413.943301 210.639985 
z
" clip-path="url(#p2e006cf09f)" style="fill: #0011aa; opacity: 0.694456; stroke: #0011aa; stroke-linejoin: miter"/>
   </g>
   <g id="patch_46">
    <path d="M 770.894329 626.778278 
L 716.884742 571.313939 
L 608.865568 571.313939 
L 554.855981 626.778278 
L 608.865568 682.242616 
L 716.884742 682.242616 
z
" clip-path="url(#p2e006cf09f)" style="fill: #0011bb; opacity: 0.285642; stroke: #0011bb; stroke-linejoin: miter"/>
   </g>
   <g id="patch_47">
    <path d="M 1204.342673 419.709338 
L 1169.631092 384.062798 
L 1100.20793 384.062798 
L 1065.496349 419.709338 
L 1100.20793 455.355877 
L 1169.631092 455.355877 
z
" clip-path="url(#p2e006cf09f)" style="fill: #0011cc; opacity: 0.541797; stroke: #0011cc; stroke-linejoin: miter"/>
   </g>
   <g id="patch_48">
    <path d="M 707.097338 292.59635 
L 646.686622 230.558467 
L 525.865189 230.558467 
L 465.454473 292.59635 
L 525.865189 354.634232 
L 646.686622 354.634232 
z
" clip-path="url(#p2e006cf09f)" style="fill: #0011cc; opacity: 0.23667; stroke: #0011cc; stroke-linejoin: miter"/>
   </g>
   <g id="patch_49">
    <path d="M 441.562335 674.74405 
L 384.527609 616.17309 
L 270.458158 616.17309 
L 213.423432 674.74405 
L 270.458158 733.31501 
L 384.527609 733.31501 
z
" clip-path="url(#p2e006cf09f)" style="fill: #0011dd; opacity: 0.223977; stroke: #0011dd; stroke-linejoin: miter"/>
   </g>
   <g id="patch_50">
    <path d="M 1247.074364 58.876382 
L 1179.868328 -10.139852 
L 1045.456257 -10.139852 
L 978.250221 58.876382 
L 1045.456257 127.892617 
L 1179.868328 127.892617 
z
" clip-path="url(#p2e006cf09f)" style="fill: #0011ee; opacity: 0.11082; stroke: #0011ee; stroke-linejoin: miter"/>
   </g>
   <g id="patch_51">
    <path d="M 632.713252 23.060193 
L 566.073621 -45.37438 
L 432.79436 -45.37438 
L 366.154729 23.060193 
L 432.79436 91.494767 
L 566.073621 91.494767 
z
" clip-path="url(#p2e006cf09f)" style="fill: #0011ee; opacity: 0.697107; stroke: #0011ee; stroke-linejoin: miter"/>
   </g>
   <g id="patch_52">
    <path d="M 523.309606 102.947923 
L 486.243798 64.883746 
L 412.112183 64.883746 
L 375.046376 102.947923 
L 412.112183 141.012101 
L 486.243798 141.012101 
z
" clip-path="url(#p2e006cf09f)" style="fill: #0011ff; opacity: 0.218645; stroke: #0011ff; stroke-linejoin: miter"/>
   </g>
   <g id="patch_53">
    <path d="M 1190.543168 210.213634 
L 1141.237048 159.579451 
L 1042.624809 159.579451 
L 993.318689 210.213634 
L 1042.624809 260.847817 
L 1141.237048 260.847817 
z
" clip-path="url(#p2e006cf09f)" style="fill: #0011ff; opacity: 0.168024; stroke: #0011ff; stroke-linejoin: miter"/>
   </g>
   <g id="patch_54">
    <path d="M 1258.842365 594.683498 
L 1206.820588 541.260511 
L 1102.777034 541.260511 
L 1050.755256 594.683498 
L 1102.777034 648.106485 
L 1206.820588 648.106485 
z
" clip-path="url(#p2e006cf09f)" style="fill: #002200; opacity: 0.714161; stroke: #002200; stroke-linejoin: miter"/>
   </g>
   <g id="patch_55">
    <path d="M 928.777762 205.750107 
L 870.888461 146.301554 
L 755.10986 146.301554 
L 697.220559 205.750107 
L 755.10986 265.198659 
L 870.888461 265.198659 
z
" clip-path="url(#p2e006cf09f)" style="fill: #002211; opacity: 0.305514; stroke: #002211; stroke-linejoin: miter"/>
   </g>
   <g id="patch_56">
    <path d="M 1067.095372 91.927467 
L 1006.005818 29.192462 
L 883.826709 29.192462 
L 822.737155 91.927467 
L 883.826709 154.662472 
L 1006.005818 154.662472 
z
" clip-path="url(#p2e006cf09f)" style="fill: #002211; opacity: 0.45794; stroke: #002211; stroke-linejoin: miter"/>
   </g>
   <g id="patch_57">
    <path d="M 1024.584985 242.070944 
L 977.858241 194.085612 
L 884.404753 194.085612 
L 837.678008 242.070944 
L 884.404753 290.056276 
L 977.858241 290.056276 
z
" clip-path="url(#p2e006cf09f)" style="fill: #002222; opacity: 0.657055; stroke: #002222; stroke-linejoin: miter"/>
   </g>
   <g id="patch_58">
    <path d="M 523.941729 431.821853 
L 459.08964 365.222969 
L 329.385462 365.222969 
L 264.533372 431.821853 
L 329.385462 498.420738 
L 459.08964 498.420738 
z
" clip-path="url(#p2e006cf09f)" style="fill: #002233; opacity: 0.504796; stroke: #002233; stroke-linejoin: miter"/>
   </g>
   <g id="patch_59">
    <path d="M 593.083374 316.288676 
L 568.078451 290.610245 
L 518.068606 290.610245 
L 493.063683 316.288676 
L 518.068606 341.967108 
L 568.078451 341.967108 
z
" clip-path="url(#p2e006cf09f)" style="fill: #002233; opacity: 0.513583; stroke: #002233; stroke-linejoin: miter"/>
   </g>
   <g id="patch_60">
    <path d="M 93.064967 122.682356 
L 68.313947 97.264666 
L 18.811908 97.264666 
L -5.939112 122.682356 
L 18.811908 148.100046 
L 68.313947 148.100046 
z
" clip-path="url(#p2e006cf09f)" style="fill: #002244; opacity: 0.188942; stroke: #002244; stroke-linejoin: miter"/>
   </g>
   <g id="patch_61">
    <path d="M 993.508043 542.30681 
L 945.814262 493.328394 
L 850.426699 493.328394 
L 802.732917 542.30681 
L 850.426699 591.285227 
L 945.814262 591.285227 
z
" clip-path="url(#p2e006cf09f)" style="fill: #002244; opacity: 0.159743; stroke: #002244; stroke-linejoin: miter"/>
   </g>
   <g id="patch_62">
    <path d="M 671.250567 317.678375 
L 645.511305 291.245824 
L 594.03278 291.245824 
L 568.293517 317.678375 
L 594.03278 344.110926 
L 645.511305 344.110926 
z
" clip-path="url(#p2e006cf09f)" style="fill: #002255; opacity: 0.608264; stroke: #002255; stroke-linejoin: miter"/>
   </g>
   <g id="patch_63">
    <path d="M 739.927435 468.216222 
L 671.070081 397.50419 
L 533.355372 397.50419 
L 464.498017 468.216222 
L 533.355372 538.928253 
L 671.070081 538.928253 
z
" clip-path="url(#p2e006cf09f)" style="fill: #002266; opacity: 0.289583; stroke: #002266; stroke-linejoin: miter"/>
   </g>
   <g id="patch_64">
    <path d="M 179.128824 674.02844 
L 135.320174 629.039801 
L 47.702873 629.039801 
L 3.894222 674.02844 
L 47.702873 719.017079 
L 135.320174 719.017079 
z
" clip-path="url(#p2e006cf09f)" style="fill: #002266; opacity: 0.685186; stroke: #002266; stroke-linejoin: miter"/>
   </g>
   <g id="patch_65">
    <path d="M 588.601459 571.71658 
L 532.802087 514.414248 
L 421.203342 514.414248 
L 365.403969 571.71658 
L 421.203342 629.018912 
L 532.802087 629.018912 
z
" clip-path="url(#p2e006cf09f)" style="fill: #002277; opacity: 0.27517; stroke: #002277; stroke-linejoin: miter"/>
   </g>
   <g id="patch_66">
    <path d="M 931.410123 234.993902 
L 882.457404 184.722638 
L 784.551965 184.722638 
L 735.599246 234.993902 
L 784.551965 285.265166 
L 882.457404 285.265166 
z
" clip-path="url(#p2e006cf09f)" style="fill: #002288; opacity: 0.768406; stroke: #002288; stroke-linejoin: miter"/>
   </g>
   <g id="patch_67">
    <path d="M 762.109204 268.518401 
L 704.353885 209.207439 
L 588.843248 209.207439 
L 531.08793 268.518401 
L 588.843248 327.829362 
L 704.353885 327.829362 
z
" clip-path="url(#p2e006cf09f)" style="fill: #002288; opacity: 0.273412; stroke: #002288; stroke-linejoin: miter"/>
   </g>
   <g id="patch_68">
    <path d="M 963.824226 681.606039 
L 923.887965 640.594092 
L 844.015442 640.594092 
L 804.079181 681.606039 
L 844.015442 722.617986 
L 923.887965 722.617986 
z
" clip-path="url(#p2e006cf09f)" style="fill: #002299; opacity: 0.132202; stroke: #002299; stroke-linejoin: miter"/>
   </g>
   <g id="patch_69">
    <path d="M 1048.265711 204.938371 
L 1023.037468 179.030603 
L 972.580982 179.030603 
L 947.352739 204.938371 
L 972.580982 230.846138 
L 1023.037468 230.846138 
z
" clip-path="url(#p2e006cf09f)" style="fill: #002299; opacity: 0.168484; stroke: #002299; stroke-linejoin: miter"/>
   </g>
   <g id="patch_70">
    <path d="M 644.787134 571.780515 
L 598.522304 524.269538 
L 505.992643 524.269538 
L 459.727813 571.780515 
L 505.992643 619.291491 
L 598.522304 619.291491 
z
" clip-path="url(#p2e006cf09f)" style="fill: #0022aa; opacity: 0.378953; stroke: #0022aa; stroke-linejoin: miter"/>
   </g>
   <g id="patch_71">
    <path d="M 844.895439 660.229559 
L 792.834337 606.766188 
L 688.712132 606.766188 
L 636.65103 660.229559 
L 688.712132 713.69293 
L 792.834337 713.69293 
z
" clip-path="url(#p2e006cf09f)" style="fill: #0022bb; opacity: 0.538102; stroke: #0022bb; stroke-linejoin: miter"/>
   </g>
  </g>
 </g>
 <defs>
  <clipPath id="p2e006cf09f">
   <rect x="0" y="0" width="1166.4" height="691.56"/>
  </clipPath>
 </defs>
</svg>
