<?xml version="1.0" encoding="utf-8" standalone="no"?>
<!DOCTYPE svg PUBLIC "-//W3C//DTD SVG 1.1//EN"
  "http://www.w3.org/Graphics/SVG/1.1/DTD/svg11.dtd">
<svg xmlns:xlink="http://www.w3.org/1999/xlink" width="1166.4pt" height="691.56pt" viewBox="0 0 1166.4 691.56" xmlns="http://www.w3.org/2000/svg" version="1.1">
 <metadata>
  <rdf:RDF xmlns:dc="http://purl.org/dc/elements/1.1/" xmlns:cc="http://creativecommons.org/ns#" xmlns:rdf="http://www.w3.org/1999/02/22-rdf-syntax-ns#">
   <cc:Work>
    <dc:type rdf:resource="http://purl.org/dc/dcmitype/StillImage"/>
    <dc:date>2024-11-12T12:47:57.023620</dc:date>
    <dc:format>image/svg+xml</dc:format>
    <dc:creator>
     <cc:Agent>
      <dc:title>Matplotlib v3.9.2, https://matplotlib.org/</dc:title>
     </cc:Agent>
    </dc:creator>
   </cc:Work>
  </rdf:RDF>
 </metadata>
 <defs>
  <style type="text/css">*{stroke-linejoin: round; stroke-linecap: butt}</style>
 </defs>
 <g id="figure_1">
  <g id="patch_1">
   <path d="M 0 691.56 
L 1166.4 691.56 
L 1166.4 0 
L 0 0 
L 0 691.56 
z
" style="fill: none"/>
  </g>
  <g id="axes_1">
   <g id="patch_2">
    <path d="M 149.277041 146.24082 
L 106.927995 102.7511 
L 22.229903 102.7511 
L -20.119143 146.24082 
L 22.229903 189.73054 
L 106.927995 189.73054 
z
" clip-path="url(#pc0bfa55531)" style="opacity: 0.235105; stroke: #000000; stroke-linejoin: miter"/>
   </g>
   <g id="patch_3">
    <path d="M 149.277041 146.24082 
L 106.927995 102.7511 
L 22.229903 102.7511 
L -1 126.606702 
M -1 165.874938 
L 22.229903 189.73054 
L 106.927995 189.73054 
L 149.277041 146.24082 
" clip-path="url(#pc0bfa55531)" style="fill: none; opacity: 0.435105; stroke: #0033ee; stroke-linejoin: miter"/>
   </g>
   <g id="patch_4">
    <path d="M 689.00707 260.156426 
L 651.499738 221.638831 
L 576.485073 221.638831 
L 538.97774 260.156426 
L 576.485073 298.674021 
L 651.499738 298.674021 
z
" clip-path="url(#pc0bfa55531)" style="opacity: 0.305872; stroke: #000000; stroke-linejoin: miter"/>
   </g>
   <g id="patch_5">
    <path d="M 689.00707 260.156426 
L 651.499738 221.638831 
L 576.485073 221.638831 
L 538.97774 260.156426 
L 576.485073 298.674021 
L 651.499738 298.674021 
L 689.00707 260.156426 
z
" clip-path="url(#pc0bfa55531)" style="fill: none; opacity: 0.505872; stroke: #0033ff; stroke-linejoin: miter"/>
   </g>
   <g id="patch_6">
    <path d="M 838.981257 128.65193 
L 769.886574 57.696177 
L 631.697206 57.696177 
L 562.602523 128.65193 
L 631.697206 199.607684 
L 769.886574 199.607684 
z
" clip-path="url(#pc0bfa55531)" style="fill: #000011; opacity: 0.10826; stroke: #000011; stroke-linejoin: miter"/>
   </g>
   <g id="patch_7">
    <path d="M 838.981257 128.65193 
L 769.886574 57.696177 
L 631.697206 57.696177 
L 562.602523 128.65193 
L 631.697206 199.607684 
L 769.886574 199.607684 
L 838.981257 128.65193 
z
" clip-path="url(#pc0bfa55531)" style="fill: none; opacity: 0.30826; stroke: #0033ff; stroke-linejoin: miter"/>
   </g>
   <g id="patch_8">
    <path d="M 655.804001 609.316466 
L 590.28651 542.034257 
L 459.251527 542.034257 
L 393.734036 609.316466 
L 459.251527 676.598675 
L 590.28651 676.598675 
z
" clip-path="url(#pc0bfa55531)" style="fill: #000011; opacity: 0.160674; stroke: #000011; stroke-linejoin: miter"/>
   </g>
   <g id="patch_9">
    <path d="M 655.804001 609.316466 
L 590.28651 542.034257 
L 459.251527 542.034257 
L 393.734036 609.316466 
L 459.251527 676.598675 
L 590.28651 676.598675 
L 655.804001 609.316466 
z
" clip-path="url(#pc0bfa55531)" style="fill: none; opacity: 0.360674; stroke: #004400; stroke-linejoin: miter"/>
   </g>
   <g id="patch_10">
    <path d="M 586.796353 228.356722 
L 555.340754 196.053863 
L 492.429554 196.053863 
L 460.973954 228.356722 
L 492.429554 260.65958 
L 555.340754 260.65958 
z
" clip-path="url(#pc0bfa55531)" style="fill: #000022; opacity: 0.35; stroke: #000022; stroke-linejoin: miter"/>
   </g>
   <g id="patch_11">
    <path d="M 586.796353 228.356722 
L 555.340754 196.053863 
L 492.429554 196.053863 
L 460.973954 228.356722 
L 492.429554 260.65958 
L 555.340754 260.65958 
L 586.796353 228.356722 
z
" clip-path="url(#pc0bfa55531)" style="fill: none; opacity: 0.55; stroke: #004411; stroke-linejoin: miter"/>
   </g>
   <g id="patch_12">
    <path d="M 828.946886 114.083413 
L 781.903176 65.772578 
L 687.815756 65.772578 
L 640.772047 114.083413 
L 687.815756 162.394248 
L 781.903176 162.394248 
z
" clip-path="url(#pc0bfa55531)" style="fill: #000033; opacity: 0.328687; stroke: #000033; stroke-linejoin: miter"/>
   </g>
   <g id="patch_13">
    <path d="M 828.946886 114.083413 
L 781.903176 65.772578 
L 687.815756 65.772578 
L 640.772047 114.083413 
L 687.815756 162.394248 
L 781.903176 162.394248 
L 828.946886 114.083413 
z
" clip-path="url(#pc0bfa55531)" style="fill: none; opacity: 0.528687; stroke: #004411; stroke-linejoin: miter"/>
   </g>
   <g id="patch_14">
    <path d="M 528.670419 681.480825 
L 475.626175 627.00783 
L 369.537687 627.00783 
L 316.493443 681.480825 
L 369.537687 735.953819 
L 475.626175 735.953819 
z
" clip-path="url(#pc0bfa55531)" style="fill: #000033; opacity: 0.195447; stroke: #000033; stroke-linejoin: miter"/>
   </g>
   <g id="patch_15">
    <path d="M 528.670419 681.480825 
L 475.626175 627.00783 
L 369.537687 627.00783 
L 316.493443 681.480825 
L 327.282027 692.56 
M 517.881835 692.56 
L 528.670419 681.480825 
" clip-path="url(#pc0bfa55531)" style="fill: none; opacity: 0.395447; stroke: #004422; stroke-linejoin: miter"/>
   </g>
   <g id="patch_16">
    <path d="M 700.412907 561.905451 
L 670.320237 531.002233 
L 610.134898 531.002233 
L 580.042228 561.905451 
L 610.134898 592.808668 
L 670.320237 592.808668 
z
" clip-path="url(#pc0bfa55531)" style="fill: #000044; opacity: 0.172011; stroke: #000044; stroke-linejoin: miter"/>
   </g>
   <g id="patch_17">
    <path d="M 700.412907 561.905451 
L 670.320237 531.002233 
L 610.134898 531.002233 
L 580.042228 561.905451 
L 610.134898 592.808668 
L 670.320237 592.808668 
L 700.412907 561.905451 
z
" clip-path="url(#pc0bfa55531)" style="fill: none; opacity: 0.372011; stroke: #004422; stroke-linejoin: miter"/>
   </g>
   <g id="patch_18">
    <path d="M 713.226942 53.412776 
L 688.188774 27.700202 
L 638.112436 27.700202 
L 613.074267 53.412776 
L 638.112436 79.125349 
L 688.188774 79.125349 
z
" clip-path="url(#pc0bfa55531)" style="fill: #000055; opacity: 0.310923; stroke: #000055; stroke-linejoin: miter"/>
   </g>
   <g id="patch_19">
    <path d="M 713.226942 53.412776 
L 688.188774 27.700202 
L 638.112436 27.700202 
L 613.074267 53.412776 
L 638.112436 79.125349 
L 688.188774 79.125349 
L 713.226942 53.412776 
z
" clip-path="url(#pc0bfa55531)" style="fill: none; opacity: 0.510923; stroke: #004433; stroke-linejoin: miter"/>
   </g>
   <g id="patch_20">
    <path d="M 150.074905 288.501331 
L 93.153988 230.047245 
L -20.687846 230.047245 
L -77.608763 288.501331 
L -20.687846 346.955416 
L 93.153988 346.955416 
z
" clip-path="url(#pc0bfa55531)" style="fill: #000055; opacity: 0.372956; stroke: #000055; stroke-linejoin: miter"/>
   </g>
   <g id="patch_21">
    <path d="M 150.074905 288.501331 
L 93.153988 230.047245 
L -1 230.047245 
M -1 346.955416 
L 93.153988 346.955416 
L 150.074905 288.501331 
" clip-path="url(#pc0bfa55531)" style="fill: none; opacity: 0.572956; stroke: #004444; stroke-linejoin: miter"/>
   </g>
   <g id="patch_22">
    <path d="M 1111.655449 33.802506 
L 1043.225188 -36.470929 
L 906.364664 -36.470929 
L 837.934403 33.802506 
L 906.364664 104.075941 
L 1043.225188 104.075941 
z
" clip-path="url(#pc0bfa55531)" style="fill: #000066; opacity: 0.15835; stroke: #000066; stroke-linejoin: miter"/>
   </g>
   <g id="patch_23">
    <path d="M 1111.655449 33.802506 
L 1077.765764 -1 
M 871.824088 -1 
L 837.934403 33.802506 
L 906.364664 104.075941 
L 1043.225188 104.075941 
L 1111.655449 33.802506 
" clip-path="url(#pc0bfa55531)" style="fill: none; opacity: 0.35835; stroke: #004444; stroke-linejoin: miter"/>
   </g>
   <g id="patch_24">
    <path d="M 1133.002761 420.934259 
L 1106.425416 393.641051 
L 1053.270724 393.641051 
L 1026.693379 420.934259 
L 1053.270724 448.227467 
L 1106.425416 448.227467 
z
" clip-path="url(#pc0bfa55531)" style="fill: #000066; opacity: 0.151272; stroke: #000066; stroke-linejoin: miter"/>
   </g>
   <g id="patch_25">
    <path d="M 1133.002761 420.934259 
L 1106.425416 393.641051 
L 1053.270724 393.641051 
L 1026.693379 420.934259 
L 1053.270724 448.227467 
L 1106.425416 448.227467 
L 1133.002761 420.934259 
z
" clip-path="url(#pc0bfa55531)" style="fill: none; opacity: 0.351272; stroke: #004455; stroke-linejoin: miter"/>
   </g>
   <g id="patch_26">
    <path d="M 653.846741 455.914977 
L 624.344046 425.617625 
L 565.338656 425.617625 
L 535.835961 455.914977 
L 565.338656 486.212328 
L 624.344046 486.212328 
z
" clip-path="url(#pc0bfa55531)" style="fill: #000077; opacity: 0.11458; stroke: #000077; stroke-linejoin: miter"/>
   </g>
   <g id="patch_27">
    <path d="M 653.846741 455.914977 
L 624.344046 425.617625 
L 565.338656 425.617625 
L 535.835961 455.914977 
L 565.338656 486.212328 
L 624.344046 486.212328 
L 653.846741 455.914977 
z
" clip-path="url(#pc0bfa55531)" style="fill: none; opacity: 0.31458; stroke: #004466; stroke-linejoin: miter"/>
   </g>
   <g id="patch_28">
    <path d="M 1144.963474 630.458113 
L 1109.663549 594.207383 
L 1039.0637 594.207383 
L 1003.763775 630.458113 
L 1039.0637 666.708844 
L 1109.663549 666.708844 
z
" clip-path="url(#pc0bfa55531)" style="fill: #000088; opacity: 0.325399; stroke: #000088; stroke-linejoin: miter"/>
   </g>
   <g id="patch_29">
    <path d="M 1144.963474 630.458113 
L 1109.663549 594.207383 
L 1039.0637 594.207383 
L 1003.763775 630.458113 
L 1039.0637 666.708844 
L 1109.663549 666.708844 
L 1144.963474 630.458113 
z
" clip-path="url(#pc0bfa55531)" style="fill: none; opacity: 0.525399; stroke: #004466; stroke-linejoin: miter"/>
   </g>
   <g id="patch_30">
    <path d="M 829.196292 395.083488 
L 784.021969 348.692391 
L 693.673324 348.692391 
L 648.499001 395.083488 
L 693.673324 441.474584 
L 784.021969 441.474584 
z
" clip-path="url(#pc0bfa55531)" style="fill: #000088; opacity: 0.363957; stroke: #000088; stroke-linejoin: miter"/>
   </g>
   <g id="patch_31">
    <path d="M 829.196292 395.083488 
L 784.021969 348.692391 
L 693.673324 348.692391 
L 648.499001 395.083488 
L 693.673324 441.474584 
L 784.021969 441.474584 
L 829.196292 395.083488 
z
" clip-path="url(#pc0bfa55531)" style="fill: none; opacity: 0.563957; stroke: #004477; stroke-linejoin: miter"/>
   </g>
   <g id="patch_32">
    <path d="M 148.022584 72.516563 
L 119.179787 42.896884 
L 61.494193 42.896884 
L 32.651396 72.516563 
L 61.494193 102.136243 
L 119.179787 102.136243 
z
" clip-path="url(#pc0bfa55531)" style="fill: #000099; opacity: 0.323723; stroke: #000099; stroke-linejoin: miter"/>
   </g>
   <g id="patch_33">
    <path d="M 148.022584 72.516563 
L 119.179787 42.896884 
L 61.494193 42.896884 
L 32.651396 72.516563 
L 61.494193 102.136243 
L 119.179787 102.136243 
L 148.022584 72.516563 
z
" clip-path="url(#pc0bfa55531)" style="fill: none; opacity: 0.523723; stroke: #004477; stroke-linejoin: miter"/>
   </g>
   <g id="patch_34">
    <path d="M 231.472923 376.409343 
L 201.905981 346.046014 
L 142.772098 346.046014 
L 113.205157 376.409343 
L 142.772098 406.772672 
L 201.905981 406.772672 
z
" clip-path="url(#pc0bfa55531)" style="fill: #0000aa; opacity: 0.220509; stroke: #0000aa; stroke-linejoin: miter"/>
   </g>
   <g id="patch_35">
    <path d="M 231.472923 376.409343 
L 201.905981 346.046014 
L 142.772098 346.046014 
L 113.205157 376.409343 
L 142.772098 406.772672 
L 201.905981 406.772672 
L 231.472923 376.409343 
z
" clip-path="url(#pc0bfa55531)" style="fill: none; opacity: 0.420509; stroke: #004488; stroke-linejoin: miter"/>
   </g>
   <g id="patch_36">
    <path d="M 555.496037 46.846132 
L 501.443844 -8.66196 
L 393.339459 -8.66196 
L 339.287266 46.846132 
L 393.339459 102.354223 
L 501.443844 102.354223 
z
" clip-path="url(#pc0bfa55531)" style="fill: #0000aa; opacity: 0.359959; stroke: #0000aa; stroke-linejoin: miter"/>
   </g>
   <g id="patch_37">
    <path d="M 555.496037 46.846132 
L 508.904842 -1 
M 385.878461 -1 
L 339.287266 46.846132 
L 393.339459 102.354223 
L 501.443844 102.354223 
L 555.496037 46.846132 
" clip-path="url(#pc0bfa55531)" style="fill: none; opacity: 0.559959; stroke: #004499; stroke-linejoin: miter"/>
   </g>
   <g id="patch_38">
    <path d="M 247.894095 85.5389 
L 201.556795 37.953502 
L 108.882196 37.953502 
L 62.544896 85.5389 
L 108.882196 133.124297 
L 201.556795 133.124297 
z
" clip-path="url(#pc0bfa55531)" style="fill: #0000bb; opacity: 0.257276; stroke: #0000bb; stroke-linejoin: miter"/>
   </g>
   <g id="patch_39">
    <path d="M 247.894095 85.5389 
L 201.556795 37.953502 
L 108.882196 37.953502 
L 62.544896 85.5389 
L 108.882196 133.124297 
L 201.556795 133.124297 
L 247.894095 85.5389 
z
" clip-path="url(#pc0bfa55531)" style="fill: none; opacity: 0.457276; stroke: #004499; stroke-linejoin: miter"/>
   </g>
   <g id="patch_40">
    <path d="M 284.5527 230.497782 
L 247.979448 192.939427 
L 174.832945 192.939427 
L 138.259694 230.497782 
L 174.832945 268.056136 
L 247.979448 268.056136 
z
" clip-path="url(#pc0bfa55531)" style="fill: #0000bb; opacity: 0.186881; stroke: #0000bb; stroke-linejoin: miter"/>
   </g>
   <g id="patch_41">
    <path d="M 284.5527 230.497782 
L 247.979448 192.939427 
L 174.832945 192.939427 
L 138.259694 230.497782 
L 174.832945 268.056136 
L 247.979448 268.056136 
L 284.5527 230.497782 
z
" clip-path="url(#pc0bfa55531)" style="fill: none; opacity: 0.386881; stroke: #0044aa; stroke-linejoin: miter"/>
   </g>
   <g id="patch_42">
    <path d="M 1239.481317 688.638596 
L 1182.99169 630.627417 
L 1070.012436 630.627417 
L 1013.522808 688.638596 
L 1070.012436 746.649774 
L 1182.99169 746.649774 
z
" clip-path="url(#pc0bfa55531)" style="fill: #0000cc; opacity: 0.238379; stroke: #0000cc; stroke-linejoin: miter"/>
   </g>
   <g id="patch_43">
    <path d="M 1167.4 630.627417 
L 1070.012436 630.627417 
L 1013.522808 688.638596 
L 1017.34136 692.56 
" clip-path="url(#pc0bfa55531)" style="fill: none; opacity: 0.438379; stroke: #0044bb; stroke-linejoin: miter"/>
   </g>
   <g id="patch_44">
    <path d="M 604.453357 66.062177 
L 537.916959 -2.266384 
L 404.844163 -2.266384 
L 338.307765 66.062177 
L 404.844163 134.390737 
L 537.916959 134.390737 
z
" clip-path="url(#pc0bfa55531)" style="fill: #0000dd; opacity: 0.23695; stroke: #0000dd; stroke-linejoin: miter"/>
   </g>
   <g id="patch_45">
    <path d="M 604.453357 66.062177 
L 539.150127 -1 
M 403.610995 -1 
L 338.307765 66.062177 
L 404.844163 134.390737 
L 537.916959 134.390737 
L 604.453357 66.062177 
" clip-path="url(#pc0bfa55531)" style="fill: none; opacity: 0.43695; stroke: #0044bb; stroke-linejoin: miter"/>
   </g>
   <g id="patch_46">
    <path d="M 404.941554 164.401085 
L 346.721475 104.612844 
L 230.281316 104.612844 
L 172.061237 164.401085 
L 230.281316 224.189326 
L 346.721475 224.189326 
z
" clip-path="url(#pc0bfa55531)" style="fill: #0000dd; opacity: 0.391113; stroke: #0000dd; stroke-linejoin: miter"/>
   </g>
   <g id="patch_47">
    <path d="M 404.941554 164.401085 
L 346.721475 104.612844 
L 230.281316 104.612844 
L 172.061237 164.401085 
L 230.281316 224.189326 
L 346.721475 224.189326 
L 404.941554 164.401085 
z
" clip-path="url(#pc0bfa55531)" style="fill: none; opacity: 0.591113; stroke: #0044cc; stroke-linejoin: miter"/>
   </g>
   <g id="patch_48">
    <path d="M 844.426672 657.459655 
L 784.252862 595.66506 
L 663.905243 595.66506 
L 603.731434 657.459655 
L 663.905243 719.25425 
L 784.252862 719.25425 
z
" clip-path="url(#pc0bfa55531)" style="fill: #0000ee; opacity: 0.177554; stroke: #0000ee; stroke-linejoin: miter"/>
   </g>
   <g id="patch_49">
    <path d="M 844.426672 657.459655 
L 784.252862 595.66506 
L 663.905243 595.66506 
L 603.731434 657.459655 
L 637.911146 692.56 
M 810.246959 692.56 
L 844.426672 657.459655 
" clip-path="url(#pc0bfa55531)" style="fill: none; opacity: 0.377554; stroke: #0044cc; stroke-linejoin: miter"/>
   </g>
   <g id="patch_50">
    <path d="M 776.277207 515.510411 
L 735.130721 473.255642 
L 652.83775 473.255642 
L 611.691264 515.510411 
L 652.83775 557.76518 
L 735.130721 557.76518 
z
" clip-path="url(#pc0bfa55531)" style="fill: #0000ff; opacity: 0.161682; stroke: #0000ff; stroke-linejoin: miter"/>
   </g>
   <g id="patch_51">
    <path d="M 776.277207 515.510411 
L 735.130721 473.255642 
L 652.83775 473.255642 
L 611.691264 515.510411 
L 652.83775 557.76518 
L 735.130721 557.76518 
L 776.277207 515.510411 
z
" clip-path="url(#pc0bfa55531)" style="fill: none; opacity: 0.361682; stroke: #0044dd; stroke-linejoin: miter"/>
   </g>
   <g id="patch_52">
    <path d="M 664.570305 389.190163 
L 623.68536 347.203979 
L 541.915469 347.203979 
L 501.030524 389.190163 
L 541.915469 431.176347 
L 623.68536 431.176347 
z
" clip-path="url(#pc0bfa55531)" style="fill: #0000ff; opacity: 0.187481; stroke: #0000ff; stroke-linejoin: miter"/>
   </g>
   <g id="patch_53">
    <path d="M 664.570305 389.190163 
L 623.68536 347.203979 
L 541.915469 347.203979 
L 501.030524 389.190163 
L 541.915469 431.176347 
L 623.68536 431.176347 
L 664.570305 389.190163 
z
" clip-path="url(#pc0bfa55531)" style="fill: none; opacity: 0.387481; stroke: #0044ee; stroke-linejoin: miter"/>
   </g>
   <g id="patch_54">
    <path d="M 797.17813 101.952077 
L 742.320117 45.61646 
L 632.60409 45.61646 
L 577.746076 101.952077 
L 632.60409 158.287694 
L 742.320117 158.287694 
z
" clip-path="url(#pc0bfa55531)" style="fill: #001100; opacity: 0.124843; stroke: #001100; stroke-linejoin: miter"/>
   </g>
   <g id="patch_55">
    <path d="M 797.17813 101.952077 
L 742.320117 45.61646 
L 632.60409 45.61646 
L 577.746076 101.952077 
L 632.60409 158.287694 
L 742.320117 158.287694 
L 797.17813 101.952077 
z
" clip-path="url(#pc0bfa55531)" style="fill: none; opacity: 0.324843; stroke: #0044ee; stroke-linejoin: miter"/>
   </g>
   <g id="patch_56">
    <path d="M 412.857983 321.503407 
L 365.415318 272.78287 
L 270.529987 272.78287 
L 223.087321 321.503407 
L 270.529987 370.223944 
L 365.415318 370.223944 
z
" clip-path="url(#pc0bfa55531)" style="fill: #001100; opacity: 0.343972; stroke: #001100; stroke-linejoin: miter"/>
   </g>
   <g id="patch_57">
    <path d="M 412.857983 321.503407 
L 365.415318 272.78287 
L 270.529987 272.78287 
L 223.087321 321.503407 
L 270.529987 370.223944 
L 365.415318 370.223944 
L 412.857983 321.503407 
z
" clip-path="url(#pc0bfa55531)" style="fill: none; opacity: 0.543972; stroke: #0044ff; stroke-linejoin: miter"/>
   </g>
   <g id="patch_58">
    <path d="M 1289.834537 524.36867 
L 1223.612003 456.362428 
L 1091.166935 456.362428 
L 1024.944401 524.36867 
L 1091.166935 592.374913 
L 1223.612003 592.374913 
z
" clip-path="url(#pc0bfa55531)" style="fill: #001111; opacity: 0.115212; stroke: #001111; stroke-linejoin: miter"/>
   </g>
   <g id="patch_59">
    <path d="M 1167.4 456.362428 
L 1091.166935 456.362428 
L 1024.944401 524.36867 
L 1091.166935 592.374913 
L 1167.4 592.374913 
" clip-path="url(#pc0bfa55531)" style="fill: none; opacity: 0.315212; stroke: #005500; stroke-linejoin: miter"/>
   </g>
   <g id="patch_60">
    <path d="M 1027.46713 374.707832 
L 990.742312 336.993828 
L 917.292676 336.993828 
L 880.567857 374.707832 
L 917.292676 412.421835 
L 990.742312 412.421835 
z
" clip-path="url(#pc0bfa55531)" style="fill: #001122; opacity: 0.180032; stroke: #001122; stroke-linejoin: miter"/>
   </g>
   <g id="patch_61">
    <path d="M 1027.46713 374.707832 
L 990.742312 336.993828 
L 917.292676 336.993828 
L 880.567857 374.707832 
L 917.292676 412.421835 
L 990.742312 412.421835 
L 1027.46713 374.707832 
z
" clip-path="url(#pc0bfa55531)" style="fill: none; opacity: 0.380032; stroke: #005500; stroke-linejoin: miter"/>
   </g>
   <g id="patch_62">
    <path d="M 884.968799 404.945202 
L 855.019565 374.189284 
L 795.121097 374.189284 
L 765.171863 404.945202 
L 795.121097 435.70112 
L 855.019565 435.70112 
z
" clip-path="url(#pc0bfa55531)" style="fill: #001122; opacity: 0.217518; stroke: #001122; stroke-linejoin: miter"/>
   </g>
   <g id="patch_63">
    <path d="M 884.968799 404.945202 
L 855.019565 374.189284 
L 795.121097 374.189284 
L 765.171863 404.945202 
L 795.121097 435.70112 
L 855.019565 435.70112 
L 884.968799 404.945202 
z
" clip-path="url(#pc0bfa55531)" style="fill: none; opacity: 0.417518; stroke: #005511; stroke-linejoin: miter"/>
   </g>
   <g id="patch_64">
    <path d="M 467.623445 641.423612 
L 429.612278 602.388612 
L 353.589944 602.388612 
L 315.578777 641.423612 
L 353.589944 680.458612 
L 429.612278 680.458612 
z
" clip-path="url(#pc0bfa55531)" style="fill: #001133; opacity: 0.136928; stroke: #001133; stroke-linejoin: miter"/>
   </g>
   <g id="patch_65">
    <path d="M 467.623445 641.423612 
L 429.612278 602.388612 
L 353.589944 602.388612 
L 315.578777 641.423612 
L 353.589944 680.458612 
L 429.612278 680.458612 
L 467.623445 641.423612 
z
" clip-path="url(#pc0bfa55531)" style="fill: none; opacity: 0.336928; stroke: #005511; stroke-linejoin: miter"/>
   </g>
   <g id="patch_66">
    <path d="M 1105.472015 682.589059 
L 1053.872943 629.600162 
L 950.674797 629.600162 
L 899.075724 682.589059 
L 950.674797 735.577956 
L 1053.872943 735.577956 
z
" clip-path="url(#pc0bfa55531)" style="fill: #001144; opacity: 0.163739; stroke: #001144; stroke-linejoin: miter"/>
   </g>
   <g id="patch_67">
    <path d="M 1105.472015 682.589059 
L 1053.872943 629.600162 
L 950.674797 629.600162 
L 899.075724 682.589059 
L 908.785141 692.56 
M 1095.762598 692.56 
L 1105.472015 682.589059 
" clip-path="url(#pc0bfa55531)" style="fill: none; opacity: 0.363739; stroke: #005522; stroke-linejoin: miter"/>
   </g>
   <g id="patch_68">
    <path d="M 408.233973 651.188077 
L 355.268804 596.796288 
L 249.338466 596.796288 
L 196.373296 651.188077 
L 249.338466 705.579867 
L 355.268804 705.579867 
z
" clip-path="url(#pc0bfa55531)" style="fill: #001144; opacity: 0.39342; stroke: #001144; stroke-linejoin: miter"/>
   </g>
   <g id="patch_69">
    <path d="M 408.233973 651.188077 
L 355.268804 596.796288 
L 249.338466 596.796288 
L 196.373296 651.188077 
L 236.660092 692.56 
M 367.947178 692.56 
L 408.233973 651.188077 
" clip-path="url(#pc0bfa55531)" style="fill: none; opacity: 0.59342; stroke: #005533; stroke-linejoin: miter"/>
   </g>
   <g id="patch_70">
    <path d="M 217.18309 343.973073 
L 178.626298 304.377751 
L 101.512713 304.377751 
L 62.955921 343.973073 
L 101.512713 383.568395 
L 178.626298 383.568395 
z
" clip-path="url(#pc0bfa55531)" style="fill: #001155; opacity: 0.367888; stroke: #001155; stroke-linejoin: miter"/>
   </g>
   <g id="patch_71">
    <path d="M 217.18309 343.973073 
L 178.626298 304.377751 
L 101.512713 304.377751 
L 62.955921 343.973073 
L 101.512713 383.568395 
L 178.626298 383.568395 
L 217.18309 343.973073 
z
" clip-path="url(#pc0bfa55531)" style="fill: none; opacity: 0.567888; stroke: #005533; stroke-linejoin: miter"/>
   </g>
   <g id="patch_72">
    <path d="M 236.511437 532.779428 
L 176.876637 471.538361 
L 57.607036 471.538361 
L -2.027764 532.779428 
L 57.607036 594.020495 
L 176.876637 594.020495 
z
" clip-path="url(#pc0bfa55531)" style="fill: #001155; opacity: 0.326209; stroke: #001155; stroke-linejoin: miter"/>
   </g>
   <g id="patch_73">
    <path d="M 236.511437 532.779428 
L 176.876637 471.538361 
L 57.607036 471.538361 
L -1 531.723981 
M -1 533.834875 
L 57.607036 594.020495 
L 176.876637 594.020495 
L 236.511437 532.779428 
" clip-path="url(#pc0bfa55531)" style="fill: none; opacity: 0.526209; stroke: #005544; stroke-linejoin: miter"/>
   </g>
   <g id="patch_74">
    <path d="M 1164.674306 600.177022 
L 1103.869551 537.734487 
L 982.26004 537.734487 
L 921.455284 600.177022 
L 982.26004 662.619558 
L 1103.869551 662.619558 
z
" clip-path="url(#pc0bfa55531)" style="fill: #001166; opacity: 0.32134; stroke: #001166; stroke-linejoin: miter"/>
   </g>
   <g id="patch_75">
    <path d="M 1164.674306 600.177022 
L 1103.869551 537.734487 
L 982.26004 537.734487 
L 921.455284 600.177022 
L 982.26004 662.619558 
L 1103.869551 662.619558 
L 1164.674306 600.177022 
z
" clip-path="url(#pc0bfa55531)" style="fill: none; opacity: 0.52134; stroke: #005555; stroke-linejoin: miter"/>
   </g>
   <g id="patch_76">
    <path d="M 933.570488 160.90679 
L 898.032475 124.411559 
L 826.95645 124.411559 
L 791.418437 160.90679 
L 826.95645 197.402022 
L 898.032475 197.402022 
z
" clip-path="url(#pc0bfa55531)" style="fill: #001177; opacity: 0.373783; stroke: #001177; stroke-linejoin: miter"/>
   </g>
   <g id="patch_77">
    <path d="M 933.570488 160.90679 
L 898.032475 124.411559 
L 826.95645 124.411559 
L 791.418437 160.90679 
L 826.95645 197.402022 
L 898.032475 197.402022 
L 933.570488 160.90679 
z
" clip-path="url(#pc0bfa55531)" style="fill: none; opacity: 0.573783; stroke: #005555; stroke-linejoin: miter"/>
   </g>
   <g id="patch_78">
    <path d="M 478.114312 185.991131 
L 433.995595 140.684074 
L 345.758161 140.684074 
L 301.639444 185.991131 
L 345.758161 231.298189 
L 433.995595 231.298189 
z
" clip-path="url(#pc0bfa55531)" style="fill: #001177; opacity: 0.312197; stroke: #001177; stroke-linejoin: miter"/>
   </g>
   <g id="patch_79">
    <path d="M 478.114312 185.991131 
L 433.995595 140.684074 
L 345.758161 140.684074 
L 301.639444 185.991131 
L 345.758161 231.298189 
L 433.995595 231.298189 
L 478.114312 185.991131 
z
" clip-path="url(#pc0bfa55531)" style="fill: none; opacity: 0.512197; stroke: #005566; stroke-linejoin: miter"/>
   </g>
   <g id="patch_80">
    <path d="M 757.436094 522.616236 
L 715.144366 479.185378 
L 630.560911 479.185378 
L 588.269183 522.616236 
L 630.560911 566.047094 
L 715.144366 566.047094 
z
" clip-path="url(#pc0bfa55531)" style="fill: #001188; opacity: 0.190619; stroke: #001188; stroke-linejoin: miter"/>
   </g>
   <g id="patch_81">
    <path d="M 757.436094 522.616236 
L 715.144366 479.185378 
L 630.560911 479.185378 
L 588.269183 522.616236 
L 630.560911 566.047094 
L 715.144366 566.047094 
L 757.436094 522.616236 
z
" clip-path="url(#pc0bfa55531)" style="fill: none; opacity: 0.390619; stroke: #005566; stroke-linejoin: miter"/>
   </g>
   <g id="patch_82">
    <path d="M 308.66201 418.511562 
L 284.884196 394.093291 
L 237.328568 394.093291 
L 213.550754 418.511562 
L 237.328568 442.929833 
L 284.884196 442.929833 
z
" clip-path="url(#pc0bfa55531)" style="fill: #001199; opacity: 0.109186; stroke: #001199; stroke-linejoin: miter"/>
   </g>
   <g id="patch_83">
    <path d="M 308.66201 418.511562 
L 284.884196 394.093291 
L 237.328568 394.093291 
L 213.550754 418.511562 
L 237.328568 442.929833 
L 284.884196 442.929833 
L 308.66201 418.511562 
z
" clip-path="url(#pc0bfa55531)" style="fill: none; opacity: 0.309186; stroke: #005577; stroke-linejoin: miter"/>
   </g>
   <g id="patch_84">
    <path d="M 528.044599 689.571759 
L 467.080235 626.965316 
L 345.151508 626.965316 
L 284.187144 689.571759 
L 345.151508 752.178202 
L 467.080235 752.178202 
z
" clip-path="url(#pc0bfa55531)" style="fill: #001199; opacity: 0.203244; stroke: #001199; stroke-linejoin: miter"/>
   </g>
   <g id="patch_85">
    <path d="M 528.044599 689.571759 
L 467.080235 626.965316 
L 345.151508 626.965316 
L 284.187144 689.571759 
L 287.097008 692.56 
M 525.134735 692.56 
L 528.044599 689.571759 
" clip-path="url(#pc0bfa55531)" style="fill: none; opacity: 0.403244; stroke: #005588; stroke-linejoin: miter"/>
   </g>
   <g id="patch_86">
    <path d="M 1235.449934 477.989021 
L 1192.954715 434.349192 
L 1107.964279 434.349192 
L 1065.46906 477.989021 
L 1107.964279 521.628851 
L 1192.954715 521.628851 
z
" clip-path="url(#pc0bfa55531)" style="fill: #0011aa; opacity: 0.269705; stroke: #0011aa; stroke-linejoin: miter"/>
   </g>
   <g id="patch_87">
    <path d="M 1167.4 434.349192 
L 1107.964279 434.349192 
L 1065.46906 477.989021 
L 1107.964279 521.628851 
L 1167.4 521.628851 
" clip-path="url(#pc0bfa55531)" style="fill: none; opacity: 0.469705; stroke: #005588; stroke-linejoin: miter"/>
   </g>
   <g id="patch_88">
    <path d="M 347.438221 412.594049 
L 297.546368 361.358357 
L 197.762663 361.358357 
L 147.87081 412.594049 
L 197.762663 463.829742 
L 297.546368 463.829742 
z
" clip-path="url(#pc0bfa55531)" style="fill: #0011aa; opacity: 0.285248; stroke: #0011aa; stroke-linejoin: miter"/>
   </g>
   <g id="patch_89">
    <path d="M 347.438221 412.594049 
L 297.546368 361.358357 
L 197.762663 361.358357 
L 147.87081 412.594049 
L 197.762663 463.829742 
L 297.546368 463.829742 
L 347.438221 412.594049 
z
" clip-path="url(#pc0bfa55531)" style="fill: none; opacity: 0.485248; stroke: #005599; stroke-linejoin: miter"/>
   </g>
   <g id="patch_90">
    <path d="M 169.110774 551.432825 
L 103.390285 483.94215 
L -28.050693 483.94215 
L -93.771182 551.432825 
L -28.050693 618.923499 
L 103.390285 618.923499 
z
" clip-path="url(#pc0bfa55531)" style="fill: #0011bb; opacity: 0.398459; stroke: #0011bb; stroke-linejoin: miter"/>
   </g>
   <g id="patch_91">
    <path d="M 169.110774 551.432825 
L 103.390285 483.94215 
L -1 483.94215 
M -1 618.923499 
L 103.390285 618.923499 
L 169.110774 551.432825 
" clip-path="url(#pc0bfa55531)" style="fill: none; opacity: 0.598459; stroke: #0055aa; stroke-linejoin: miter"/>
   </g>
   <g id="patch_92">
    <path d="M 85.21054 242.946582 
L 61.443097 218.538962 
L 13.908212 218.538962 
L -9.859231 242.946582 
L 13.908212 267.354202 
L 61.443097 267.354202 
z
" clip-path="url(#pc0bfa55531)" style="fill: #0011cc; opacity: 0.302547; stroke: #0011cc; stroke-linejoin: miter"/>
   </g>
   <g id="patch_93">
    <path d="M 85.21054 242.946582 
L 61.443097 218.538962 
L 13.908212 218.538962 
L -1 233.848727 
M -1 252.044437 
L 13.908212 267.354202 
L 61.443097 267.354202 
L 85.21054 242.946582 
" clip-path="url(#pc0bfa55531)" style="fill: none; opacity: 0.502547; stroke: #0055aa; stroke-linejoin: miter"/>
   </g>
   <g id="patch_94">
    <path d="M 296.79421 366.925555 
L 252.063694 320.990219 
L 162.602662 320.990219 
L 117.872145 366.925555 
L 162.602662 412.86089 
L 252.063694 412.86089 
z
" clip-path="url(#pc0bfa55531)" style="fill: #0011cc; opacity: 0.347933; stroke: #0011cc; stroke-linejoin: miter"/>
   </g>
   <g id="patch_95">
    <path d="M 296.79421 366.925555 
L 252.063694 320.990219 
L 162.602662 320.990219 
L 117.872145 366.925555 
L 162.602662 412.86089 
L 252.063694 412.86089 
L 296.79421 366.925555 
z
" clip-path="url(#pc0bfa55531)" style="fill: none; opacity: 0.547933; stroke: #0055bb; stroke-linejoin: miter"/>
   </g>
   <g id="patch_96">
    <path d="M 959.78793 372.961177 
L 902.985552 314.628823 
L 789.380796 314.628823 
L 732.578418 372.961177 
L 789.380796 431.29353 
L 902.985552 431.29353 
z
" clip-path="url(#pc0bfa55531)" style="fill: #0011dd; opacity: 0.328278; stroke: #0011dd; stroke-linejoin: miter"/>
   </g>
   <g id="patch_97">
    <path d="M 959.78793 372.961177 
L 902.985552 314.628823 
L 789.380796 314.628823 
L 732.578418 372.961177 
L 789.380796 431.29353 
L 902.985552 431.29353 
L 959.78793 372.961177 
z
" clip-path="url(#pc0bfa55531)" style="fill: none; opacity: 0.528278; stroke: #0055bb; stroke-linejoin: miter"/>
   </g>
   <g id="patch_98">
    <path d="M 511.380601 284.527046 
L 480.168426 252.474169 
L 417.744074 252.474169 
L 386.531898 284.527046 
L 417.744074 316.579924 
L 480.168426 316.579924 
z
" clip-path="url(#pc0bfa55531)" style="fill: #0011ee; opacity: 0.26313; stroke: #0011ee; stroke-linejoin: miter"/>
   </g>
   <g id="patch_99">
    <path d="M 511.380601 284.527046 
L 480.168426 252.474169 
L 417.744074 252.474169 
L 386.531898 284.527046 
L 417.744074 316.579924 
L 480.168426 316.579924 
L 511.380601 284.527046 
z
" clip-path="url(#pc0bfa55531)" style="fill: none; opacity: 0.46313; stroke: #0055cc; stroke-linejoin: miter"/>
   </g>
   <g id="patch_100">
    <path d="M 705.979695 606.708272 
L 661.592226 561.125224 
L 572.817287 561.125224 
L 528.429818 606.708272 
L 572.817287 652.291321 
L 661.592226 652.291321 
z
" clip-path="url(#pc0bfa55531)" style="fill: #0011ee; opacity: 0.34725; stroke: #0011ee; stroke-linejoin: miter"/>
   </g>
   <g id="patch_101">
    <path d="M 705.979695 606.708272 
L 661.592226 561.125224 
L 572.817287 561.125224 
L 528.429818 606.708272 
L 572.817287 652.291321 
L 661.592226 652.291321 
L 705.979695 606.708272 
z
" clip-path="url(#pc0bfa55531)" style="fill: none; opacity: 0.54725; stroke: #0055dd; stroke-linejoin: miter"/>
   </g>
   <g id="patch_102">
    <path d="M 651.985994 436.500434 
L 619.236112 402.868432 
L 553.736348 402.868432 
L 520.986466 436.500434 
L 553.736348 470.132436 
L 619.236112 470.132436 
z
" clip-path="url(#pc0bfa55531)" style="fill: #0011ff; opacity: 0.124042; stroke: #0011ff; stroke-linejoin: miter"/>
   </g>
   <g id="patch_103">
    <path d="M 651.985994 436.500434 
L 619.236112 402.868432 
L 553.736348 402.868432 
L 520.986466 436.500434 
L 553.736348 470.132436 
L 619.236112 470.132436 
L 651.985994 436.500434 
z
" clip-path="url(#pc0bfa55531)" style="fill: none; opacity: 0.324042; stroke: #0055dd; stroke-linejoin: miter"/>
   </g>
   <g id="patch_104">
    <path d="M 1018.999884 286.799804 
L 994.754506 261.901374 
L 946.263748 261.901374 
L 922.018369 286.799804 
L 946.263748 311.698233 
L 994.754506 311.698233 
z
" clip-path="url(#pc0bfa55531)" style="fill: #0011ff; opacity: 0.309381; stroke: #0011ff; stroke-linejoin: miter"/>
   </g>
   <g id="patch_105">
    <path d="M 1018.999884 286.799804 
L 994.754506 261.901374 
L 946.263748 261.901374 
L 922.018369 286.799804 
L 946.263748 311.698233 
L 994.754506 311.698233 
L 1018.999884 286.799804 
z
" clip-path="url(#pc0bfa55531)" style="fill: none; opacity: 0.509381; stroke: #0055ee; stroke-linejoin: miter"/>
   </g>
   <g id="patch_106">
    <path d="M 799.676997 578.560012 
L 746.80169 524.260506 
L 641.051078 524.260506 
L 588.175772 578.560012 
L 641.051078 632.859517 
L 746.80169 632.859517 
z
" clip-path="url(#pc0bfa55531)" style="fill: #002200; opacity: 0.168344; stroke: #002200; stroke-linejoin: miter"/>
   </g>
   <g id="patch_107">
    <path d="M 799.676997 578.560012 
L 746.80169 524.260506 
L 641.051078 524.260506 
L 588.175772 578.560012 
L 641.051078 632.859517 
L 746.80169 632.859517 
L 799.676997 578.560012 
z
" clip-path="url(#pc0bfa55531)" style="fill: none; opacity: 0.368344; stroke: #0055ff; stroke-linejoin: miter"/>
   </g>
   <g id="patch_108">
    <path d="M 1228.405704 327.74225 
L 1175.237515 273.141974 
L 1068.901139 273.141974 
L 1015.732951 327.74225 
L 1068.901139 382.342527 
L 1175.237515 382.342527 
z
" clip-path="url(#pc0bfa55531)" style="fill: #002211; opacity: 0.38845; stroke: #002211; stroke-linejoin: miter"/>
   </g>
   <g id="patch_109">
    <path d="M 1167.4 273.141974 
L 1068.901139 273.141974 
L 1015.732951 327.74225 
L 1068.901139 382.342527 
L 1167.4 382.342527 
" clip-path="url(#pc0bfa55531)" style="fill: none; opacity: 0.58845; stroke: #0055ff; stroke-linejoin: miter"/>
   </g>
   <g id="patch_110">
    <path d="M 849.823321 275.612026 
L 797.801622 222.189119 
L 693.758223 222.189119 
L 641.736523 275.612026 
L 693.758223 329.034933 
L 797.801622 329.034933 
z
" clip-path="url(#pc0bfa55531)" style="fill: #002211; opacity: 0.267562; stroke: #002211; stroke-linejoin: miter"/>
   </g>
   <g id="patch_111">
    <path d="M 849.823321 275.612026 
L 797.801622 222.189119 
L 693.758223 222.189119 
L 641.736523 275.612026 
L 693.758223 329.034933 
L 797.801622 329.034933 
L 849.823321 275.612026 
z
" clip-path="url(#pc0bfa55531)" style="fill: none; opacity: 0.467562; stroke: #006600; stroke-linejoin: miter"/>
   </g>
   <g id="patch_112">
    <path d="M 79.013055 413.741 
L 42.712369 376.462553 
L -29.889002 376.462553 
L -66.189688 413.741 
L -29.889002 451.019447 
L 42.712369 451.019447 
z
" clip-path="url(#pc0bfa55531)" style="fill: #002222; opacity: 0.211782; stroke: #002222; stroke-linejoin: miter"/>
   </g>
   <g id="patch_113">
    <path d="M 79.013055 413.741 
L 42.712369 376.462553 
L -1 376.462553 
M -1 451.019447 
L 42.712369 451.019447 
L 79.013055 413.741 
" clip-path="url(#pc0bfa55531)" style="fill: none; opacity: 0.411782; stroke: #006600; stroke-linejoin: miter"/>
   </g>
   <g id="patch_114">
    <path d="M 130.128217 321.851758 
L 84.209787 274.696513 
L -7.627072 274.696513 
L -53.545502 321.851758 
L -7.627072 369.007004 
L 84.209787 369.007004 
z
" clip-path="url(#pc0bfa55531)" style="fill: #002233; opacity: 0.289076; stroke: #002233; stroke-linejoin: miter"/>
   </g>
   <g id="patch_115">
    <path d="M 130.128217 321.851758 
L 84.209787 274.696513 
L -1 274.696513 
M -1 369.007004 
L 84.209787 369.007004 
L 130.128217 321.851758 
" clip-path="url(#pc0bfa55531)" style="fill: none; opacity: 0.489076; stroke: #006611; stroke-linejoin: miter"/>
   </g>
   <g id="patch_116">
    <path d="M 456.194916 632.650987 
L 426.284233 601.934658 
L 366.462867 601.934658 
L 336.552184 632.650987 
L 366.462867 663.367316 
L 426.284233 663.367316 
z
" clip-path="url(#pc0bfa55531)" style="fill: #002233; opacity: 0.135136; stroke: #002233; stroke-linejoin: miter"/>
   </g>
   <g id="patch_117">
    <path d="M 456.194916 632.650987 
L 426.284233 601.934658 
L 366.462867 601.934658 
L 336.552184 632.650987 
L 366.462867 663.367316 
L 426.284233 663.367316 
L 456.194916 632.650987 
z
" clip-path="url(#pc0bfa55531)" style="fill: none; opacity: 0.335136; stroke: #006622; stroke-linejoin: miter"/>
   </g>
   <g id="patch_118">
    <path d="M 331.417497 351.145753 
L 284.989481 303.467195 
L 192.133448 303.467195 
L 145.705431 351.145753 
L 192.133448 398.824311 
L 284.989481 398.824311 
z
" clip-path="url(#pc0bfa55531)" style="fill: #002244; opacity: 0.193441; stroke: #002244; stroke-linejoin: miter"/>
   </g>
   <g id="patch_119">
    <path d="M 331.417497 351.145753 
L 284.989481 303.467195 
L 192.133448 303.467195 
L 145.705431 351.145753 
L 192.133448 398.824311 
L 284.989481 398.824311 
L 331.417497 351.145753 
z
" clip-path="url(#pc0bfa55531)" style="fill: none; opacity: 0.393441; stroke: #006622; stroke-linejoin: miter"/>
   </g>
   <g id="patch_120">
    <path d="M 697.896562 384.138289 
L 648.369672 333.277389 
L 549.315894 333.277389 
L 499.789004 384.138289 
L 549.315894 434.999188 
L 648.369672 434.999188 
z
" clip-path="url(#pc0bfa55531)" style="fill: #002244; opacity: 0.158868; stroke: #002244; stroke-linejoin: miter"/>
   </g>
   <g id="patch_121">
    <path d="M 697.896562 384.138289 
L 648.369672 333.277389 
L 549.315894 333.277389 
L 499.789004 384.138289 
L 549.315894 434.999188 
L 648.369672 434.999188 
L 697.896562 384.138289 
z
" clip-path="url(#pc0bfa55531)" style="fill: none; opacity: 0.358868; stroke: #006633; stroke-linejoin: miter"/>
   </g>
   <g id="patch_122">
    <path d="M 1007.829039 406.705939 
L 954.188455 351.620542 
L 846.907287 351.620542 
L 793.266703 406.705939 
L 846.907287 461.791336 
L 954.188455 461.791336 
z
" clip-path="url(#pc0bfa55531)" style="fill: #002255; opacity: 0.149878; stroke: #002255; stroke-linejoin: miter"/>
   </g>
   <g id="patch_123">
    <path d="M 1007.829039 406.705939 
L 954.188455 351.620542 
L 846.907287 351.620542 
L 793.266703 406.705939 
L 846.907287 461.791336 
L 954.188455 461.791336 
L 1007.829039 406.705939 
z
" clip-path="url(#pc0bfa55531)" style="fill: none; opacity: 0.349878; stroke: #006644; stroke-linejoin: miter"/>
   </g>
   <g id="patch_124">
    <path d="M 342.654329 264.654007 
L 273.643091 193.783947 
L 135.620616 193.783947 
L 66.609378 264.654007 
L 135.620616 335.524066 
L 273.643091 335.524066 
z
" clip-path="url(#pc0bfa55531)" style="fill: #002266; opacity: 0.232825; stroke: #002266; stroke-linejoin: miter"/>
   </g>
   <g id="patch_125">
    <path d="M 342.654329 264.654007 
L 273.643091 193.783947 
L 135.620616 193.783947 
L 66.609378 264.654007 
L 135.620616 335.524066 
L 273.643091 335.524066 
L 342.654329 264.654007 
z
" clip-path="url(#pc0bfa55531)" style="fill: none; opacity: 0.432825; stroke: #006644; stroke-linejoin: miter"/>
   </g>
   <g id="patch_126">
    <path d="M 763.817965 349.174611 
L 740.185858 324.905971 
L 692.921644 324.905971 
L 669.289537 349.174611 
L 692.921644 373.44325 
L 740.185858 373.44325 
z
" clip-path="url(#pc0bfa55531)" style="fill: #002266; opacity: 0.153791; stroke: #002266; stroke-linejoin: miter"/>
   </g>
   <g id="patch_127">
    <path d="M 763.817965 349.174611 
L 740.185858 324.905971 
L 692.921644 324.905971 
L 669.289537 349.174611 
L 692.921644 373.44325 
L 740.185858 373.44325 
L 763.817965 349.174611 
z
" clip-path="url(#pc0bfa55531)" style="fill: none; opacity: 0.353791; stroke: #006655; stroke-linejoin: miter"/>
   </g>
   <g id="patch_128">
    <path d="M 242.120822 432.061233 
L 180.370083 368.647234 
L 56.868605 368.647234 
L -4.882134 432.061233 
L 56.868605 495.475232 
L 180.370083 495.475232 
z
" clip-path="url(#pc0bfa55531)" style="fill: #002277; opacity: 0.398125; stroke: #002277; stroke-linejoin: miter"/>
   </g>
   <g id="patch_129">
    <path d="M 242.120822 432.061233 
L 180.370083 368.647234 
L 56.868605 368.647234 
L -1 428.074534 
M -1 436.047933 
L 56.868605 495.475232 
L 180.370083 495.475232 
L 242.120822 432.061233 
" clip-path="url(#pc0bfa55531)" style="fill: none; opacity: 0.598125; stroke: #006655; stroke-linejoin: miter"/>
   </g>
   <g id="patch_130">
    <path d="M 449.148957 107.194798 
L 407.171052 64.086216 
L 323.215243 64.086216 
L 281.237338 107.194798 
L 323.215243 150.30338 
L 407.171052 150.30338 
z
" clip-path="url(#pc0bfa55531)" style="fill: #002288; opacity: 0.355061; stroke: #002288; stroke-linejoin: miter"/>
   </g>
   <g id="patch_131">
    <path d="M 449.148957 107.194798 
L 407.171052 64.086216 
L 323.215243 64.086216 
L 281.237338 107.194798 
L 323.215243 150.30338 
L 407.171052 150.30338 
L 449.148957 107.194798 
z
" clip-path="url(#pc0bfa55531)" style="fill: none; opacity: 0.555061; stroke: #006666; stroke-linejoin: miter"/>
   </g>
   <g id="patch_132">
    <path d="M 307.146722 459.662728 
L 251.410798 402.425553 
L 139.938951 402.425553 
L 84.203027 459.662728 
L 139.938951 516.899902 
L 251.410798 516.899902 
z
" clip-path="url(#pc0bfa55531)" style="fill: #002288; opacity: 0.130235; stroke: #002288; stroke-linejoin: miter"/>
   </g>
   <g id="patch_133">
    <path d="M 307.146722 459.662728 
L 251.410798 402.425553 
L 139.938951 402.425553 
L 84.203027 459.662728 
L 139.938951 516.899902 
L 251.410798 516.899902 
L 307.146722 459.662728 
z
" clip-path="url(#pc0bfa55531)" style="fill: none; opacity: 0.330235; stroke: #006677; stroke-linejoin: miter"/>
   </g>
   <g id="patch_134">
    <path d="M 677.212058 162.63748 
L 621.665269 105.594535 
L 510.57169 105.594535 
L 455.024901 162.63748 
L 510.57169 219.680426 
L 621.665269 219.680426 
z
" clip-path="url(#pc0bfa55531)" style="fill: #002299; opacity: 0.21847; stroke: #002299; stroke-linejoin: miter"/>
   </g>
   <g id="patch_135">
    <path d="M 677.212058 162.63748 
L 621.665269 105.594535 
L 510.57169 105.594535 
L 455.024901 162.63748 
L 510.57169 219.680426 
L 621.665269 219.680426 
L 677.212058 162.63748 
z
" clip-path="url(#pc0bfa55531)" style="fill: none; opacity: 0.41847; stroke: #006677; stroke-linejoin: miter"/>
   </g>
   <g id="patch_136">
    <path d="M 92.389274 213.115397 
L 50.137007 169.725062 
L -34.367529 169.725062 
L -76.619797 213.115397 
L -34.367529 256.505733 
L 50.137007 256.505733 
z
" clip-path="url(#pc0bfa55531)" style="fill: #002299; opacity: 0.353093; stroke: #002299; stroke-linejoin: miter"/>
   </g>
   <g id="patch_137">
    <path d="M 92.389274 213.115397 
L 50.137007 169.725062 
L -1 169.725062 
M -1 256.505733 
L 50.137007 256.505733 
L 92.389274 213.115397 
" clip-path="url(#pc0bfa55531)" style="fill: none; opacity: 0.553093; stroke: #006688; stroke-linejoin: miter"/>
   </g>
   <g id="patch_138">
    <path d="M 967.031569 599.51215 
L 931.776668 563.307656 
L 861.266867 563.307656 
L 826.011966 599.51215 
L 861.266867 635.716644 
L 931.776668 635.716644 
z
" clip-path="url(#pc0bfa55531)" style="fill: #0022aa; opacity: 0.193618; stroke: #0022aa; stroke-linejoin: miter"/>
   </g>
   <g id="patch_139">
    <path d="M 967.031569 599.51215 
L 931.776668 563.307656 
L 861.266867 563.307656 
L 826.011966 599.51215 
L 861.266867 635.716644 
L 931.776668 635.716644 
L 967.031569 599.51215 
z
" clip-path="url(#pc0bfa55531)" style="fill: none; opacity: 0.393618; stroke: #006699; stroke-linejoin: miter"/>
   </g>
   <g id="patch_140">
    <path d="M 641.763177 503.877545 
L 589.028738 449.722701 
L 483.55986 449.722701 
L 430.825421 503.877545 
L 483.55986 558.03239 
L 589.028738 558.03239 
z
" clip-path="url(#pc0bfa55531)" style="fill: #0022bb; opacity: 0.190636; stroke: #0022bb; stroke-linejoin: miter"/>
   </g>
   <g id="patch_141">
    <path d="M 641.763177 503.877545 
L 589.028738 449.722701 
L 483.55986 449.722701 
L 430.825421 503.877545 
L 483.55986 558.03239 
L 589.028738 558.03239 
L 641.763177 503.877545 
z
" clip-path="url(#pc0bfa55531)" style="fill: none; opacity: 0.390636; stroke: #006699; stroke-linejoin: miter"/>
   </g>
   <g id="patch_142">
    <path d="M 299.628478 678.703704 
L 276.154197 654.597142 
L 229.205636 654.597142 
L 205.731355 678.703704 
L 229.205636 702.810266 
L 276.154197 702.810266 
z
" clip-path="url(#pc0bfa55531)" style="fill: #0022bb; opacity: 0.134288; stroke: #0022bb; stroke-linejoin: miter"/>
   </g>
   <g id="patch_143">
    <path d="M 299.628478 678.703704 
L 276.154197 654.597142 
L 229.205636 654.597142 
L 205.731355 678.703704 
L 219.22422 692.56 
M 286.135613 692.56 
L 299.628478 678.703704 
" clip-path="url(#pc0bfa55531)" style="fill: none; opacity: 0.334288; stroke: #0066aa; stroke-linejoin: miter"/>
   </g>
   <g id="patch_144">
    <path d="M 462.708205 68.331413 
L 416.080182 20.447461 
L 322.824136 20.447461 
L 276.196113 68.331413 
L 322.824136 116.215365 
L 416.080182 116.215365 
z
" clip-path="url(#pc0bfa55531)" style="fill: #0022cc; opacity: 0.337785; stroke: #0022cc; stroke-linejoin: miter"/>
   </g>
   <g id="patch_145">
    <path d="M 462.708205 68.331413 
L 416.080182 20.447461 
L 322.824136 20.447461 
L 276.196113 68.331413 
L 322.824136 116.215365 
L 416.080182 116.215365 
L 462.708205 68.331413 
z
" clip-path="url(#pc0bfa55531)" style="fill: none; opacity: 0.537785; stroke: #0066aa; stroke-linejoin: miter"/>
   </g>
   <g id="patch_146">
    <path d="M 274.511966 147.447488 
L 246.499128 118.680123 
L 190.473452 118.680123 
L 162.460614 147.447488 
L 190.473452 176.214854 
L 246.499128 176.214854 
z
" clip-path="url(#pc0bfa55531)" style="fill: #0022dd; opacity: 0.141403; stroke: #0022dd; stroke-linejoin: miter"/>
   </g>
   <g id="patch_147">
    <path d="M 274.511966 147.447488 
L 246.499128 118.680123 
L 190.473452 118.680123 
L 162.460614 147.447488 
L 190.473452 176.214854 
L 246.499128 176.214854 
L 274.511966 147.447488 
z
" clip-path="url(#pc0bfa55531)" style="fill: none; opacity: 0.341403; stroke: #0066bb; stroke-linejoin: miter"/>
   </g>
   <g id="patch_148">
    <path d="M 403.499728 332.997601 
L 348.388871 276.40233 
L 238.167159 276.40233 
L 183.056303 332.997601 
L 238.167159 389.592871 
L 348.388871 389.592871 
z
" clip-path="url(#pc0bfa55531)" style="fill: #0022dd; opacity: 0.2626; stroke: #0022dd; stroke-linejoin: miter"/>
   </g>
   <g id="patch_149">
    <path d="M 403.499728 332.997601 
L 348.388871 276.40233 
L 238.167159 276.40233 
L 183.056303 332.997601 
L 238.167159 389.592871 
L 348.388871 389.592871 
L 403.499728 332.997601 
z
" clip-path="url(#pc0bfa55531)" style="fill: none; opacity: 0.4626; stroke: #0066cc; stroke-linejoin: miter"/>
   </g>
   <g id="patch_150">
    <path d="M 151.119889 312.30935 
L 115.402968 275.630391 
L 43.969126 275.630391 
L 8.252205 312.30935 
L 43.969126 348.988308 
L 115.402968 348.988308 
z
" clip-path="url(#pc0bfa55531)" style="fill: #0022ee; opacity: 0.2741; stroke: #0022ee; stroke-linejoin: miter"/>
   </g>
   <g id="patch_151">
    <path d="M 151.119889 312.30935 
L 115.402968 275.630391 
L 43.969126 275.630391 
L 8.252205 312.30935 
L 43.969126 348.988308 
L 115.402968 348.988308 
L 151.119889 312.30935 
z
" clip-path="url(#pc0bfa55531)" style="fill: none; opacity: 0.4741; stroke: #0066cc; stroke-linejoin: miter"/>
   </g>
   <g id="patch_152">
    <path d="M 259.534031 343.629155 
L 194.762356 277.112851 
L 65.219007 277.112851 
L 0.447333 343.629155 
L 65.219007 410.145459 
L 194.762356 410.145459 
z
" clip-path="url(#pc0bfa55531)" style="fill: #0022ee; opacity: 0.261071; stroke: #0022ee; stroke-linejoin: miter"/>
   </g>
   <g id="patch_153">
    <path d="M 259.534031 343.629155 
L 194.762356 277.112851 
L 65.219007 277.112851 
L 0.447333 343.629155 
L 65.219007 410.145459 
L 194.762356 410.145459 
L 259.534031 343.629155 
z
" clip-path="url(#pc0bfa55531)" style="fill: none; opacity: 0.461071; stroke: #0066dd; stroke-linejoin: miter"/>
   </g>
   <g id="patch_154">
    <path d="M 1042.457551 373.89805 
L 977.492397 307.183057 
L 847.562091 307.183057 
L 782.596938 373.89805 
L 847.562091 440.613044 
L 977.492397 440.613044 
z
" clip-path="url(#pc0bfa55531)" style="fill: #0022ff; opacity: 0.102914; stroke: #0022ff; stroke-linejoin: miter"/>
   </g>
   <g id="patch_155">
    <path d="M 1042.457551 373.89805 
L 977.492397 307.183057 
L 847.562091 307.183057 
L 782.596938 373.89805 
L 847.562091 440.613044 
L 977.492397 440.613044 
L 1042.457551 373.89805 
z
" clip-path="url(#pc0bfa55531)" style="fill: none; opacity: 0.302914; stroke: #0066ee; stroke-linejoin: miter"/>
   </g>
   <g id="patch_156">
    <path d="M 193.567476 260.581617 
L 153.91506 219.86116 
L 74.610227 219.86116 
L 34.957811 260.581617 
L 74.610227 301.302073 
L 153.91506 301.302073 
z
" clip-path="url(#pc0bfa55531)" style="fill: #003300; opacity: 0.121694; stroke: #003300; stroke-linejoin: miter"/>
   </g>
   <g id="patch_157">
    <path d="M 193.567476 260.581617 
L 153.91506 219.86116 
L 74.610227 219.86116 
L 34.957811 260.581617 
L 74.610227 301.302073 
L 153.91506 301.302073 
L 193.567476 260.581617 
z
" clip-path="url(#pc0bfa55531)" style="fill: none; opacity: 0.321694; stroke: #0066ee; stroke-linejoin: miter"/>
   </g>
   <g id="patch_158">
    <path d="M 1015.094309 255.819648 
L 986.245399 226.19369 
L 928.547578 226.19369 
L 899.698668 255.819648 
L 928.547578 285.445605 
L 986.245399 285.445605 
z
" clip-path="url(#pc0bfa55531)" style="fill: #003300; opacity: 0.286802; stroke: #003300; stroke-linejoin: miter"/>
   </g>
   <g id="patch_159">
    <path d="M 1015.094309 255.819648 
L 986.245399 226.19369 
L 928.547578 226.19369 
L 899.698668 255.819648 
L 928.547578 285.445605 
L 986.245399 285.445605 
L 1015.094309 255.819648 
z
" clip-path="url(#pc0bfa55531)" style="fill: none; opacity: 0.486802; stroke: #0066ff; stroke-linejoin: miter"/>
   </g>
   <g id="patch_160">
    <path d="M 1172.866582 658.431745 
L 1141.647344 626.371615 
L 1079.208868 626.371615 
L 1047.98963 658.431745 
L 1079.208868 690.491875 
L 1141.647344 690.491875 
z
" clip-path="url(#pc0bfa55531)" style="fill: #003311; opacity: 0.303067; stroke: #003311; stroke-linejoin: miter"/>
   </g>
   <g id="patch_161">
    <path d="M 1167.4 652.81792 
L 1141.647344 626.371615 
L 1079.208868 626.371615 
L 1047.98963 658.431745 
L 1079.208868 690.491875 
L 1141.647344 690.491875 
L 1167.4 664.04557 
" clip-path="url(#pc0bfa55531)" style="fill: none; opacity: 0.503067; stroke: #0066ff; stroke-linejoin: miter"/>
   </g>
   <g id="patch_162">
    <path d="M 445.427571 607.738876 
L 411.768714 573.173415 
L 344.450999 573.173415 
L 310.792142 607.738876 
L 344.450999 642.304336 
L 411.768714 642.304336 
z
" clip-path="url(#pc0bfa55531)" style="fill: #003322; opacity: 0.304874; stroke: #003322; stroke-linejoin: miter"/>
   </g>
   <g id="patch_163">
    <path d="M 445.427571 607.738876 
L 411.768714 573.173415 
L 344.450999 573.173415 
L 310.792142 607.738876 
L 344.450999 642.304336 
L 411.768714 642.304336 
L 445.427571 607.738876 
z
" clip-path="url(#pc0bfa55531)" style="fill: none; opacity: 0.504874; stroke: #007700; stroke-linejoin: miter"/>
   </g>
   <g id="patch_164">
    <path d="M 924.699353 347.726754 
L 894.094063 316.297108 
L 832.883483 316.297108 
L 802.278192 347.726754 
L 832.883483 379.156399 
L 894.094063 379.156399 
z
" clip-path="url(#pc0bfa55531)" style="fill: #003322; opacity: 0.11831; stroke: #003322; stroke-linejoin: miter"/>
   </g>
   <g id="patch_165">
    <path d="M 924.699353 347.726754 
L 894.094063 316.297108 
L 832.883483 316.297108 
L 802.278192 347.726754 
L 832.883483 379.156399 
L 894.094063 379.156399 
L 924.699353 347.726754 
z
" clip-path="url(#pc0bfa55531)" style="fill: none; opacity: 0.31831; stroke: #007711; stroke-linejoin: miter"/>
   </g>
   <g id="patch_166">
    <path d="M 870.186253 97.589488 
L 818.063166 44.062462 
L 713.816992 44.062462 
L 661.693905 97.589488 
L 713.816992 151.116513 
L 818.063166 151.116513 
z
" clip-path="url(#pc0bfa55531)" style="fill: #003333; opacity: 0.371355; stroke: #003333; stroke-linejoin: miter"/>
   </g>
   <g id="patch_167">
    <path d="M 870.186253 97.589488 
L 818.063166 44.062462 
L 713.816992 44.062462 
L 661.693905 97.589488 
L 713.816992 151.116513 
L 818.063166 151.116513 
L 870.186253 97.589488 
z
" clip-path="url(#pc0bfa55531)" style="fill: none; opacity: 0.571355; stroke: #007711; stroke-linejoin: miter"/>
   </g>
   <g id="patch_168">
    <path d="M 786.416281 105.862845 
L 724.200388 41.971163 
L 599.768603 41.971163 
L 537.55271 105.862845 
L 599.768603 169.754526 
L 724.200388 169.754526 
z
" clip-path="url(#pc0bfa55531)" style="fill: #003333; opacity: 0.345276; stroke: #003333; stroke-linejoin: miter"/>
   </g>
   <g id="patch_169">
    <path d="M 786.416281 105.862845 
L 724.200388 41.971163 
L 599.768603 41.971163 
L 537.55271 105.862845 
L 599.768603 169.754526 
L 724.200388 169.754526 
L 786.416281 105.862845 
z
" clip-path="url(#pc0bfa55531)" style="fill: none; opacity: 0.545276; stroke: #007722; stroke-linejoin: miter"/>
   </g>
   <g id="patch_170">
    <path d="M 377.277026 297.346007 
L 309.098287 227.330869 
L 172.740808 227.330869 
L 104.562069 297.346007 
L 172.740808 367.361145 
L 309.098287 367.361145 
z
" clip-path="url(#pc0bfa55531)" style="fill: #003344; opacity: 0.171235; stroke: #003344; stroke-linejoin: miter"/>
   </g>
   <g id="patch_171">
    <path d="M 377.277026 297.346007 
L 309.098287 227.330869 
L 172.740808 227.330869 
L 104.562069 297.346007 
L 172.740808 367.361145 
L 309.098287 367.361145 
L 377.277026 297.346007 
z
" clip-path="url(#pc0bfa55531)" style="fill: none; opacity: 0.371235; stroke: #007733; stroke-linejoin: miter"/>
   </g>
   <g id="patch_172">
    <path d="M 179.861074 508.960221 
L 134.436019 462.311639 
L 43.585908 462.311639 
L -1.839147 508.960221 
L 43.585908 555.608803 
L 134.436019 555.608803 
z
" clip-path="url(#pc0bfa55531)" style="fill: #003355; opacity: 0.120663; stroke: #003355; stroke-linejoin: miter"/>
   </g>
   <g id="patch_173">
    <path d="M 179.861074 508.960221 
L 134.436019 462.311639 
L 43.585908 462.311639 
L -1 508.098471 
M -1 509.821971 
L 43.585908 555.608803 
L 134.436019 555.608803 
L 179.861074 508.960221 
" clip-path="url(#pc0bfa55531)" style="fill: none; opacity: 0.320663; stroke: #007733; stroke-linejoin: miter"/>
   </g>
   <g id="patch_174">
    <path d="M 944.767953 168.311757 
L 883.813435 105.715425 
L 761.9044 105.715425 
L 700.949882 168.311757 
L 761.9044 230.908088 
L 883.813435 230.908088 
z
" clip-path="url(#pc0bfa55531)" style="fill: #003355; opacity: 0.126708; stroke: #003355; stroke-linejoin: miter"/>
   </g>
   <g id="patch_175">
    <path d="M 944.767953 168.311757 
L 883.813435 105.715425 
L 761.9044 105.715425 
L 700.949882 168.311757 
L 761.9044 230.908088 
L 883.813435 230.908088 
L 944.767953 168.311757 
z
" clip-path="url(#pc0bfa55531)" style="fill: none; opacity: 0.326708; stroke: #007744; stroke-linejoin: miter"/>
   </g>
   <g id="patch_176">
    <path d="M 715.765075 20.616457 
L 665.39943 -31.10579 
L 564.668138 -31.10579 
L 514.302492 20.616457 
L 564.668138 72.338705 
L 665.39943 72.338705 
z
" clip-path="url(#pc0bfa55531)" style="fill: #003366; opacity: 0.387132; stroke: #003366; stroke-linejoin: miter"/>
   </g>
   <g id="patch_177">
    <path d="M 715.765075 20.616457 
L 694.715587 -1 
M 535.351981 -1 
L 514.302492 20.616457 
L 564.668138 72.338705 
L 665.39943 72.338705 
L 715.765075 20.616457 
" clip-path="url(#pc0bfa55531)" style="fill: none; opacity: 0.587132; stroke: #007744; stroke-linejoin: miter"/>
   </g>
   <g id="patch_178">
    <path d="M 493.599582 82.131018 
L 464.296604 52.038762 
L 405.690647 52.038762 
L 376.387668 82.131018 
L 405.690647 112.223274 
L 464.296604 112.223274 
z
" clip-path="url(#pc0bfa55531)" style="fill: #003377; opacity: 0.391356; stroke: #003377; stroke-linejoin: miter"/>
   </g>
   <g id="patch_179">
    <path d="M 493.599582 82.131018 
L 464.296604 52.038762 
L 405.690647 52.038762 
L 376.387668 82.131018 
L 405.690647 112.223274 
L 464.296604 112.223274 
L 493.599582 82.131018 
z
" clip-path="url(#pc0bfa55531)" style="fill: none; opacity: 0.591356; stroke: #007755; stroke-linejoin: miter"/>
   </g>
   <g id="patch_180">
    <path d="M 248.009962 195.855753 
L 183.878974 129.997392 
L 55.616997 129.997392 
L -8.513992 195.855753 
L 55.616997 261.714113 
L 183.878974 261.714113 
z
" clip-path="url(#pc0bfa55531)" style="fill: #003377; opacity: 0.172384; stroke: #003377; stroke-linejoin: miter"/>
   </g>
   <g id="patch_181">
    <path d="M 248.009962 195.855753 
L 183.878974 129.997392 
L 55.616997 129.997392 
L -1 188.139371 
M -1 203.572134 
L 55.616997 261.714113 
L 183.878974 261.714113 
L 248.009962 195.855753 
" clip-path="url(#pc0bfa55531)" style="fill: none; opacity: 0.372384; stroke: #007766; stroke-linejoin: miter"/>
   </g>
   <g id="patch_182">
    <path d="M 939.692402 673.470923 
C 941.908814 673.470923 944.034745 672.94882 945.601984 672.019602 
C 947.169223 671.090384 948.049813 669.829917 948.049813 668.515804 
C 948.049813 667.201691 947.169223 665.941224 945.601984 665.012006 
C 944.034745 664.082788 941.908814 663.560685 939.692402 663.560685 
C 937.475991 663.560685 935.35006 664.082788 933.782821 665.012006 
C 932.215582 665.941224 931.334992 667.201691 931.334992 668.515804 
C 931.334992 669.829917 932.215582 671.090384 933.782821 672.019602 
C 935.35006 672.94882 937.475991 673.470923 939.692402 673.470923 
z
" clip-path="url(#pc0bfa55531)" style="opacity: 0.5; stroke: #000000; stroke-linejoin: miter"/>
   </g>
   <g id="patch_183">
    <path d="M 427.955259 225.107581 
C 429.925875 225.107581 431.816045 224.643378 433.209481 223.817208 
C 434.602917 222.991038 435.385851 221.870354 435.385851 220.701974 
C 435.385851 219.533593 434.602917 218.412909 433.209481 217.586739 
C 431.816045 216.760569 429.925875 216.296366 427.955259 216.296366 
C 425.984643 216.296366 424.094473 216.760569 422.701037 217.586739 
C 421.307601 218.412909 420.524667 219.533593 420.524667 220.701974 
C 420.524667 221.870354 421.307601 222.991038 422.701037 223.817208 
C 424.094473 224.643378 425.984643 225.107581 427.955259 225.107581 
z
" clip-path="url(#pc0bfa55531)" style="opacity: 0.5; stroke: #000000; stroke-linejoin: miter"/>
   </g>
   <g id="patch_184">
    <path d="M 688.00555 666.248618 
C 689.591641 666.248618 691.112983 665.874995 692.234519 665.210035 
C 693.356055 664.545075 693.986215 663.64307 693.986215 662.702674 
C 693.986215 661.762279 693.356055 660.860273 692.234519 660.195313 
C 691.112983 659.530353 689.591641 659.15673 688.00555 659.15673 
C 686.419458 659.15673 684.898116 659.530353 683.77658 660.195313 
C 682.655044 660.860273 682.024884 661.762279 682.024884 662.702674 
C 682.024884 663.64307 682.655044 664.545075 683.77658 665.210035 
C 684.898116 665.874995 686.419458 666.248618 688.00555 666.248618 
z
" clip-path="url(#pc0bfa55531)" style="fill: #000011; opacity: 0.5; stroke: #000011; stroke-linejoin: miter"/>
   </g>
   <g id="patch_185">
    <path d="M 814.503986 376.609874 
C 817.481761 376.609874 820.337976 375.908422 822.443582 374.660006 
C 824.549187 373.41159 825.73227 371.718137 825.73227 369.95261 
C 825.73227 368.187083 824.549187 366.493629 822.443582 365.245213 
C 820.337976 363.996797 817.481761 363.295346 814.503986 363.295346 
C 811.52621 363.295346 808.669995 363.996797 806.564389 365.245213 
C 804.458784 366.493629 803.275701 368.187083 803.275701 369.95261 
C 803.275701 371.718137 804.458784 373.41159 806.564389 374.660006 
C 808.669995 375.908422 811.52621 376.609874 814.503986 376.609874 
z
" clip-path="url(#pc0bfa55531)" style="fill: #000011; opacity: 0.5; stroke: #000011; stroke-linejoin: miter"/>
   </g>
   <g id="patch_186">
    <path d="M 952.112555 535.126391 
C 954.63467 535.126391 957.053826 534.532276 958.83723 533.474893 
C 960.620635 532.41751 961.622682 530.98319 961.622682 529.487825 
C 961.622682 527.99246 960.620635 526.558139 958.83723 525.500756 
C 957.053826 524.443373 954.63467 523.849259 952.112555 523.849259 
C 949.59044 523.849259 947.171284 524.443373 945.387879 525.500756 
C 943.604474 526.558139 942.602427 527.99246 942.602427 529.487825 
C 942.602427 530.98319 943.604474 532.41751 945.387879 533.474893 
C 947.171284 534.532276 949.59044 535.126391 952.112555 535.126391 
z
" clip-path="url(#pc0bfa55531)" style="fill: #000022; opacity: 0.5; stroke: #000022; stroke-linejoin: miter"/>
   </g>
   <g id="patch_187">
    <path d="M 547.060303 529.96923 
C 549.466352 529.96923 551.77418 529.402456 553.475514 528.393733 
C 555.176848 527.38501 556.132782 526.016696 556.132782 524.590146 
C 556.132782 523.163596 555.176848 521.795282 553.475514 520.786559 
C 551.77418 519.777836 549.466352 519.211062 547.060303 519.211062 
C 544.654253 519.211062 542.346425 519.777836 540.645091 520.786559 
C 538.943757 521.795282 537.987824 523.163596 537.987824 524.590146 
C 537.987824 526.016696 538.943757 527.38501 540.645091 528.393733 
C 542.346425 529.402456 544.654253 529.96923 547.060303 529.96923 
z
" clip-path="url(#pc0bfa55531)" style="fill: #000033; opacity: 0.5; stroke: #000033; stroke-linejoin: miter"/>
   </g>
   <g id="patch_188">
    <path d="M 4.762039 523.084086 
C 6.598011 523.084086 8.359035 522.6516 9.657263 521.881879 
C 10.955492 521.112157 11.684932 520.068045 11.684932 518.979494 
C 11.684932 517.890943 10.955492 516.846831 9.657263 516.077109 
C 8.359035 515.307388 6.598011 514.874902 4.762039 514.874902 
C 2.926066 514.874902 1.165042 515.307388 -0.133186 516.077109 
C -1.431415 516.846831 -2.160855 517.890943 -2.160855 518.979494 
C -2.160855 520.068045 -1.431415 521.112157 -0.133186 521.881879 
C 1.165042 522.6516 2.926066 523.084086 4.762039 523.084086 
z
" clip-path="url(#pc0bfa55531)" style="fill: #000033; opacity: 0.5; stroke: #000033; stroke-linejoin: miter"/>
   </g>
   <g id="patch_189">
    <path d="M 1139.371504 42.802432 
C 1142.163983 42.802432 1144.842465 42.144629 1146.817046 40.973898 
C 1148.791627 39.803167 1149.90109 38.215091 1149.90109 36.559427 
C 1149.90109 34.903763 1148.791627 33.315688 1146.817046 32.144956 
C 1144.842465 30.974225 1142.163983 30.316423 1139.371504 30.316423 
C 1136.579026 30.316423 1133.900544 30.974225 1131.925963 32.144956 
C 1129.951382 33.315688 1128.841919 34.903763 1128.841919 36.559427 
C 1128.841919 38.215091 1129.951382 39.803167 1131.925963 40.973898 
C 1133.900544 42.144629 1136.579026 42.802432 1139.371504 42.802432 
z
" clip-path="url(#pc0bfa55531)" style="fill: #000044; opacity: 0.5; stroke: #000044; stroke-linejoin: miter"/>
   </g>
   <g id="patch_190">
    <path d="M 402.375879 247.706203 
C 404.533763 247.706203 406.603556 247.197887 408.12941 246.293206 
C 409.655264 245.388525 410.512601 244.161342 410.512601 242.88193 
C 410.512601 241.602518 409.655264 240.375336 408.12941 239.470655 
C 406.603556 238.565974 404.533763 238.057658 402.375879 238.057658 
C 400.217995 238.057658 398.148202 238.565974 396.622348 239.470655 
C 395.096494 240.375336 394.239157 241.602518 394.239157 242.88193 
C 394.239157 244.161342 395.096494 245.388525 396.622348 246.293206 
C 398.148202 247.197887 400.217995 247.706203 402.375879 247.706203 
z
" clip-path="url(#pc0bfa55531)" style="fill: #000055; opacity: 0.5; stroke: #000055; stroke-linejoin: miter"/>
   </g>
   <g id="patch_191">
    <path d="M 1123.532907 376.031727 
C 1125.637601 376.031727 1127.656376 375.53594 1129.144619 374.653559 
C 1130.632863 373.771178 1131.469067 372.574244 1131.469067 371.326368 
C 1131.469067 370.078492 1130.632863 368.881558 1129.144619 367.999177 
C 1127.656376 367.116796 1125.637601 366.62101 1123.532907 366.62101 
C 1121.428213 366.62101 1119.409439 367.116796 1117.921195 367.999177 
C 1116.432952 368.881558 1115.596748 370.078492 1115.596748 371.326368 
C 1115.596748 372.574244 1116.432952 373.771178 1117.921195 374.653559 
C 1119.409439 375.53594 1121.428213 376.031727 1123.532907 376.031727 
z
" clip-path="url(#pc0bfa55531)" style="fill: #000055; opacity: 0.5; stroke: #000055; stroke-linejoin: miter"/>
   </g>
   <g id="patch_192">
    <path d="M 82.436167 685.327295 
C 84.976645 685.327295 87.413413 684.728855 89.209803 683.663773 
C 91.006192 682.598692 92.015535 681.153929 92.015535 679.647676 
C 92.015535 678.141424 91.006192 676.696661 89.209803 675.631579 
C 87.413413 674.566498 84.976645 673.968057 82.436167 673.968057 
C 79.895689 673.968057 77.45892 674.566498 75.662531 675.631579 
C 73.866142 676.696661 72.856799 678.141424 72.856799 679.647676 
C 72.856799 681.153929 73.866142 682.598692 75.662531 683.663773 
C 77.45892 684.728855 79.895689 685.327295 82.436167 685.327295 
z
" clip-path="url(#pc0bfa55531)" style="fill: #000066; opacity: 0.5; stroke: #000066; stroke-linejoin: miter"/>
   </g>
   <g id="patch_193">
    <path d="M 280.263557 127.853937 
C 282.464956 127.853937 284.576487 127.335371 286.133111 126.412446 
C 287.689735 125.489522 288.56436 124.237593 288.56436 122.932381 
C 288.56436 121.627169 287.689735 120.375239 286.133111 119.452315 
C 284.576487 118.529391 282.464956 118.010824 280.263557 118.010824 
C 278.062159 118.010824 275.950627 118.529391 274.394003 119.452315 
C 272.837379 120.375239 271.962754 121.627169 271.962754 122.932381 
C 271.962754 124.237593 272.837379 125.489522 274.394003 126.412446 
C 275.950627 127.335371 278.062159 127.853937 280.263557 127.853937 
z
" clip-path="url(#pc0bfa55531)" style="fill: #000066; opacity: 0.5; stroke: #000066; stroke-linejoin: miter"/>
   </g>
   <g id="patch_194">
    <path d="M 416.639275 19.109709 
C 419.389707 19.109709 422.027859 18.461812 423.972708 17.308708 
C 425.917557 16.155605 427.010315 14.591441 427.010315 12.960707 
C 427.010315 11.329972 425.917557 9.765809 423.972708 8.612705 
C 422.027859 7.459602 419.389707 6.811704 416.639275 6.811704 
C 413.888843 6.811704 411.250691 7.459602 409.305842 8.612705 
C 407.360993 9.765809 406.268234 11.329972 406.268234 12.960707 
C 406.268234 14.591441 407.360993 16.155605 409.305842 17.308708 
C 411.250691 18.461812 413.888843 19.109709 416.639275 19.109709 
z
" clip-path="url(#pc0bfa55531)" style="fill: #000077; opacity: 0.5; stroke: #000077; stroke-linejoin: miter"/>
   </g>
   <g id="patch_195">
    <path d="M 1009.958548 167.132847 
C 1012.682136 167.132847 1015.29454 166.491272 1017.220408 165.349423 
C 1019.146276 164.207573 1020.22837 162.658676 1020.22837 161.043857 
C 1020.22837 159.429038 1019.146276 157.88014 1017.220408 156.738291 
C 1015.29454 155.596441 1012.682136 154.954867 1009.958548 154.954867 
C 1007.234959 154.954867 1004.622555 155.596441 1002.696687 156.738291 
C 1000.770819 157.88014 999.688726 159.429038 999.688726 161.043857 
C 999.688726 162.658676 1000.770819 164.207573 1002.696687 165.349423 
C 1004.622555 166.491272 1007.234959 167.132847 1009.958548 167.132847 
z
" clip-path="url(#pc0bfa55531)" style="fill: #000088; opacity: 0.5; stroke: #000088; stroke-linejoin: miter"/>
   </g>
   <g id="patch_196">
    <path d="M 617.826428 582.871471 
C 620.643516 582.871471 623.345604 582.207872 625.337586 581.026823 
C 627.329569 579.845774 628.44881 578.243703 628.44881 576.573448 
C 628.44881 574.903192 627.329569 573.301121 625.337586 572.120073 
C 623.345604 570.939024 620.643516 570.275424 617.826428 570.275424 
C 615.009339 570.275424 612.307252 570.939024 610.315269 572.120073 
C 608.323287 573.301121 607.204046 574.903192 607.204046 576.573448 
C 607.204046 578.243703 608.323287 579.845774 610.315269 581.026823 
C 612.307252 582.207872 615.009339 582.871471 617.826428 582.871471 
z
" clip-path="url(#pc0bfa55531)" style="fill: #000088; opacity: 0.5; stroke: #000088; stroke-linejoin: miter"/>
   </g>
   <g id="patch_197">
    <path d="M 1112.320917 243.098299 
C 1114.751917 243.098299 1117.083677 242.525648 1118.802654 241.506464 
C 1120.521631 240.487281 1121.487477 239.104777 1121.487477 237.663435 
C 1121.487477 236.222092 1120.521631 234.839588 1118.802654 233.820405 
C 1117.083677 232.801222 1114.751917 232.22857 1112.320917 232.22857 
C 1109.889917 232.22857 1107.558157 232.801222 1105.839181 233.820405 
C 1104.120204 234.839588 1103.154358 236.222092 1103.154358 237.663435 
C 1103.154358 239.104777 1104.120204 240.487281 1105.839181 241.506464 
C 1107.558157 242.525648 1109.889917 243.098299 1112.320917 243.098299 
z
" clip-path="url(#pc0bfa55531)" style="fill: #000099; opacity: 0.5; stroke: #000099; stroke-linejoin: miter"/>
   </g>
   <g id="patch_198">
    <path d="M 754.052047 503.662631 
C 756.05165 503.662631 757.969623 503.1916 759.383555 502.353278 
C 760.797487 501.514956 761.591938 500.377787 761.591938 499.192221 
C 761.591938 498.006654 760.797487 496.869486 759.383555 496.031164 
C 757.969623 495.192841 756.05165 494.721811 754.052047 494.721811 
C 752.052445 494.721811 750.134472 495.192841 748.72054 496.031164 
C 747.306608 496.869486 746.512157 498.006654 746.512157 499.192221 
C 746.512157 500.377787 747.306608 501.514956 748.72054 502.353278 
C 750.134472 503.1916 752.052445 503.662631 754.052047 503.662631 
z
" clip-path="url(#pc0bfa55531)" style="fill: #0000aa; opacity: 0.5; stroke: #0000aa; stroke-linejoin: miter"/>
   </g>
   <g id="patch_199">
    <path d="M 194.817478 487.094987 
C 196.571444 487.094987 198.253808 486.681819 199.49405 485.946478 
C 200.734291 485.211137 201.431149 484.213662 201.431149 483.173733 
C 201.431149 482.133804 200.734291 481.136328 199.49405 480.400988 
C 198.253808 479.665647 196.571444 479.252479 194.817478 479.252479 
C 193.063512 479.252479 191.381148 479.665647 190.140906 480.400988 
C 188.900665 481.136328 188.203807 482.133804 188.203807 483.173733 
C 188.203807 484.213662 188.900665 485.211137 190.140906 485.946478 
C 191.381148 486.681819 193.063512 487.094987 194.817478 487.094987 
z
" clip-path="url(#pc0bfa55531)" style="fill: #0000aa; opacity: 0.5; stroke: #0000aa; stroke-linejoin: miter"/>
   </g>
   <g id="patch_200">
    <path d="M 1022.693551 270.366956 
C 1024.794665 270.366956 1026.810006 269.872013 1028.295718 268.991133 
C 1029.78143 268.110252 1030.616211 266.915354 1030.616211 265.669601 
C 1030.616211 264.423848 1029.78143 263.22895 1028.295718 262.34807 
C 1026.810006 261.46719 1024.794665 260.972247 1022.693551 260.972247 
C 1020.592437 260.972247 1018.577096 261.46719 1017.091385 262.34807 
C 1015.605673 263.22895 1014.770891 264.423848 1014.770891 265.669601 
C 1014.770891 266.915354 1015.605673 268.110252 1017.091385 268.991133 
C 1018.577096 269.872013 1020.592437 270.366956 1022.693551 270.366956 
z
" clip-path="url(#pc0bfa55531)" style="fill: #0000bb; opacity: 0.5; stroke: #0000bb; stroke-linejoin: miter"/>
   </g>
   <g id="patch_201">
    <path d="M 506.963274 691.033166 
C 508.791066 691.033166 510.544243 690.602607 511.836687 689.836315 
C 513.129131 689.070024 513.855321 688.030563 513.855321 686.946863 
C 513.855321 685.863162 513.129131 684.823702 511.836687 684.05741 
C 510.544243 683.291118 508.791066 682.860559 506.963274 682.860559 
C 505.135481 682.860559 503.382304 683.291118 502.08986 684.05741 
C 500.797416 684.823702 500.071226 685.863162 500.071226 686.946863 
C 500.071226 688.030563 500.797416 689.070024 502.08986 689.836315 
C 503.382304 690.602607 505.135481 691.033166 506.963274 691.033166 
z
" clip-path="url(#pc0bfa55531)" style="fill: #0000bb; opacity: 0.5; stroke: #0000bb; stroke-linejoin: miter"/>
   </g>
   <g id="patch_202">
    <path d="M 105.094522 117.912104 
C 106.893861 117.912104 108.619747 117.488248 109.892072 116.733884 
C 111.164397 115.979521 111.879282 114.956242 111.879282 113.889411 
C 111.879282 112.822581 111.164397 111.799301 109.892072 111.044938 
C 108.619747 110.290575 106.893861 109.866718 105.094522 109.866718 
C 103.295182 109.866718 101.569297 110.290575 100.296972 111.044938 
C 99.024647 111.799301 98.309762 112.822581 98.309762 113.889411 
C 98.309762 114.956242 99.024647 115.979521 100.296972 116.733884 
C 101.569297 117.488248 103.295182 117.912104 105.094522 117.912104 
z
" clip-path="url(#pc0bfa55531)" style="fill: #0000cc; opacity: 0.5; stroke: #0000cc; stroke-linejoin: miter"/>
   </g>
   <g id="patch_203">
    <path d="M 95.396724 103.488388 
C 98.056699 103.488388 100.608086 102.861798 102.488973 101.746618 
C 104.369859 100.631438 105.426679 99.118718 105.426679 97.541615 
C 105.426679 95.964513 104.369859 94.451792 102.488973 93.336612 
C 100.608086 92.221432 98.056699 91.594842 95.396724 91.594842 
C 92.736749 91.594842 90.185361 92.221432 88.304475 93.336612 
C 86.423588 94.451792 85.366769 95.964513 85.366769 97.541615 
C 85.366769 99.118718 86.423588 100.631438 88.304475 101.746618 
C 90.185361 102.861798 92.736749 103.488388 95.396724 103.488388 
z
" clip-path="url(#pc0bfa55531)" style="fill: #0000dd; opacity: 0.5; stroke: #0000dd; stroke-linejoin: miter"/>
   </g>
   <g id="patch_204">
    <path d="M 810.135651 113.611048 
C 813.060361 113.611048 815.865676 112.922097 817.933758 111.695929 
C 820.00184 110.46976 821.16384 108.806486 821.16384 107.072422 
C 821.16384 105.338358 820.00184 103.675083 817.933758 102.448914 
C 815.865676 101.222746 813.060361 100.533795 810.135651 100.533795 
C 807.210941 100.533795 804.405626 101.222746 802.337544 102.448914 
C 800.269462 103.675083 799.107462 105.338358 799.107462 107.072422 
C 799.107462 108.806486 800.269462 110.46976 802.337544 111.695929 
C 804.405626 112.922097 807.210941 113.611048 810.135651 113.611048 
z
" clip-path="url(#pc0bfa55531)" style="fill: #0000dd; opacity: 0.5; stroke: #0000dd; stroke-linejoin: miter"/>
   </g>
   <g id="patch_205">
    <path d="M 974.097872 422.432661 
C 976.273058 422.432661 978.359446 421.92027 979.897534 421.008335 
C 981.435623 420.0964 982.299833 418.859378 982.299833 417.569708 
C 982.299833 416.280038 981.435623 415.043016 979.897534 414.131081 
C 978.359446 413.219147 976.273058 412.706755 974.097872 412.706755 
C 971.922687 412.706755 969.836298 413.219147 968.29821 414.131081 
C 966.760121 415.043016 965.895911 416.280038 965.895911 417.569708 
C 965.895911 418.859378 966.760121 420.0964 968.29821 421.008335 
C 969.836298 421.92027 971.922687 422.432661 974.097872 422.432661 
z
" clip-path="url(#pc0bfa55531)" style="fill: #0000ee; opacity: 0.5; stroke: #0000ee; stroke-linejoin: miter"/>
   </g>
   <g id="patch_206">
    <path d="M 835.525078 391.356947 
C 838.064976 391.356947 840.501188 390.758643 842.297167 389.693805 
C 844.093146 388.628967 845.102258 387.184533 845.102258 385.678625 
C 845.102258 384.172716 844.093146 382.728283 842.297167 381.663444 
C 840.501188 380.598606 838.064976 380.000302 835.525078 380.000302 
C 832.98518 380.000302 830.548967 380.598606 828.752988 381.663444 
C 826.957009 382.728283 825.947897 384.172716 825.947897 385.678625 
C 825.947897 387.184533 826.957009 388.628967 828.752988 389.693805 
C 830.548967 390.758643 832.98518 391.356947 835.525078 391.356947 
z
" clip-path="url(#pc0bfa55531)" style="fill: #0000ff; opacity: 0.5; stroke: #0000ff; stroke-linejoin: miter"/>
   </g>
   <g id="patch_207">
    <path d="M 592.992543 357.472813 
C 594.995755 357.472813 596.91719 357.000932 598.333675 356.161097 
C 599.75016 355.321261 600.546044 354.18204 600.546044 352.994333 
C 600.546044 351.806626 599.75016 350.667405 598.333675 349.82757 
C 596.91719 348.987734 594.995755 348.515853 592.992543 348.515853 
C 590.989332 348.515853 589.067896 348.987734 587.651412 349.82757 
C 586.234927 350.667405 585.439043 351.806626 585.439043 352.994333 
C 585.439043 354.18204 586.234927 355.321261 587.651412 356.161097 
C 589.067896 357.000932 590.989332 357.472813 592.992543 357.472813 
z
" clip-path="url(#pc0bfa55531)" style="fill: #0000ff; opacity: 0.5; stroke: #0000ff; stroke-linejoin: miter"/>
   </g>
   <g id="patch_208">
    <path d="M 869.990644 399.568845 
C 871.683072 399.568845 873.306411 399.170173 874.503138 398.460632 
C 875.699865 397.751091 876.372274 396.788612 876.372274 395.785169 
C 876.372274 394.781727 875.699865 393.819247 874.503138 393.109706 
C 873.306411 392.400165 871.683072 392.001493 869.990644 392.001493 
C 868.298217 392.001493 866.674878 392.400165 865.478151 393.109706 
C 864.281424 393.819247 863.609015 394.781727 863.609015 395.785169 
C 863.609015 396.788612 864.281424 397.751091 865.478151 398.460632 
C 866.674878 399.170173 868.298217 399.568845 869.990644 399.568845 
z
" clip-path="url(#pc0bfa55531)" style="fill: #001100; opacity: 0.5; stroke: #001100; stroke-linejoin: miter"/>
   </g>
   <g id="patch_209">
    <path d="M 569.588743 101.160176 
C 572.329027 101.160176 574.957446 100.514668 576.89512 99.365819 
C 578.832793 98.21697 579.92152 96.658578 579.92152 95.033859 
C 579.92152 93.409141 578.832793 91.850749 576.89512 90.7019 
C 574.957446 89.55305 572.329027 88.907543 569.588743 88.907543 
C 566.848458 88.907543 564.22004 89.55305 562.282366 90.7019 
C 560.344692 91.850749 559.255966 93.409141 559.255966 95.033859 
C 559.255966 96.658578 560.344692 98.21697 562.282366 99.365819 
C 564.22004 100.514668 566.848458 101.160176 569.588743 101.160176 
z
" clip-path="url(#pc0bfa55531)" style="fill: #001100; opacity: 0.5; stroke: #001100; stroke-linejoin: miter"/>
   </g>
   <g id="patch_210">
    <path d="M 545.397001 639.621837 
C 547.430976 639.621837 549.381918 639.14271 550.820156 638.289977 
C 552.258394 637.437244 553.0665 636.280528 553.0665 635.074582 
C 553.0665 633.868635 552.258394 632.711919 550.820156 631.859186 
C 549.381918 631.006454 547.430976 630.527326 545.397001 630.527326 
C 543.363026 630.527326 541.412084 631.006454 539.973846 631.859186 
C 538.535608 632.711919 537.727502 633.868635 537.727502 635.074582 
C 537.727502 636.280528 538.535608 637.437244 539.973846 638.289977 
C 541.412084 639.14271 543.363026 639.621837 545.397001 639.621837 
z
" clip-path="url(#pc0bfa55531)" style="fill: #001111; opacity: 0.5; stroke: #001111; stroke-linejoin: miter"/>
   </g>
   <g id="patch_211">
    <path d="M 78.145661 10.733521 
C 80.193603 10.733521 82.157943 10.251104 83.606056 9.392515 
C 85.05417 8.533927 85.867826 7.369267 85.867826 6.15504 
C 85.867826 4.940813 85.05417 3.776153 83.606056 2.917565 
C 82.157943 2.058977 80.193603 1.576559 78.145661 1.576559 
C 76.097719 1.576559 74.13338 2.058977 72.685266 2.917565 
C 71.237152 3.776153 70.423496 4.940813 70.423496 6.15504 
C 70.423496 7.369267 71.237152 8.533927 72.685266 9.392515 
C 74.13338 10.251104 76.097719 10.733521 78.145661 10.733521 
z
" clip-path="url(#pc0bfa55531)" style="fill: #001122; opacity: 0.5; stroke: #001122; stroke-linejoin: miter"/>
   </g>
  </g>
 </g>
 <defs>
  <clipPath id="pc0bfa55531">
   <rect x="0" y="0" width="1166.4" height="691.56"/>
  </clipPath>
 </defs>
</svg>
